<?xml version="1.0" standalone="no"?>
<!DOCTYPE svg PUBLIC "-//W3C//DTD SVG 1.1//EN" "http://www.w3.org/Graphics/SVG/1.1/DTD/svg11.dtd" >
<svg>
<metadata>
Created by FontForge 20090622 at Wed Mar 28 20:11:26 2018
 By deploy user
(URW)++, Copyright &#194;&#169; 2000 by (URW)++ Design &#38; Development
</metadata>
<defs>
<font id="NimbusSansDOT-BoldCond" horiz-adv-x="332" >
  <font-face 
    font-family="Nimbus Sans D OT Condensed"
    font-weight="700"
    font-stretch="condensed"
    units-per-em="1000"
    panose-1="2 0 0 0 0 0 0 0 0 0"
    ascent="800"
    descent="-200"
    x-height="503"
    cap-height="667"
    bbox="-147 -250 744 870"
    underline-thickness="82"
    underline-position="-18"
    unicode-range="U+0020-U+FB02"
  />
<missing-glyph horiz-adv-x="233" 
 />
    <glyph glyph-name="fi" unicode="fi" horiz-adv-x="346" 
d="M138 420v-420h-93v420h-34v83h34v91q0 46 18 63.5t65 17.5q1 0 43 -2v-79q-23 0 -28 -8t-5 -42v-41h33v-83h-33zM304 503v-503h-93v503h93zM304 667v-109h-93v109h93z" />
    <glyph glyph-name="fl" unicode="fl" horiz-adv-x="346" 
d="M138 420v-420h-93v420h-34v83h34v91q0 46 18 63.5t65 17.5q1 0 43 -2v-79q-23 0 -28 -8t-5 -42v-41h33v-83h-33zM304 667v-667h-93v667h93z" />
    <glyph glyph-name=".notdef" horiz-adv-x="233" 
 />
    <glyph glyph-name=".null" horiz-adv-x="0" 
 />
    <glyph glyph-name="nonmarkingreturn" horiz-adv-x="333" 
 />
    <glyph glyph-name="space" unicode=" " horiz-adv-x="233" 
 />
    <glyph glyph-name="space" unicode="&#xa0;" horiz-adv-x="233" 
 />
    <glyph glyph-name="exclam" unicode="!" horiz-adv-x="213" 
d="M55 115h102v-115h-102v115zM132 137h-52l-25 156v374h102v-374z" />
    <glyph glyph-name="quotedbl" unicode="&#x22;" horiz-adv-x="354" 
d="M133 399h-68l-15 268h99zM289 399h-68l-15 268h99z" />
    <glyph glyph-name="numbersign" unicode="#" horiz-adv-x="477" 
d="M413 275l-11 -71h-62l-32 -204h-81l31 204h-82l-32 -204h-78l31 204h-64l11 71h64l20 129h-64l11 71h64l29 192h79l-30 -192h83l29 192h82l-30 -192h62l-11 -71h-62l-19 -129h62zM289 404h-83l-19 -129h82z" />
    <glyph glyph-name="dollar" unicode="$" horiz-adv-x="407" 
d="M39 241h102v-56q0 -48 13.5 -68t45.5 -20q31 0 48.5 18t17.5 49q0 33 -20.5 63.5t-73.5 75.5q-76 65 -101 104t-25 93q0 41 15 76t40 54q27 20 76 27v78h47v-78q72 -7 100.5 -42.5t28.5 -115.5v-51h-102v25q0 57 -11.5 79t-40.5 22q-23 0 -37 -16.5t-14 -44.5t15.5 -51.5
t58.5 -60.5q86 -74 116 -120.5t30 -108.5q0 -147 -144 -158v-77h-47v77q-71 7 -104.5 44.5t-33.5 111.5v71z" />
    <glyph glyph-name="percent" unicode="%" horiz-adv-x="560" 
d="M431 339q54 0 74 -37q13 -22 13 -136q0 -78 -3 -103.5t-14 -40.5q-21 -30 -71 -30q-56 0 -75 37q-8 15 -10.5 39.5t-2.5 93.5q0 81 3 106.5t14 40.5q23 30 72 30zM430 293q-17 0 -22 -14q-6 -14 -6 -113q0 -101 6 -114q5 -14 22 -14t22 14q6 14 6 114q0 99 -6 113
q-5 14 -22 14zM146 0l204 665h62l-205 -665h-61zM131 675q54 0 74 -37q13 -22 13 -136q0 -78 -3 -103.5t-14 -40.5q-21 -30 -71 -30q-56 0 -75 37q-8 15 -10.5 39.5t-2.5 93.5q0 81 3 106.5t14 40.5q23 30 72 30zM130 629q-17 0 -22 -14q-6 -14 -6 -113q0 -101 6 -114
q5 -14 22 -14t22 14q6 14 6 114q0 99 -6 113q-5 14 -22 14z" />
    <glyph glyph-name="ampersand" unicode="&#x26;" horiz-adv-x="478" 
d="M264 384l73 -146q14 77 14 138v5h100q-2 -141 -57 -258l63 -123h-115l-15 32q-45 -42 -115 -42q-79 0 -124 51q-51 61 -51 144q0 119 110 220q-40 91 -40 146q0 57 34.5 91.5t92.5 34.5q56 0 93 -35t37 -87q0 -45 -21 -81t-79 -90zM226 460q51 45 51 85q0 19 -12 32
t-30 13q-17 0 -27 -12t-10 -31q0 -37 28 -87zM283 123l-94 197q-50 -57 -50 -129q0 -50 22 -82t56 -32q40 0 66 46z" />
    <glyph glyph-name="quotesingle" unicode="'" horiz-adv-x="198" 
d="M134 399h-68l-16 268h99z" />
    <glyph glyph-name="parenleft" unicode="(" horiz-adv-x="216" 
d="M173 -7v-79q-61 13 -95 57q-35 44 -35 173v300q0 76 9.5 116t34.5 67q33 35 86 47v-80q-33 -11 -33 -99v-403q0 -87 33 -99z" />
    <glyph glyph-name="parenright" unicode=")" horiz-adv-x="216" 
d="M43 -86v79q32 14 32 99v403q0 85 -32 99v80q62 -14 94 -58q35 -44 35 -172v-300q0 -77 -9.5 -117t-34.5 -66q-32 -36 -85 -47z" />
    <glyph glyph-name="asterisk" unicode="*" horiz-adv-x="341" 
d="M225 520l51 -65l-58 -42l-47 68l-47 -69l-58 42l51 66l-80 24l22 68l79 -28l-3 83h72l-3 -83l79 28l22 -68z" />
    <glyph glyph-name="plus" unicode="+" horiz-adv-x="407" 
d="M245 299v-135h-83v135h-121v83h121v134h83v-134h121v-83h-121z" />
    <glyph glyph-name="comma" unicode="," horiz-adv-x="181" 
d="M33 100h97v-124l-97 -117v68l41 49h-41v124z" />
    <glyph glyph-name="hyphen" unicode="-" horiz-adv-x="154" 
d="M0 327h154v-88h-154v88z" />
    <glyph glyph-name="hyphen" unicode="&#xad;" horiz-adv-x="154" 
d="M0 327h154v-88h-154v88z" />
    <glyph glyph-name="period" unicode="." horiz-adv-x="181" 
d="M42 122h97v-122h-97v122z" />
    <glyph glyph-name="slash" unicode="/" horiz-adv-x="292" 
d="M200 667h77l-191 -747h-77z" />
    <glyph glyph-name="zero" unicode="0" horiz-adv-x="407" 
d="M205 677q114 0 144 -99q14 -49 14 -244q0 -125 -4 -179t-16 -83q-33 -82 -140 -82q-116 0 -146 99q-14 49 -14 248q0 207 20 258q34 82 142 82zM203 590q-47 0 -54 -56q-4 -23 -4 -199q0 -182 6 -212q9 -46 52 -46q47 0 54 56q4 23 4 201t-5 210q-11 46 -53 46z" />
    <glyph glyph-name="one" unicode="1" horiz-adv-x="407" 
d="M271 667v-667h-102v546h-63v77q28 2 47.5 14t22.5 30h95z" />
    <glyph glyph-name="two" unicode="2" horiz-adv-x="407" 
d="M346 90v-90h-297q-2 104 29 188.5t102 168.5q54 64 69.5 93t15.5 67q0 34 -14 53.5t-39 19.5q-29 0 -42 -26t-13 -84q0 -8 1 -15h-103v24q0 105 40 146q40 42 122 42q73 0 111.5 -40.5t38.5 -117.5q0 -66 -32 -127q-15 -28 -83 -110q-52 -64 -73 -106t-22 -86h189z" />
    <glyph glyph-name="three" unicode="3" horiz-adv-x="407" 
d="M45 225h102v-63q0 -46 13 -65.5t42 -19.5q39 0 52 31q7 18 7 62q0 91 -13 112q-18 30 -76 30q-12 0 -25 -1v85q66 1 85 18.5t19 76.5q0 55 -12 77t-41 22q-40 0 -47 -43q-2 -22 -4 -75h-102l1 22q2 56 7.5 81t19.5 47q36 55 123 55q157 0 157 -183q0 -56 -14.5 -87
t-48.5 -49q42 -16 57.5 -46.5t15.5 -98.5q0 -93 -12 -133q-12 -42 -52 -66t-97 -24q-89 0 -128 47q-17 20 -23 45.5t-6 79.5v63z" />
    <glyph glyph-name="four" unicode="4" horiz-adv-x="407" 
d="M317 667v-424h51v-90h-51v-153h-102v153h-172v83l161 431h113zM215 243v267l-90 -267h90z" />
    <glyph glyph-name="five" unicode="5" horiz-adv-x="407" 
d="M58 320v347h278v-90h-187v-134q37 24 80 24q37 0 67.5 -19t44.5 -50q24 -52 24 -171q0 -115 -23 -164q-34 -73 -142 -73q-106 0 -140 78q-13 31 -13 129v38h102v-66q0 -54 11 -73t42 -19q40 0 54 36q7 21 7 106q0 104 -12 129q-14 32 -48 32q-24 0 -36.5 -14t-17.5 -46
h-91z" />
    <glyph glyph-name="six" unicode="6" horiz-adv-x="407" 
d="M358 519h-103q0 33 -5 46q-9 25 -41 25q-34 0 -47 -34t-13 -125q42 30 86 30q34 0 62.5 -16t42.5 -44q24 -48 24 -147q0 -149 -32 -202q-17 -28 -52.5 -45t-77.5 -17q-115 0 -143 98q-11 35 -11 167q0 203 10 288q16 134 154 134q76 0 110.5 -37.5t35.5 -120.5zM208 374
q-37 0 -49 -35q-8 -27 -8 -108q0 -97 10 -124q11 -30 47 -30q31 0 43 26q10 21 10 125q0 88 -8 113q-11 33 -45 33z" />
    <glyph glyph-name="seven" unicode="7" horiz-adv-x="407" 
d="M347 667v-103q-105 -275 -118 -564h-111q5 250 132 577h-197v90h294z" />
    <glyph glyph-name="eight" unicode="8" horiz-adv-x="407" 
d="M282 359q47 -16 63.5 -49.5t16.5 -116.5q0 -104 -32 -149q-38 -54 -127 -54t-127 54q-32 45 -32 149q0 83 16.5 116.5t63.5 49.5q-29 16 -42 33q-29 38 -29 118q0 167 150 167t150 -167q0 -78 -29 -118q-14 -18 -42 -33zM204 312q-34 0 -46 -23.5t-12 -88.5q0 -73 10 -97
q10 -26 47 -26t47 26q10 23 10 94q0 60 -8 84q-11 31 -48 31zM203 590q-27 0 -37.5 -20t-10.5 -71q0 -55 10 -75t37 -20q29 0 39 20t10 75q0 51 -10.5 71t-37.5 20z" />
    <glyph glyph-name="nine" unicode="9" horiz-adv-x="407" 
d="M50 147h102q0 -33 5 -46q9 -25 42 -25q35 0 47 32t12 127q-44 -30 -85 -30q-35 0 -63 16.5t-42 44.5q-24 49 -24 157q0 139 32 192q17 29 52 45.5t78 16.5q115 0 143 -98q11 -35 11 -167q0 -204 -10 -289q-16 -133 -154 -133q-77 0 -111.5 37.5t-34.5 119.5zM206 590
q-39 0 -50 -31q-10 -29 -10 -117t8 -116q11 -34 46 -34q32 0 47 28q10 21 10 125q0 85 -4 106q-9 39 -47 39z" />
    <glyph glyph-name="colon" unicode=":" horiz-adv-x="181" 
d="M42 122h97v-122h-97v122zM42 473h97v-122h-97v122z" />
    <glyph glyph-name="semicolon" unicode=";" horiz-adv-x="181" 
d="M42 124h97v-124l-97 -118v68l40 50h-40v124zM42 473h97v-124h-97v124z" />
    <glyph glyph-name="less" unicode="&#x3c;" horiz-adv-x="500" 
d="M466 585v-90l-337 -157l337 -158v-89l-433 208v77z" />
    <glyph glyph-name="equal" unicode="=" horiz-adv-x="407" 
d="M366 462v-83h-325v83h325zM366 301v-83h-325v83h325z" />
    <glyph glyph-name="greater" unicode="&#x3e;" horiz-adv-x="500" 
d="M34 91v89l337 158l-337 157v89l433 -208v-77z" />
    <glyph glyph-name="question" unicode="?" horiz-adv-x="376" 
d="M99 119h102v-119h-102v119zM201 145h-102q2 67 22.5 118t77.5 127q50 69 50 120q0 37 -16 58.5t-43 21.5q-29 0 -42 -24t-13 -79l-1 -18h-102q-1 109 37 158.5t124 49.5q76 0 117 -41.5t41 -118.5q0 -67 -35 -134q-9 -19 -60 -92q-31 -45 -42.5 -75t-12.5 -71z" />
    <glyph glyph-name="at" unicode="@" horiz-adv-x="599" 
d="M448 502l-46 -216q-6 -31 -6 -49q0 -23 10.5 -37t29.5 -14q33 0 58.5 58.5t25.5 134.5q0 109 -57.5 178.5t-147.5 69.5q-98 0 -165.5 -85.5t-67.5 -209.5q0 -121 64 -206q63 -86 174 -86q83 0 163 55l14 -45q-85 -62 -179 -62q-126 0 -208.5 98t-82.5 247q0 146 83 246
t204 100q111 0 184.5 -84.5t73.5 -212.5q0 -115 -57 -192q-32 -42 -80 -42q-53 0 -96 47q-49 -45 -97 -45q-78 0 -78 87q0 33 12 92.5t28 106.5q27 76 93 76q51 0 65 -50l9 40h77zM317 442q-29 0 -44 -49q-29 -99 -29 -145q0 -38 27 -38q25 0 40 35q10 24 22 80.5t12 81.5
q0 16 -7.5 25.5t-20.5 9.5z" />
    <glyph glyph-name="A" unicode="A" horiz-adv-x="383" 
d="M244 175h-104l-24 -175h-107l110 667h146l110 -667h-107zM231 265l-39 278l-39 -278h78z" />
    <glyph glyph-name="B" unicode="B" horiz-adv-x="394" 
d="M50 0v667h119q60 0 87 -6t48 -23q48 -42 48 -150q0 -61 -18 -93.5t-60 -47.5q53 -17 71.5 -49.5t18.5 -108.5q0 -131 -68 -170q-21 -12 -46.5 -15.5t-96.5 -3.5h-103zM152 388h26q46 0 59.5 18t13.5 79q0 55 -14 73.5t-55 18.5h-30v-189zM152 90h28q48 0 65 21.5t17 82.5
q0 65 -17 88t-66 23h-27v-215z" />
    <glyph glyph-name="C" unicode="C" horiz-adv-x="382" 
d="M356 450h-102q0 85 -8 110q-4 13 -16.5 21.5t-29.5 8.5q-44 0 -53 -52q-3 -24 -3 -142q0 -212 2 -252q2 -67 54 -67q46 0 52 52q2 11 3 108h102q-1 -80 -3 -103.5t-10 -50.5q-12 -43 -50.5 -68t-93.5 -25q-95 0 -134 66q-15 26 -19.5 80.5t-4.5 210.5q0 147 6 198t27 79
q40 53 125 53q55 0 93.5 -25t50.5 -69q11 -39 12 -133z" />
    <glyph glyph-name="D" unicode="D" horiz-adv-x="408" 
d="M50 667h118q68 0 101.5 -10t55.5 -38q23 -29 31.5 -88t8.5 -197q0 -149 -9.5 -208t-38.5 -88q-22 -22 -54.5 -30t-94.5 -8h-118v667zM152 577v-487h21q52 0 67 15q20 21 22 120q1 32 1 103q0 178 -10 212q-8 30 -36 35q-11 2 -38 2h-27z" />
    <glyph glyph-name="E" unicode="E" horiz-adv-x="359" 
d="M327 667v-90h-175v-185h161v-90h-161v-212h175v-90h-277v667h277z" />
    <glyph glyph-name="F" unicode="F" horiz-adv-x="336" 
d="M327 667v-90h-175v-185h161v-90h-161v-302h-102v667h277z" />
    <glyph glyph-name="G" unicode="G" horiz-adv-x="402" 
d="M357 450h-102q0 75 -4 95q-9 45 -51 45q-30 0 -46 -27q-9 -19 -9 -94v-47l-1 -88v-76q0 -110 6 -136q10 -45 49 -45q38 0 50 39q6 18 6 81v70h-64v90h166v-357h-102v33q-39 -43 -90 -43q-104 0 -116 138q-7 74 -7 258q0 114 5.5 158t23.5 72q38 61 128 61q56 0 95 -25
t51 -69q10 -35 12 -133z" />
    <glyph glyph-name="H" unicode="H" horiz-adv-x="413" 
d="M152 667v-271h109v271h102v-667h-102v306h-109v-306h-102v667h102z" />
    <glyph glyph-name="I" unicode="I" horiz-adv-x="202" 
d="M152 667v-667h-102v667h102z" />
    <glyph glyph-name="J" unicode="J" horiz-adv-x="376" 
d="M227 667h102v-445q-1 -99 -4 -123.5t-19 -46.5q-43 -62 -135 -62q-102 0 -142 72q-11 21 -14 48.5t-3 111.5v11h102v-13q0 -86 4 -101q12 -42 53 -42q44 0 53 47q3 14 3 96v447z" />
    <glyph glyph-name="K" unicode="K" horiz-adv-x="402" 
d="M152 667v-291l125 291h112l-131 -282l142 -385h-111l-92 272l-45 -100v-172h-102v667h102z" />
    <glyph glyph-name="L" unicode="L" horiz-adv-x="339" 
d="M152 667v-577h175v-90h-277v667h102z" />
    <glyph glyph-name="M" unicode="M" horiz-adv-x="559" 
d="M50 0v667h176l55 -360l50 360h178v-667h-102v566l-94 -566h-61l-100 566v-566h-102z" />
    <glyph glyph-name="N" unicode="N" horiz-adv-x="437" 
d="M50 0v667h111l124 -440v440h102v-667h-115l-120 403v-403h-102z" />
    <glyph glyph-name="O" unicode="O" horiz-adv-x="400" 
d="M202 677q98 0 134 -72q14 -27 18 -78.5t4 -192.5q0 -157 -5.5 -207.5t-25.5 -78.5q-38 -58 -127 -58q-99 0 -136 72q-14 27 -18 79.5t-4 197.5q0 152 5.5 202.5t24.5 78.5q40 57 130 57zM200 590q-45 0 -53 -52q-3 -29 -3 -206q0 -185 4 -210q9 -45 51 -45q47 0 54 52
q3 25 3 187q0 202 -4 229q-9 45 -52 45z" />
    <glyph glyph-name="P" unicode="P" horiz-adv-x="377" 
d="M152 0h-102v667h134q57 0 82 -6.5t46 -26.5q46 -46 46 -149q0 -99 -38 -143t-124 -44h-44v-298zM152 387h32q45 0 58.5 17.5t13.5 78.5q0 59 -13 76.5t-57 17.5h-34v-190z" />
    <glyph glyph-name="Q" unicode="Q" horiz-adv-x="400" 
d="M303 -36v-83h-86q-39 0 -51.5 14.5t-12.5 58.5v41q-63 16 -89 67q-14 26 -18 78t-4 193q0 157 5.5 207.5t25.5 78.5q38 58 127 58q99 0 136 -72q14 -27 18 -79t4 -193q0 -157 -5.5 -207t-25.5 -79q-28 -41 -82 -53v-14q0 -11 4.5 -13.5t21.5 -2.5h32zM200 590
q-45 0 -53 -52q-3 -29 -3 -206q0 -186 4 -211q9 -45 51 -45q47 0 54 52q3 25 3 188q0 202 -4 229q-9 45 -52 45z" />
    <glyph glyph-name="R" unicode="R" horiz-adv-x="395" 
d="M50 0v667h132q78 0 110 -16q64 -31 64 -154q0 -59 -14 -91t-48 -49q34 -16 48 -37.5t14 -58.5v-198q0 -42 12 -63h-108q-6 29 -6 53v139q0 70 -15 91.5t-62 21.5h-25v-305h-102zM152 388h25q46 0 61.5 19.5t15.5 76.5q0 59 -15 76t-67 17h-20v-189z" />
    <glyph glyph-name="S" unicode="S" horiz-adv-x="371" 
d="M28 231h102q1 -81 5 -104q11 -50 52 -50q25 0 40 19.5t15 50.5q0 38 -19 69.5t-72 83.5q-67 66 -89 100q-31 50 -31 114q0 76 42.5 119.5t116.5 43.5q46 0 81 -17.5t50 -48.5q11 -23 13.5 -49t3.5 -110h-102q0 89 -6 105q-11 33 -45 33q-24 0 -39 -19t-15 -49
q0 -33 18 -61.5t74 -83.5q71 -71 97 -117.5t26 -104.5q0 -79 -41 -122t-117 -43q-120 0 -149 98q-11 41 -11 143z" />
    <glyph glyph-name="T" unicode="T" horiz-adv-x="353" 
d="M227 577v-577h-102v577h-113v90h329v-90h-114z" />
    <glyph glyph-name="U" unicode="U" horiz-adv-x="410" 
d="M262 667h102v-445q0 -94 -3.5 -121t-18.5 -49q-43 -62 -137 -62q-48 0 -85.5 19t-56.5 53q-11 20 -13.5 46.5t-2.5 113.5v445h102v-447q0 -87 4 -102q11 -41 53 -41q45 0 53 47q3 14 3 96v447z" />
    <glyph glyph-name="V" unicode="V" horiz-adv-x="338" 
d="M101 0l-92 667h107l54 -510l53 510h106l-89 -667h-139z" />
    <glyph glyph-name="W" unicode="W" horiz-adv-x="530" 
d="M12 667h110l42 -467l65 467h74l65 -467l41 467h109l-90 -667h-110l-52 330l-55 -330h-107z" />
    <glyph glyph-name="X" unicode="X" horiz-adv-x="357" 
d="M177 471l55 196h110l-109 -312l126 -355h-110l-71 239l-69 -239h-110l124 355l-111 312h110z" />
    <glyph glyph-name="Y" unicode="Y" horiz-adv-x="334" 
d="M120 0v266l-118 401h111l57 -245l52 245h109l-109 -401v-266h-102z" />
    <glyph glyph-name="Z" unicode="Z" horiz-adv-x="353" 
d="M324 667v-102l-194 -475h194v-90h-295v102l194 475h-184v90h285z" />
    <glyph glyph-name="bracketleft" unicode="[" horiz-adv-x="233" 
d="M146 576v-565h49v-91h-146v747h146v-91h-49z" />
    <glyph glyph-name="backslash" unicode="\" horiz-adv-x="292" 
d="M99 667l191 -747h-77l-191 747h77z" />
    <glyph glyph-name="bracketright" unicode="]" horiz-adv-x="233" 
d="M88 11v566h-49v90h146v-747h-146v91h49z" />
    <glyph glyph-name="asciicircum" unicode="^" horiz-adv-x="500" 
d="M115 356h-96l172 313h118l172 -313h-96l-135 242z" />
    <glyph glyph-name="underscore" unicode="_" horiz-adv-x="500" 
d="M0 -59h500v-82h-500v82z" />
    <glyph glyph-name="grave" unicode="`" horiz-adv-x="500" 
d="M248 678l46 -118h-67l-92 118h113z" />
    <glyph glyph-name="a" unicode="a" 
d="M291 0h-93v37q-21 -25 -39 -34.5t-43 -9.5q-35 0 -56 23q-27 30 -27 114t16.5 111.5t91.5 68.5q34 19 45.5 33.5t11.5 39.5q0 47 -37 47q-20 0 -29 -15t-9 -51v-24h-90q1 90 23 123q29 47 106 47q90 0 116 -52q13 -26 13 -96v-362zM198 158v95q-41 -18 -56.5 -41.5
t-15.5 -69.5q0 -40 6 -54.5t23 -14.5q25 0 38 32q5 14 5 53z" />
    <glyph glyph-name="b" unicode="b" horiz-adv-x="337" 
d="M42 0v667h93v-201q23 26 39 35t39 9q54 0 75 -51q8 -20 10 -50.5t2 -148.5q0 -132 -2 -163.5t-10 -52.5q-10 -23 -31 -37t-48 -14q-23 0 -39 9.5t-35 34.5v-37h-93zM135 325v-133q0 -56 5 -75q8 -44 39 -44q23 0 26 38q2 24 2 131q0 145 -4 162q-6 26 -28 26
q-18 0 -29 -22q-11 -18 -11 -83z" />
    <glyph glyph-name="c" unicode="c" horiz-adv-x="323" 
d="M296 327h-94v45q0 34 -7.5 46t-28.5 12t-28.5 -12t-7.5 -46v-241q0 -34 7.5 -46t28.5 -12t28.5 12t7.5 46v82h94v-19q0 -100 -15 -134q-30 -67 -116 -67q-89 0 -115 72q-13 33 -13 163q0 122 2.5 159t13.5 60q28 63 112 63q53 0 86 -26.5t40 -75.5q5 -40 5 -81z" />
    <glyph glyph-name="d" unicode="d" horiz-adv-x="337" 
d="M296 667v-667h-93v37q-23 -26 -38.5 -35t-38.5 -9q-79 0 -86 104q-2 26 -2 232q0 99 11 127q9 24 31 39t48 15q42 0 75 -44v201h93zM203 178v133q0 56 -4 77q-7 42 -36 42q-28 0 -30 -35q-2 -14 -2 -155q0 -122 7 -144q6 -23 24 -23t31 22q10 19 10 83z" />
    <glyph glyph-name="e" unicode="e" 
d="M295 234h-165v-102q0 -34 7.5 -46.5t28.5 -12.5t28.5 12.5t7.5 46.5v55h93q0 -93 -15 -126q-28 -68 -115 -68t-113 68q-15 36 -15 184q0 107 2.5 141t12.5 57q27 67 113 67q47 0 79 -22t42 -61q7 -30 8 -54t1 -139zM202 307v65q0 34 -7.5 46t-28.5 12t-28.5 -12.5
t-7.5 -45.5v-65h72z" />
    <glyph glyph-name="f" unicode="f" horiz-adv-x="189" 
d="M138 420v-420h-93v420h-34v83h34v91q0 46 18 63.5t65 17.5q1 0 43 -2v-79q-23 0 -28 -8t-5 -42v-41h33v-83h-33z" />
    <glyph glyph-name="g" unicode="g" horiz-adv-x="337" 
d="M296 503v-490q0 -64 -14 -88q-28 -48 -113 -48q-70 0 -101 27t-30 86h93q0 -18 8 -25.5t27 -7.5q24 0 30.5 9t6.5 41v46q-22 -22 -37.5 -29.5t-38.5 -7.5q-57 0 -79 54q-7 18 -8.5 49t-1.5 151q0 111 2 141.5t11 49.5q23 49 78 49q42 0 74 -44v37h93zM203 201v110
q0 60 -4 79q-9 40 -36 40q-30 0 -31 -52l-1 -149q0 -84 5.5 -108.5t24.5 -24.5q20 0 32 21q10 15 10 84z" />
    <glyph glyph-name="h" unicode="h" horiz-adv-x="341" 
d="M135 0h-93v667h93v-201q37 44 85 44q57 0 74 -51q7 -25 7 -89v-370h-93v327q0 63 -2 73q-6 30 -29 30q-27 0 -37 -38q-5 -15 -5 -71v-321z" />
    <glyph glyph-name="i" unicode="i" horiz-adv-x="177" 
d="M135 503v-503h-93v503h93zM135 667v-109h-93v109h93z" />
    <glyph glyph-name="j" unicode="j" horiz-adv-x="177" 
d="M135 503v-545q0 -46 -18 -63.5t-65 -17.5q-3 0 -37 2v79q18 0 22.5 8.5t4.5 40.5v496h93zM135 667v-110h-93v110h93z" />
    <glyph glyph-name="k" unicode="k" 
d="M135 667v-375l86 211h100l-100 -226l100 -277h-100l-86 260v-260h-93v667h93z" />
    <glyph glyph-name="l" unicode="l" horiz-adv-x="177" 
d="M135 667v-667h-93v667h93z" />
    <glyph glyph-name="m" unicode="m" horiz-adv-x="507" 
d="M135 0h-93v503h93v-40q23 26 42 36.5t47 10.5q56 0 73 -47q22 27 41.5 37t48.5 10q59 0 73 -46q7 -21 7 -70v-394h-93v336v16v29q0 49 -30 49q-22 0 -32 -25q-11 -23 -11 -99v-306h-93v336v16v29q0 49 -30 49q-22 0 -32 -25q-11 -23 -11 -99v-306z" />
    <glyph glyph-name="n" unicode="n" horiz-adv-x="341" 
d="M135 0h-93v503h93v-37q37 44 85 44q56 0 73 -51q8 -23 8 -89v-370h-93v327q0 63 -2 73q-6 30 -29 30q-27 0 -37 -38q-5 -16 -5 -71v-321z" />
    <glyph glyph-name="o" unicode="o" 
d="M163 510q59 0 89.5 -29.5t37.5 -93.5q4 -35 3.5 -145.5t-5.5 -140.5q-16 -108 -125 -108q-59 0 -89 29.5t-37 93.5q-4 36 -3.5 145.5t5.5 140.5q15 108 124 108zM127 371v-239q0 -34 7.5 -46.5t28.5 -12.5q22 0 29.5 12t7.5 47v239q0 34 -7.5 46.5t-28.5 12.5
q-22 0 -29.5 -12t-7.5 -47z" />
    <glyph glyph-name="p" unicode="p" horiz-adv-x="337" 
d="M42 -123v626h93v-37q23 26 38.5 35t38.5 9q31 0 53.5 -19t28.5 -51q6 -35 6 -260q0 -105 -11 -133q-9 -25 -30.5 -39.5t-49.5 -14.5q-23 0 -39 9.5t-35 34.5v-160h-93zM135 325v-133q0 -56 5 -75q8 -44 39 -44q15 0 21 14.5t6 52.5v34q1 33 1 71q0 118 -5.5 151.5
t-25.5 33.5q-17 0 -31 -22q-10 -19 -10 -83z" />
    <glyph glyph-name="q" unicode="q" horiz-adv-x="337" 
d="M296 503v-626h-93v160q-23 -26 -38.5 -35t-38.5 -9q-31 0 -53.5 19t-28.5 51q-6 35 -6 260q0 105 11 133q9 25 30.5 39.5t49.5 14.5q23 0 39 -9.5t35 -34.5v37h93zM203 178v133q0 56 -5 75q-8 44 -39 44q-15 0 -21 -14.5t-6 -52.5v-34q-1 -33 -1 -71q0 -118 5.5 -151.5
t25.5 -33.5q17 0 31 22q10 19 10 83z" />
    <glyph glyph-name="r" unicode="r" horiz-adv-x="268" 
d="M42 503h93v-60q22 39 44 53t61 14h16v-102q-53 0 -68 -2.5t-28 -13.5q-15 -13 -20 -34.5t-5 -74.5v-283h-93v503z" />
    <glyph glyph-name="s" unicode="s" horiz-adv-x="303" 
d="M278 342h-93q-1 47 -5 60q-8 28 -33 28q-15 0 -24 -10t-9 -27q0 -19 13 -37t57 -59q59 -55 80 -91t21 -81q0 -63 -35.5 -97.5t-99.5 -34.5q-105 0 -122 88q-6 28 -6 106h93q0 -63 2 -75q6 -39 38 -39q16 0 26.5 13.5t10.5 33.5q0 25 -14.5 46t-68.5 74q-55 54 -71.5 82.5
t-16.5 68.5q0 56 35 87.5t96 31.5q65 0 96 -32.5t31 -101.5q0 -20 -1 -34z" />
    <glyph glyph-name="t" unicode="t" horiz-adv-x="191" 
d="M137 636v-133h34v-83h-34v-282q0 -37 5 -46t25 -9h4v-83h-73q-31 0 -42.5 15t-11.5 56v349h-34v83h34v133h93z" />
    <glyph glyph-name="u" unicode="u" horiz-adv-x="341" 
d="M208 503h93v-503h-93v37q-37 -44 -85 -44q-57 0 -74 51q-7 25 -7 89v370h93v-327q0 -63 2 -73q6 -30 29 -30q28 0 37 38q5 15 5 71v321z" />
    <glyph glyph-name="v" unicode="v" horiz-adv-x="295" 
d="M92 0l-85 503h101l42 -384l35 384h102l-79 -503h-116z" />
    <glyph glyph-name="w" unicode="w" horiz-adv-x="439" 
d="M249 503l54 -365l30 365h98l-75 -503h-107l-30 259l-30 -259h-107l-75 503h98l31 -365l53 365h60z" />
    <glyph glyph-name="x" unicode="x" horiz-adv-x="315" 
d="M164 360l42 143h106l-105 -231l111 -272h-107l-51 186l-56 -186h-107l110 272l-104 231h106z" />
    <glyph glyph-name="y" unicode="y" horiz-adv-x="303" 
d="M48 -123v84h25q31 0 31 19q0 3 -2 11t-2 9l-93 503h105l39 -336l39 336h105l-105 -555q-9 -45 -23.5 -58t-54.5 -13h-64z" />
    <glyph glyph-name="z" unicode="z" horiz-adv-x="292" 
d="M271 503v-93l-163 -327h169v-83h-262v92l163 328h-153v83h246z" />
    <glyph glyph-name="braceleft" unicode="{" horiz-adv-x="253" 
d="M144 523v-123q0 -44 -13 -66.5t-48 -40.5q34 -18 47.5 -41.5t13.5 -67.5v-119q0 -43 12 -59t45 -16h13v-70h-24q-73 0 -107.5 32t-34.5 99v129q0 38 -11 56.5t-37 25.5v67q26 7 37 24.5t11 51.5v137q0 67 33.5 96t111.5 29h21v-71h-17q-31 0 -42 -15t-11 -58z" />
    <glyph glyph-name="bar" unicode="|" horiz-adv-x="500" 
d="M205 667h90v-834h-90v834z" />
    <glyph glyph-name="braceright" unicode="}" horiz-adv-x="253" 
d="M109 64v123q0 44 13 66.5t48 40.5q-34 17 -47.5 40.5t-13.5 67.5v119q0 43 -12.5 59t-44.5 16h-13v71h24q73 0 107.5 -32t34.5 -100v-129q0 -38 11 -56.5t37 -25.5v-66q-26 -7 -37 -25t-11 -52v-136q0 -67 -33.5 -96t-111.5 -29h-21v71h17q31 0 42 15t11 58z" />
    <glyph glyph-name="asciitilde" unicode="~" horiz-adv-x="667" 
d="M144 576l-52 34q23 48 37 66q41 56 104 56q36 0 110 -32q67 -30 94 -30t44.5 13.5t40.5 50.5l53 -31q-30 -61 -61 -87q-42 -32 -89 -32q-32 0 -141 46q-33 15 -58 15t-43.5 -15.5t-38.5 -53.5z" />
    <glyph glyph-name="exclamdown" unicode="&#xa1;" horiz-adv-x="213" 
d="M157 472h-102v115h102v-115zM80 450h52l25 -156v-374h-102v374z" />
    <glyph glyph-name="cent" unicode="&#xa2;" horiz-adv-x="407" 
d="M180 585v86h47v-85q62 -8 86 -43t24 -115v-22h-93v24q0 45 -7 58q-9 19 -31 19q-9 0 -14.5 -2.5t-10.5 -10.5t-7.5 -20t-4 -35t-2 -51t-0.5 -73q0 -109 3 -131q5 -34 35 -34q33 0 38 45l1 83h93l1 -54q0 -76 -25 -110.5t-86 -42.5v-83h-47v83q-53 6 -80 41
q-20 29 -25 71.5t-5 193.5q0 97 10 129q22 68 100 79z" />
    <glyph glyph-name="sterling" unicode="&#xa3;" horiz-adv-x="407" 
d="M69 0l-36 87q57 28 78 54.5t21 71.5q0 46 -25 107h-64v58h40q-36 75 -36 138q0 76 43.5 118.5t121.5 42.5q82 0 121 -44q35 -38 35 -123v-51h-102v29q0 59 -12 80.5t-45 21.5q-27 0 -43 -17t-16 -46q0 -26 6.5 -50t29.5 -80q3 -9 7 -19h96v-58h-72q18 -57 18 -91
q0 -37 -14.5 -64.5t-51.5 -62.5q19 4 30 4q15 0 30 -9q23 -11 30 -11q18 0 46 45l69 -57q-52 -84 -111 -84q-22 0 -54 16q-41 21 -62 21q-31 0 -78 -27z" />
    <glyph glyph-name="currency" unicode="&#xa4;" horiz-adv-x="667" 
d="M45 100l96 98q-48 66 -48 140q0 73 49 140l-99 98l50 50l98 -97q69 49 143 49t141 -49l97 97l50 -50l-97 -97q50 -69 50 -141t-48 -140l97 -97l-49 -50l-98 97q-68 -49 -142 -49q-72 0 -144 48l-97 -96zM336 497q-67 0 -113.5 -46t-46.5 -113q0 -65 46.5 -111.5
t111.5 -46.5t111.5 46.5t46.5 111.5t-46 112t-110 47z" />
    <glyph glyph-name="yen" unicode="&#xa5;" horiz-adv-x="433" 
d="M171 232h-91v55h79l-14 65h-65v55h53l-58 260h88l57 -320l52 320h87l-53 -260h48v-55h-59l-13 -65h72v-55h-84l-1 -7v-225h-96v225z" />
    <glyph glyph-name="brokenbar" unicode="&#xa6;" horiz-adv-x="500" 
d="M205 667h90v-337h-90v337zM205 153h90v-320h-90v320z" />
    <glyph glyph-name="section" unicode="&#xa7;" horiz-adv-x="455" 
d="M380 484h-101v21q0 44 -12.5 63.5t-41.5 19.5q-20 0 -32 -12.5t-12 -34.5q0 -29 31 -53q29 -21 124 -84q72 -50 72 -115q0 -59 -64 -130q24 -29 33 -52t9 -54q0 -66 -43 -104.5t-116 -38.5q-77 0 -114 40t-37 123v29h102v-26q0 -44 8 -58q13 -22 43 -22q25 0 40 15t15 40
q0 31 -23 51q-12 10 -74 50q-71 46 -96 66q-51 42 -51 96q0 64 75 139q-36 47 -36 88q0 58 41.5 93.5t109.5 35.5q87 0 123 -50q27 -36 27 -132v-4zM240 358l-65 44q-40 -37 -40 -71q0 -19 18 -38.5t62 -47.5l61 -40q39 31 39 66q0 37 -75 87z" />
    <glyph glyph-name="dieresis" unicode="&#xa8;" horiz-adv-x="500" 
d="M141 673h89v-109h-89v109zM271 673h89v-109h-89v109z" />
    <glyph glyph-name="copyright" unicode="&#xa9;" horiz-adv-x="598" 
d="M392 399h-65q0 51 -5 65t-23 14q-21 0 -26 -27q-2 -16 -2 -80v-34q1 -38 1 -76q0 -41 4 -50q5 -15 23 -15q22 0 27 27q0 5 1 63h65q-1 -66 -7 -90q-8 -26 -30.5 -40.5t-55.5 -14.5q-56 0 -79 39q-9 15 -11.5 45t-2.5 118q0 84 3.5 113t15.5 46q24 31 74 31q32 0 55.5 -15
t30.5 -40q6 -22 7 -79zM299 680q143 0 210 -93q56 -77 56 -248q0 -176 -56 -259q-65 -93 -214 -93q-67 0 -122 25t-84 68q-56 83 -56 257q0 172 56 250q31 44 86.5 68.5t123.5 24.5zM299 626q-118 0 -162 -75q-41 -73 -41 -223t48 -221t151 -71q109 0 158 69.5t49 224.5
q0 150 -41 221q-45 75 -162 75z" />
    <glyph glyph-name="ordfeminine" unicode="&#xaa;" horiz-adv-x="233" 
d="M194 267h-63v16q-21 -20 -45 -20q-28 0 -40.5 20t-12.5 64q0 50 10 66.5t57 42.5q19 10 25 17.5t6 21.5q0 25 -18 25q-19 0 -19 -36v-17h-61q1 57 15 78q18 29 66 29q55 0 72 -33q8 -16 8 -58v-216zM131 363v51q-22 -12 -28.5 -23.5t-6.5 -37.5q0 -36 13 -36q22 0 22 46z
" />
    <glyph glyph-name="guillemotleft" unicode="&#xab;" horiz-adv-x="370" 
d="M115 444h75l-83 -161l83 -161h-75l-83 161zM253 444h73l-80 -161l80 -161h-73l-81 161z" />
    <glyph glyph-name="logicalnot" unicode="&#xac;" horiz-adv-x="500" 
d="M376 0v183h-343v84h433v-267h-90z" />
    <glyph glyph-name="registered" unicode="&#xae;" horiz-adv-x="598" 
d="M204 147v380h78q59 0 80.5 -20.5t21.5 -77.5q0 -32 -6 -48t-25 -31q31 -16 31 -53v-111q0 -24 10 -39h-71q-4 20 -4 33v78q0 38 -7 49t-32 11h-11v-171h-65zM269 371h10q24 0 32 10t8 40q0 31 -7.5 40t-34.5 9h-8v-99zM299 680q143 0 210 -93q56 -77 56 -248
q0 -176 -56 -259q-65 -93 -214 -93q-67 0 -122 25t-84 68q-56 83 -56 257q0 172 56 250q31 44 86.5 68.5t123.5 24.5zM299 626q-118 0 -162 -75q-41 -73 -41 -223t48 -221t151 -71q109 0 158 69.5t49 224.5q0 150 -41 221q-45 75 -162 75z" />
    <glyph glyph-name="macron" unicode="&#xaf;" horiz-adv-x="500" 
d="M148 649h204v-64h-204v64z" />
    <glyph glyph-name="macron" unicode="&#x2c9;" horiz-adv-x="500" 
d="M148 649h204v-64h-204v64z" />
    <glyph glyph-name="degree" unicode="&#xb0;" horiz-adv-x="413" 
d="M207 674q58 0 99 -41.5t41 -100.5q0 -56 -41.5 -97t-98.5 -41q-58 0 -99 41t-41 99t41 99t99 41zM207 617q-35 0 -59 -24.5t-24 -58.5t24.5 -58.5t58.5 -24.5t58.5 24.5t24.5 57.5q0 35 -24 59.5t-59 24.5z" />
    <glyph glyph-name="plusminus" unicode="&#xb1;" horiz-adv-x="407" 
d="M245 365v-134h-83v134h-121v83h121v135h83v-135h121v-83h-121zM366 175v-83h-325v83h325z" />
    <glyph glyph-name="twosuperior" unicode="&#xb2;" horiz-adv-x="264" 
d="M223 326v-60h-188q-1 64 18 115t63 102q32 37 41.5 54t9.5 39q0 39 -29 39q-30 0 -30 -62v-12h-69v17q0 60 24.5 87.5t77.5 27.5q46 0 70.5 -25t24.5 -72q0 -37 -13.5 -63.5t-57.5 -78.5q-56 -65 -57 -108h115z" />
    <glyph glyph-name="threesuperior" unicode="&#xb3;" horiz-adv-x="264" 
d="M32 406h69v-40q0 -26 7 -37t23 -11q19 0 26 11.5t7 40.5q0 52 -7 65q-10 16 -44 16q-9 0 -18 -1v57q40 0 51.5 9.5t11.5 43.5q0 31 -6.5 43t-22.5 12q-22 0 -25 -23q-2 -10 -3 -47h-69q2 62 10 79q19 49 86 49q99 0 99 -111q0 -32 -7.5 -49.5t-26.5 -30.5q22 -10 31 -29
t9 -57q0 -57 -8 -81q-7 -25 -32.5 -40t-61.5 -15q-54 0 -80 29q-19 22 -19 76v41z" />
    <glyph glyph-name="acute" unicode="&#xb4;" horiz-adv-x="500" 
d="M251 678h114l-92 -118h-67z" />
    <glyph glyph-name="mu" unicode="&#xb5;" horiz-adv-x="407" 
d="M167 -80h-93v583h93v-327q0 -63 2 -73q6 -30 29 -30q28 0 37 38q5 15 5 71v321h93v-503h-93v30q-30 -30 -55 -30q-8 0 -18 7v-87z" />
    <glyph glyph-name="mu" unicode="&#x3bc;" horiz-adv-x="407" 
d="M167 -80h-93v583h93v-327q0 -63 2 -73q6 -30 29 -30q28 0 37 38q5 15 5 71v321h93v-503h-93v30q-30 -30 -55 -30q-8 0 -18 7v-87z" />
    <glyph glyph-name="paragraph" unicode="&#xb6;" horiz-adv-x="407" 
d="M145 -80v399h-8q-45 0 -74 47.5t-29 122.5q0 105 47 149q29 29 85 29h177v-747h-74v659h-50v-659h-74z" />
    <glyph glyph-name="periodcentered" unicode="&#xb7;" horiz-adv-x="181" 
d="M42 321h97v-122h-97v122z" />
    <glyph glyph-name="periodcentered" unicode="&#x2219;" horiz-adv-x="181" 
d="M42 321h97v-122h-97v122z" />
    <glyph glyph-name="cedilla" unicode="&#xb8;" horiz-adv-x="500" 
d="M240 0h39l-31 -51q16 4 24 4q28 0 46.5 -17t18.5 -43q0 -32 -26 -52.5t-68 -20.5q-31 0 -71 15l11 29q30 -10 52 -10q41 0 41 35q0 13 -10.5 22t-25.5 9q-16 0 -30 -6l-12 14z" />
    <glyph glyph-name="onesuperior" unicode="&#xb9;" horiz-adv-x="264" 
d="M176 667v-400h-69v322h-38v52q40 2 43 26h64z" />
    <glyph glyph-name="ordmasculine" unicode="&#xba;" horiz-adv-x="233" 
d="M114 574q70 0 79 -75q3 -21 2.5 -87t-3.5 -84q-10 -66 -78 -66q-70 0 -79 75q-3 22 -2.5 87.5t3.5 83.5q10 66 78 66zM96 489v-142q0 -18 4 -24.5t14 -6.5q11 0 14.5 6t3.5 25v142q0 18 -4 24.5t-14 6.5t-14 -6.5t-4 -24.5z" />
    <glyph glyph-name="guillemotright" unicode="&#xbb;" horiz-adv-x="370" 
d="M255 444l82 -161l-82 -161h-76l83 161l-83 161h76zM116 444l82 -161l-82 -161h-73l80 161l-80 161h73z" />
    <glyph glyph-name="onequarter" unicode="&#xbc;" horiz-adv-x="638" 
d="M176 667v-400h-69v322h-38v52q40 2 43 26h64zM514 667l-337 -667h-60l337 667h60zM579 400v-250h31v-60h-31v-90h-69v90h-106v53l100 257h75zM510 150v134l-47 -134h47z" />
    <glyph glyph-name="onehalf" unicode="&#xbd;" horiz-adv-x="638" 
d="M176 667v-400h-69v322h-38v52q40 2 43 26h64zM514 667l-337 -667h-60l337 667h60zM597 60v-60h-188q-1 65 18 115t63 101q32 37 41.5 54t9.5 39q0 39 -29 39q-30 0 -30 -62v-12h-69v17q0 60 24.5 87.5t77.5 27.5q46 0 70.5 -25t24.5 -71q0 -37 -13.5 -64t-57.5 -79
q-56 -65 -57 -107h115z" />
    <glyph glyph-name="threequarters" unicode="&#xbe;" horiz-adv-x="638" 
d="M32 406h69v-40q0 -26 7 -37t23 -11q19 0 26 11.5t7 40.5q0 52 -7 65q-10 16 -44 16q-9 0 -18 -1v57q40 0 51.5 9.5t11.5 43.5q0 31 -6.5 43t-22.5 12q-22 0 -25 -23q-2 -10 -3 -47h-69q2 62 10 79q19 49 86 49q99 0 99 -111q0 -32 -7.5 -49.5t-26.5 -30.5q22 -10 31 -29
t9 -57q0 -57 -8 -81q-7 -25 -32.5 -40t-61.5 -15q-54 0 -80 29q-19 22 -19 76v41zM514 667l-337 -667h-60l337 667h60zM579 400v-250h31v-60h-31v-90h-69v90h-105v53l99 257h75zM510 150v134l-47 -134h47z" />
    <glyph glyph-name="questiondown" unicode="&#xbf;" horiz-adv-x="376" 
d="M276 468h-102v119h102v-119zM174 442h103q-1 -67 -22 -117.5t-78 -128.5q-50 -68 -50 -119q0 -37 16 -58.5t43 -21.5q29 0 42 24t13 78v18h103q0 -109 -38.5 -158t-123.5 -49q-75 0 -116 41.5t-41 117.5q0 67 35 134q10 21 60 92q32 46 43 76.5t11 70.5z" />
    <glyph glyph-name="Agrave" unicode="&#xc0;" horiz-adv-x="383" 
d="M244 175h-104l-24 -175h-107l110 667h146l110 -667h-107zM231 265l-39 278l-39 -278h78zM196 849l44 -115h-70l-93 115h119z" />
    <glyph glyph-name="Aacute" unicode="&#xc1;" horiz-adv-x="383" 
d="M244 175h-104l-24 -175h-107l110 667h146l110 -667h-107zM231 265l-39 278l-39 -278h78zM188 849h119l-93 -115h-70z" />
    <glyph glyph-name="Acircumflex" unicode="&#xc2;" horiz-adv-x="383" 
d="M244 175h-104l-24 -175h-107l110 667h146l110 -667h-107zM231 265l-39 278l-39 -278h78zM150 849h83l71 -114h-82l-31 59l-30 -59h-82z" />
    <glyph glyph-name="Atilde" unicode="&#xc3;" horiz-adv-x="383" 
d="M244 175h-104l-24 -175h-107l110 667h146l110 -667h-107zM231 265l-39 278l-39 -278h78zM130 743h-67q4 34 11 52q9 20 27.5 32.5t39.5 12.5q15 0 24 -3t43 -20q10 -5 18 -5q18 0 27 30h67q-4 -45 -24.5 -71.5t-51.5 -26.5q-22 0 -73 24q-12 5 -20 5q-18 0 -21 -30z" />
    <glyph glyph-name="Adieresis" unicode="&#xc4;" horiz-adv-x="383" 
d="M244 175h-104l-24 -175h-107l110 667h146l110 -667h-107zM231 265l-39 278l-39 -278h78zM79 847h89v-109h-89v109zM215 847h89v-109h-89v109z" />
    <glyph glyph-name="Aring" unicode="&#xc5;" horiz-adv-x="383" 
d="M244 175h-104l-24 -175h-107l110 667h146l110 -667h-107zM231 265l-39 278l-39 -278h78zM193 870q33 0 56.5 -24t23.5 -58t-24 -57.5t-58 -23.5q-33 0 -57 24t-24 57q0 34 24 58t59 24zM192 820q-14 0 -23 -9t-9 -23q0 -13 9 -22t22 -9t22.5 9.5t9.5 22.5q0 12 -9 21.5
t-22 9.5z" />
    <glyph glyph-name="AE" unicode="&#xc6;" horiz-adv-x="573" 
d="M265 176h-126l-42 -176h-102l170 667h376v-90h-174v-185h161v-90h-161v-212h174v-90h-276v176zM265 266v311h-31l-73 -311h104z" />
    <glyph glyph-name="Ccedilla" unicode="&#xc7;" horiz-adv-x="382" 
d="M207 -9l-27 -44q18 3 25 3q29 0 49 -18t20 -45q0 -34 -27.5 -55t-71.5 -21q-33 0 -75 16l11 31q27 -11 55 -11q21 0 33.5 10t12.5 26q0 14 -12 23.5t-29 9.5t-31 -6l-13 15l41 67q-42 10 -65 24.5t-37 39.5q-15 26 -19.5 81t-4.5 210q0 147 6 198t27 79q40 53 125 53
q55 0 93.5 -25t50.5 -69q11 -39 12 -133h-102q0 85 -8 110q-4 13 -16.5 21.5t-29.5 8.5q-44 0 -53 -52q-3 -24 -3 -142q0 -212 2 -252q2 -67 54 -67q46 0 52 52q2 11 3 108h102q-1 -95 -7 -129.5t-25 -63.5q-17 -24 -49 -38.5t-69 -14.5z" />
    <glyph glyph-name="Egrave" unicode="&#xc8;" horiz-adv-x="359" 
d="M327 667v-90h-175v-185h161v-90h-161v-212h175v-90h-277v667h277zM193 849l44 -115h-70l-93 115h119z" />
    <glyph glyph-name="Eacute" unicode="&#xc9;" horiz-adv-x="359" 
d="M327 667v-90h-175v-185h161v-90h-161v-212h175v-90h-277v667h277zM185 849h119l-93 -115h-70z" />
    <glyph glyph-name="Ecircumflex" unicode="&#xca;" horiz-adv-x="359" 
d="M327 667v-90h-175v-185h161v-90h-161v-212h175v-90h-277v667h277zM147 849h83l71 -114h-82l-31 59l-30 -59h-82z" />
    <glyph glyph-name="Edieresis" unicode="&#xcb;" horiz-adv-x="359" 
d="M327 667v-90h-175v-185h161v-90h-161v-212h175v-90h-277v667h277zM76 847h89v-109h-89v109zM212 847h89v-109h-89v109z" />
    <glyph glyph-name="Igrave" unicode="&#xcc;" horiz-adv-x="202" 
d="M153 667v-667h-102v667h102zM106 849l44 -115h-70l-93 115h119z" />
    <glyph glyph-name="Iacute" unicode="&#xcd;" horiz-adv-x="202" 
d="M152 667v-667h-102v667h102zM97 849h119l-93 -115h-70z" />
    <glyph glyph-name="Icircumflex" unicode="&#xce;" horiz-adv-x="202" 
d="M152 667v-667h-102v667h102zM60 849h83l71 -114h-82l-31 59l-30 -59h-82z" />
    <glyph glyph-name="Idieresis" unicode="&#xcf;" horiz-adv-x="202" 
d="M153 667v-667h-102v667h102zM9 847h73v-109h-73v109zM121 847h73v-109h-73v109z" />
    <glyph glyph-name="Eth" unicode="&#xd0;" horiz-adv-x="408" 
d="M50 314h-43v73h43v280h118q56 0 81 -4t48 -18q43 -26 56 -84.5t13 -226.5q0 -124 -5 -177t-21 -87q-22 -47 -80 -63q-25 -7 -92 -7h-118v314zM152 314v-224q48 1 63.5 4t25.5 13q14 13 18.5 57t4.5 170q0 130 -4.5 173t-20.5 56q-11 9 -26.5 11.5t-60.5 2.5v-190h57v-73
h-57z" />
    <glyph glyph-name="Ntilde" unicode="&#xd1;" horiz-adv-x="437" 
d="M50 0v667h111l124 -440v440h102v-667h-115l-120 403v-403h-102zM164 743h-67q4 34 11 52q9 20 27.5 32.5t39.5 12.5q15 0 24 -3t43 -20q10 -5 18 -5q18 0 27 30h67q-4 -45 -24.5 -71.5t-51.5 -26.5q-22 0 -73 24q-12 5 -20 5q-18 0 -21 -30z" />
    <glyph glyph-name="Ograve" unicode="&#xd2;" horiz-adv-x="400" 
d="M202 677q98 0 134 -72q14 -27 18 -78.5t4 -192.5q0 -157 -5.5 -207.5t-25.5 -78.5q-38 -58 -127 -58q-99 0 -136 72q-14 27 -18 79.5t-4 197.5q0 152 5.5 202.5t24.5 78.5q40 57 130 57zM200 590q-45 0 -53 -52q-3 -29 -3 -206q0 -185 4 -210q9 -45 51 -45q47 0 54 52
q3 25 3 187q0 202 -4 229q-9 45 -52 45zM204 849l44 -115h-70l-93 115h119z" />
    <glyph glyph-name="Oacute" unicode="&#xd3;" horiz-adv-x="400" 
d="M202 677q98 0 134 -72q14 -27 18 -78.5t4 -192.5q0 -157 -5.5 -207.5t-25.5 -78.5q-38 -58 -127 -58q-99 0 -136 72q-14 27 -18 79.5t-4 197.5q0 152 5.5 202.5t24.5 78.5q40 57 130 57zM200 590q-45 0 -53 -52q-3 -29 -3 -206q0 -185 4 -210q9 -45 51 -45q47 0 54 52
q3 25 3 187q0 202 -4 229q-9 45 -52 45zM196 849h119l-93 -115h-70z" />
    <glyph glyph-name="Ocircumflex" unicode="&#xd4;" horiz-adv-x="400" 
d="M202 677q98 0 134 -72q14 -27 18 -78.5t4 -192.5q0 -157 -5.5 -207.5t-25.5 -78.5q-38 -58 -127 -58q-99 0 -136 72q-14 27 -18 79.5t-4 197.5q0 152 5.5 202.5t24.5 78.5q40 57 130 57zM200 590q-45 0 -53 -52q-3 -29 -3 -206q0 -185 4 -210q9 -45 51 -45q47 0 54 52
q3 25 3 187q0 202 -4 229q-9 45 -52 45zM158 849h83l71 -114h-82l-31 59l-30 -59h-82z" />
    <glyph glyph-name="Otilde" unicode="&#xd5;" horiz-adv-x="400" 
d="M202 677q98 0 134 -72q14 -27 18 -78.5t4 -192.5q0 -157 -5.5 -207.5t-25.5 -78.5q-38 -58 -127 -58q-99 0 -136 72q-14 27 -18 79.5t-4 197.5q0 152 5.5 202.5t24.5 78.5q40 57 130 57zM200 590q-45 0 -53 -52q-3 -29 -3 -206q0 -185 4 -210q9 -45 51 -45q47 0 54 52
q3 25 3 187q0 202 -4 229q-9 45 -52 45zM145 743h-67q4 34 11 52q9 20 27.5 32.5t39.5 12.5q15 0 24 -3t43 -20q10 -5 18 -5q18 0 27 30h67q-4 -45 -24.5 -71.5t-51.5 -26.5q-22 0 -73 24q-12 5 -20 5q-18 0 -21 -30z" />
    <glyph glyph-name="Odieresis" unicode="&#xd6;" horiz-adv-x="400" 
d="M202 677q98 0 134 -72q14 -27 18 -78.5t4 -192.5q0 -157 -5.5 -207.5t-25.5 -78.5q-38 -58 -127 -58q-99 0 -136 72q-14 27 -18 79.5t-4 197.5q0 152 5.5 202.5t24.5 78.5q40 57 130 57zM200 590q-45 0 -53 -52q-3 -29 -3 -206q0 -185 4 -210q9 -45 51 -45q47 0 54 52
q3 25 3 187q0 202 -4 229q-9 45 -52 45zM87 847h89v-109h-89v109zM223 847h89v-109h-89v109z" />
    <glyph glyph-name="multiply" unicode="&#xd7;" horiz-adv-x="407" 
d="M203 399l109 109l59 -59l-109 -109l109 -109l-59 -59l-109 109l-109 -109l-59 59l109 109l-109 109l59 59z" />
    <glyph glyph-name="Oslash" unicode="&#xd8;" horiz-adv-x="400" 
d="M349 699l43 -20l-47 -98q12 -52 12 -234q0 -166 -5 -218t-25 -81q-40 -58 -128 -58q-73 0 -117 45l-33 -67l-42 20l47 98q-13 51 -13 233q0 168 5.5 219.5t25.5 80.5q38 58 127 58q74 0 118 -45zM254 516l-1 9q-3 35 -15.5 50t-38.5 15q-45 0 -53 -52q-3 -26 -3 -163
q0 -43 1 -117zM145 151l1 -7q4 -37 13 -49q15 -18 41 -18q44 0 52 52q3 24 3 163v60q0 12 -1 57z" />
    <glyph glyph-name="Ugrave" unicode="&#xd9;" horiz-adv-x="410" 
d="M262 667h102v-445q0 -94 -3.5 -121t-18.5 -49q-43 -62 -137 -62q-48 0 -85.5 19t-56.5 53q-11 20 -13.5 46.5t-2.5 113.5v445h102v-447q0 -87 4 -102q11 -41 53 -41q45 0 53 47q3 14 3 96v447zM210 849l44 -115h-70l-93 115h119z" />
    <glyph glyph-name="Uacute" unicode="&#xda;" horiz-adv-x="410" 
d="M262 667h102v-445q0 -94 -3.5 -121t-18.5 -49q-43 -62 -137 -62q-48 0 -85.5 19t-56.5 53q-11 20 -13.5 46.5t-2.5 113.5v445h102v-447q0 -87 4 -102q11 -41 53 -41q45 0 53 47q3 14 3 96v447zM201 849h119l-93 -115h-70z" />
    <glyph glyph-name="Ucircumflex" unicode="&#xdb;" horiz-adv-x="410" 
d="M262 667h102v-445q0 -94 -3.5 -121t-18.5 -49q-43 -62 -137 -62q-48 0 -85.5 19t-56.5 53q-11 20 -13.5 46.5t-2.5 113.5v445h102v-447q0 -87 4 -102q11 -41 53 -41q45 0 53 47q3 14 3 96v447zM164 849h83l71 -114h-82l-31 59l-30 -59h-82z" />
    <glyph glyph-name="Udieresis" unicode="&#xdc;" horiz-adv-x="410" 
d="M262 667h102v-445q0 -94 -3.5 -121t-18.5 -49q-43 -62 -137 -62q-48 0 -85.5 19t-56.5 53q-11 20 -13.5 46.5t-2.5 113.5v445h102v-447q0 -87 4 -102q11 -41 53 -41q45 0 53 47q3 14 3 96v447zM93 847h89v-109h-89v109zM229 847h89v-109h-89v109z" />
    <glyph glyph-name="Yacute" unicode="&#xdd;" horiz-adv-x="334" 
d="M120 0v266l-118 401h111l57 -245l52 245h109l-109 -401v-266h-102zM166 849h119l-93 -115h-70z" />
    <glyph glyph-name="Thorn" unicode="&#xde;" horiz-adv-x="377" 
d="M152 0h-102v667h102v-107h29q55 0 82.5 -7t47.5 -26q47 -44 47 -148q0 -109 -47 -153q-22 -20 -50.5 -27t-87.5 -7h-21v-192zM152 281h32q44 0 58 17.5t14 75.5q0 60 -13 78t-57 18h-34v-189z" />
    <glyph glyph-name="germandbls" unicode="&#xdf;" horiz-adv-x="336" 
d="M135 0h-93v511q0 57 2.5 76.5t10.5 35.5q28 51 113 51q132 0 132 -146q0 -71 -42 -93q29 -17 36 -50t7 -157q0 -78 -4 -119t-19 -67.5t-39 -34t-68 -7.5h-13v80q13 1 20 2.5t13.5 8.5t9 15.5t4.5 29.5t2.5 43.5t0.5 64.5q0 90 -9.5 119.5t-40.5 33.5v76q26 1 37 15t11 45
q0 61 -38 61q-20 0 -26.5 -11t-6.5 -45v-538z" />
    <glyph glyph-name="agrave" unicode="&#xe0;" 
d="M291 0h-93v37q-21 -25 -39 -34.5t-43 -9.5q-35 0 -56 23q-27 30 -27 114t16.5 111.5t91.5 68.5q34 19 45.5 33.5t11.5 39.5q0 47 -37 47q-20 0 -29 -15t-9 -51v-24h-90q1 90 23 123q29 47 106 47q90 0 116 -52q13 -26 13 -96v-362zM198 158v95q-41 -18 -56.5 -41.5
t-15.5 -69.5q0 -40 6 -54.5t23 -14.5q25 0 38 32q5 14 5 53zM162 678l46 -118h-67l-92 118h113z" />
    <glyph glyph-name="aacute" unicode="&#xe1;" 
d="M291 0h-93v37q-21 -25 -39 -34.5t-43 -9.5q-35 0 -56 23q-27 30 -27 114t16.5 111.5t91.5 68.5q34 19 45.5 33.5t11.5 39.5q0 47 -37 47q-20 0 -29 -15t-9 -51v-24h-90q1 90 23 123q29 47 106 47q90 0 116 -52q13 -26 13 -96v-362zM198 158v95q-41 -18 -56.5 -41.5
t-15.5 -69.5q0 -40 6 -54.5t23 -14.5q25 0 38 32q5 14 5 53zM167 678h114l-92 -118h-67z" />
    <glyph glyph-name="acircumflex" unicode="&#xe2;" 
d="M291 0h-93v37q-21 -25 -39 -34.5t-43 -9.5q-35 0 -56 23q-27 30 -27 114t16.5 111.5t91.5 68.5q34 19 45.5 33.5t11.5 39.5q0 47 -37 47q-20 0 -29 -15t-9 -51v-24h-90q1 90 23 123q29 47 106 47q90 0 116 -52q13 -26 13 -96v-362zM198 158v95q-41 -18 -56.5 -41.5
t-15.5 -69.5q0 -40 6 -54.5t23 -14.5q25 0 38 32q5 14 5 53zM126 678h81l70 -118h-79l-31 63l-32 -63h-78z" />
    <glyph glyph-name="atilde" unicode="&#xe3;" 
d="M291 0h-93v37q-21 -25 -39 -34.5t-43 -9.5q-35 0 -56 23q-27 30 -27 114t16.5 111.5t91.5 68.5q34 19 45.5 33.5t11.5 39.5q0 47 -37 47q-20 0 -29 -15t-9 -51v-24h-90q1 90 23 123q29 47 106 47q90 0 116 -52q13 -26 13 -96v-362zM198 158v95q-41 -18 -56.5 -41.5
t-15.5 -69.5q0 -40 6 -54.5t23 -14.5q25 0 38 32q5 14 5 53zM109 570h-64q2 42 23 68.5t52 26.5q17 0 63 -22q10 -5 17 -5q17 0 24 29h64q-1 -40 -22 -68t-50 -28q-22 0 -69 23q-12 5 -19 5q-14 0 -19 -29z" />
    <glyph glyph-name="adieresis" unicode="&#xe4;" 
d="M291 0h-93v37q-21 -25 -39 -34.5t-43 -9.5q-35 0 -56 23q-27 30 -27 114t16.5 111.5t91.5 68.5q34 19 45.5 33.5t11.5 39.5q0 47 -37 47q-20 0 -29 -15t-9 -51v-24h-90q1 90 23 123q29 47 106 47q90 0 116 -52q13 -26 13 -96v-362zM198 158v95q-41 -18 -56.5 -41.5
t-15.5 -69.5q0 -40 6 -54.5t23 -14.5q25 0 38 32q5 14 5 53zM57 673h89v-109h-89v109zM187 673h89v-109h-89v109z" />
    <glyph glyph-name="aring" unicode="&#xe5;" 
d="M291 0h-93v37q-21 -25 -39 -34.5t-43 -9.5q-35 0 -56 23q-27 30 -27 114t16.5 111.5t91.5 68.5q34 19 45.5 33.5t11.5 39.5q0 47 -37 47q-20 0 -29 -15t-9 -51v-24h-90q1 90 23 123q29 47 106 47q90 0 116 -52q13 -26 13 -96v-362zM198 158v95q-41 -18 -56.5 -41.5
t-15.5 -69.5q0 -40 6 -54.5t23 -14.5q25 0 38 32q5 14 5 53zM168 710q33 0 56.5 -24t23.5 -58t-24 -57.5t-58 -23.5q-33 0 -57 24t-24 57q0 34 24 58t59 24zM167 660q-13 0 -22.5 -9t-9.5 -23q0 -13 9 -22t22 -9q14 0 23 9.5t9 22.5q0 12 -9 21.5t-22 9.5z" />
    <glyph glyph-name="ae" unicode="&#xe6;" horiz-adv-x="492" 
d="M456 234h-166v-102q0 -34 7.5 -46.5t28.5 -12.5q22 0 29.5 12t7.5 47v55h93q0 -93 -14 -126q-29 -68 -116 -68q-59 0 -94 36q-51 -36 -110 -36q-58 0 -78 45q-12 27 -12 107q0 69 19 100q10 15 26.5 27.5t63.5 38.5q33 18 44.5 32.5t11.5 39.5q0 47 -37 47t-37 -60v-30
h-90q1 57 5 80.5t17 42.5q33 47 106 47q53 0 87 -21q32 21 78 21q53 0 85.5 -26.5t39.5 -75.5q5 -33 5 -174zM197 158v96q-40 -18 -55.5 -42t-15.5 -67q0 -42 6 -57t23 -15q26 0 37 32q5 14 5 53zM363 307v65q0 34 -7.5 46t-29.5 12q-21 0 -28.5 -12t-7.5 -46v-65h73z" />
    <glyph glyph-name="ccedilla" unicode="&#xe7;" horiz-adv-x="323" 
d="M177 -7l-27 -44q18 3 23 3q28 0 47 -17.5t19 -42.5q0 -32 -26 -52.5t-68 -20.5q-35 0 -71 16l11 29q28 -11 51 -11q19 0 30 9.5t11 25.5q0 13 -10.5 22.5t-25.5 9.5t-29 -6l-12 14l39 67q-35 9 -49.5 17.5t-26.5 26.5q-17 25 -21.5 59.5t-4.5 129.5q0 122 2.5 159
t13.5 60q28 63 112 63q53 0 86 -26.5t40 -75.5q5 -40 5 -81h-94v45q0 34 -7.5 46t-28.5 12t-28.5 -12t-7.5 -46v-241q0 -34 7.5 -46t28.5 -12t28.5 12t7.5 46v82h94v-19q0 -68 -5.5 -100.5t-21.5 -54.5q-29 -39 -92 -46z" />
    <glyph glyph-name="egrave" unicode="&#xe8;" 
d="M295 234h-165v-102q0 -34 7.5 -46.5t28.5 -12.5t28.5 12.5t7.5 46.5v55h93q0 -93 -15 -126q-28 -68 -115 -68t-113 68q-15 36 -15 184q0 107 2.5 141t12.5 57q27 67 113 67q47 0 79 -22t42 -61q7 -30 8 -54t1 -139zM202 307v65q0 34 -7.5 46t-28.5 12t-28.5 -12.5
t-7.5 -45.5v-65h72zM167 678l46 -118h-67l-92 118h113z" />
    <glyph glyph-name="eacute" unicode="&#xe9;" 
d="M295 234h-165v-102q0 -34 7.5 -46.5t28.5 -12.5t28.5 12.5t7.5 46.5v55h93q0 -93 -15 -126q-28 -68 -115 -68t-113 68q-15 36 -15 184q0 107 2.5 141t12.5 57q27 67 113 67q47 0 79 -22t42 -61q7 -30 8 -54t1 -139zM202 307v65q0 34 -7.5 46t-28.5 12t-28.5 -12.5
t-7.5 -45.5v-65h72zM165 678h114l-92 -118h-67z" />
    <glyph glyph-name="ecircumflex" unicode="&#xea;" 
d="M295 234h-165v-102q0 -34 7.5 -46.5t28.5 -12.5t28.5 12.5t7.5 46.5v55h93q0 -93 -15 -126q-28 -68 -115 -68t-113 68q-15 36 -15 184q0 107 2.5 141t12.5 57q27 67 113 67q47 0 79 -22t42 -61q7 -30 8 -54t1 -139zM202 307v65q0 34 -7.5 46t-28.5 12t-28.5 -12.5
t-7.5 -45.5v-65h72zM129 678h81l70 -118h-79l-31 63l-32 -63h-78z" />
    <glyph glyph-name="edieresis" unicode="&#xeb;" 
d="M295 234h-165v-102q0 -34 7.5 -46.5t28.5 -12.5t28.5 12.5t7.5 46.5v55h93q0 -93 -15 -126q-28 -68 -115 -68t-113 68q-15 36 -15 184q0 107 2.5 141t12.5 57q27 67 113 67q47 0 79 -22t42 -61q7 -30 8 -54t1 -139zM202 307v65q0 34 -7.5 46t-28.5 12t-28.5 -12.5
t-7.5 -45.5v-65h72zM60 673h89v-109h-89v109zM190 673h89v-109h-89v109z" />
    <glyph glyph-name="igrave" unicode="&#xec;" horiz-adv-x="177" 
d="M135 503v-503h-93v503h93zM90 678l39 -118h-67l-82 118h110z" />
    <glyph glyph-name="iacute" unicode="&#xed;" horiz-adv-x="177" 
d="M135 503v-503h-93v503h93zM87 678h110l-82 -118h-67z" />
    <glyph glyph-name="icircumflex" unicode="&#xee;" horiz-adv-x="177" 
d="M135 503v-503h-93v503h93zM48 678h81l70 -118h-79l-31 63l-32 -63h-78z" />
    <glyph glyph-name="idieresis" unicode="&#xef;" horiz-adv-x="177" 
d="M135 503v-503h-93v503h93zM-2 668h72v-104h-72v104zM107 668h72v-104h-72v104z" />
    <glyph glyph-name="eth" unicode="&#xf0;" 
d="M79 559l-25 42l59 35l-19 39l49 32q3 -5 25 -38l66 40l25 -42l-65 -39q49 -84 74 -147q18 -45 23 -87t5 -142v-90q0 -89 -31 -129t-99 -40q-62 0 -92.5 32.5t-35.5 105.5q-3 46 -1 211q1 90 30.5 128.5t99.5 39.5q-8 27 -33 82zM130 372v-240q0 -34 7.5 -46.5t28.5 -12.5
q22 0 29.5 12t7.5 47v240q0 34 -7.5 46t-28.5 12q-22 0 -29.5 -12t-7.5 -46z" />
    <glyph glyph-name="ntilde" unicode="&#xf1;" horiz-adv-x="341" 
d="M135 0h-93v503h93v-37q37 44 85 44q56 0 73 -51q8 -23 8 -89v-370h-93v327q0 63 -2 73q-6 30 -29 30q-27 0 -37 -38q-5 -16 -5 -71v-321zM110 570h-64q2 42 23 68.5t52 26.5q17 0 63 -22q10 -5 17 -5q17 0 24 29h64q-1 -40 -22 -68t-50 -28q-22 0 -69 23q-12 5 -19 5
q-14 0 -19 -29z" />
    <glyph glyph-name="ograve" unicode="&#xf2;" 
d="M163 510q59 0 89.5 -29.5t37.5 -93.5q4 -35 3.5 -145.5t-5.5 -140.5q-16 -108 -125 -108q-59 0 -89 29.5t-37 93.5q-4 36 -3.5 145.5t5.5 140.5q15 108 124 108zM127 371v-239q0 -34 7.5 -46.5t28.5 -12.5q22 0 29.5 12t7.5 47v239q0 34 -7.5 46.5t-28.5 12.5
q-22 0 -29.5 -12t-7.5 -47zM161 678l46 -118h-67l-92 118h113z" />
    <glyph glyph-name="oacute" unicode="&#xf3;" 
d="M163 510q59 0 89.5 -29.5t37.5 -93.5q4 -35 3.5 -145.5t-5.5 -140.5q-16 -108 -125 -108q-59 0 -89 29.5t-37 93.5q-4 36 -3.5 145.5t5.5 140.5q15 108 124 108zM127 371v-239q0 -34 7.5 -46.5t28.5 -12.5q22 0 29.5 12t7.5 47v239q0 34 -7.5 46.5t-28.5 12.5
q-22 0 -29.5 -12t-7.5 -47zM159 678h114l-92 -118h-67z" />
    <glyph glyph-name="ocircumflex" unicode="&#xf4;" 
d="M163 510q59 0 89.5 -29.5t37.5 -93.5q4 -35 3.5 -145.5t-5.5 -140.5q-16 -108 -125 -108q-59 0 -89 29.5t-37 93.5q-4 36 -3.5 145.5t5.5 140.5q15 108 124 108zM127 371v-239q0 -34 7.5 -46.5t28.5 -12.5q22 0 29.5 12t7.5 47v239q0 34 -7.5 46.5t-28.5 12.5
q-22 0 -29.5 -12t-7.5 -47zM120 678h81l70 -118h-79l-31 63l-32 -63h-78z" />
    <glyph glyph-name="otilde" unicode="&#xf5;" 
d="M163 510q59 0 89.5 -29.5t37.5 -93.5q4 -35 3.5 -145.5t-5.5 -140.5q-16 -108 -125 -108q-59 0 -89 29.5t-37 93.5q-4 36 -3.5 145.5t5.5 140.5q15 108 124 108zM127 371v-239q0 -34 7.5 -46.5t28.5 -12.5q22 0 29.5 12t7.5 47v239q0 34 -7.5 46.5t-28.5 12.5
q-22 0 -29.5 -12t-7.5 -47zM106 570h-64q2 42 23 68.5t52 26.5q17 0 63 -22q10 -5 17 -5q17 0 24 29h64q-1 -40 -22 -68t-50 -28q-22 0 -69 23q-12 5 -19 5q-14 0 -19 -29z" />
    <glyph glyph-name="odieresis" unicode="&#xf6;" 
d="M163 510q59 0 89.5 -29.5t37.5 -93.5q4 -35 3.5 -145.5t-5.5 -140.5q-16 -108 -125 -108q-59 0 -89 29.5t-37 93.5q-4 36 -3.5 145.5t5.5 140.5q15 108 124 108zM127 371v-239q0 -34 7.5 -46.5t28.5 -12.5q22 0 29.5 12t7.5 47v239q0 34 -7.5 46.5t-28.5 12.5
q-22 0 -29.5 -12t-7.5 -47zM51 673h89v-109h-89v109zM181 673h89v-109h-89v109z" />
    <glyph glyph-name="divide" unicode="&#xf7;" horiz-adv-x="407" 
d="M366 382v-83h-325v83h325zM204 530q21 0 35.5 -14.5t14.5 -35.5t-15 -35.5t-36 -14.5q-20 0 -34.5 15t-14.5 35t15 35t35 15zM204 250q21 0 35.5 -14.5t14.5 -35.5t-15 -35.5t-36 -14.5q-20 0 -34.5 15t-14.5 35t15 35t35 15z" />
    <glyph glyph-name="oslash" unicode="&#xf8;" 
d="M51 -45l-39 18l40 86q-12 33 -14 53.5t-2 103.5q0 139 1 156q5 72 35.5 105t91.5 33q54 0 87 -26l27 58l41 -19l-38 -82q10 -32 12 -52t2 -102q0 -139 -1 -156q-5 -73 -35.5 -105.5t-92.5 -32.5q-52 0 -85 26zM202 289l-73 -183q2 -33 37 -33q21 0 28.5 12.5t7.5 46.5
v157zM129 210l73 185q-7 35 -36 35q-22 0 -29.5 -12t-7.5 -47v-161z" />
    <glyph glyph-name="ugrave" unicode="&#xf9;" horiz-adv-x="341" 
d="M208 503h93v-503h-93v37q-37 -44 -85 -44q-57 0 -74 51q-7 25 -7 89v370h93v-327q0 -63 2 -73q6 -30 29 -30q28 0 37 38q5 15 5 71v321zM172 678l46 -118h-67l-92 118h113z" />
    <glyph glyph-name="uacute" unicode="&#xfa;" horiz-adv-x="341" 
d="M208 503h93v-503h-93v37q-37 -44 -85 -44q-57 0 -74 51q-7 25 -7 89v370h93v-327q0 -63 2 -73q6 -30 29 -30q28 0 37 38q5 15 5 71v321zM170 678h114l-92 -118h-67z" />
    <glyph glyph-name="ucircumflex" unicode="&#xfb;" horiz-adv-x="341" 
d="M208 503h93v-503h-93v37q-37 -44 -85 -44q-57 0 -74 51q-7 25 -7 89v370h93v-327q0 -63 2 -73q6 -30 29 -30q28 0 37 38q5 15 5 71v321zM131 678h81l70 -118h-79l-31 63l-32 -63h-78z" />
    <glyph glyph-name="udieresis" unicode="&#xfc;" horiz-adv-x="341" 
d="M208 503h93v-503h-93v37q-37 -44 -85 -44q-57 0 -74 51q-7 25 -7 89v370h93v-327q0 -63 2 -73q6 -30 29 -30q28 0 37 38q5 15 5 71v321zM61 673h89v-109h-89v109zM191 673h89v-109h-89v109z" />
    <glyph glyph-name="yacute" unicode="&#xfd;" horiz-adv-x="303" 
d="M152 678h114l-93 -118h-66zM48 -39h25q31 0 31 19q0 3 -2 11t-2 9l-93 503h105l39 -336l39 336h105l-105 -555q-9 -45 -23.5 -58t-54.5 -13h-64v84z" />
    <glyph glyph-name="thorn" unicode="&#xfe;" horiz-adv-x="337" 
d="M42 -123v790h93v-201q23 26 38.5 35t38.5 9q31 0 53.5 -19t28.5 -51q6 -35 6 -260q0 -105 -11 -133q-9 -25 -30.5 -39.5t-49.5 -14.5q-23 0 -39 9.5t-35 34.5v-160h-93zM135 325v-133q0 -56 5 -75q8 -44 39 -44q15 0 21 14.5t6 52.5v34q1 33 1 71q0 118 -5.5 151.5
t-25.5 33.5q-17 0 -31 -22q-10 -19 -10 -83z" />
    <glyph glyph-name="ydieresis" unicode="&#xff;" horiz-adv-x="303" 
d="M42 673h89v-109h-89v109zM171 673h89v-109h-89v109zM48 -39h25q31 0 31 19q0 3 -2 11t-2 9l-93 503h105l39 -336l39 336h105l-105 -555q-9 -45 -23.5 -58t-54.5 -13h-64v84z" />
    <glyph glyph-name="Amacron" unicode="&#x100;" horiz-adv-x="383" 
d="M244 175h-104l-24 -175h-107l110 667h146l110 -667h-107zM231 265l-39 278l-39 -278h78zM81 825h221v-66h-221v66z" />
    <glyph glyph-name="amacron" unicode="&#x101;" 
d="M291 0h-93v37q-21 -25 -39 -34.5t-43 -9.5q-35 0 -56 23q-27 30 -27 114t16.5 111.5t91.5 68.5q34 19 45.5 33.5t11.5 39.5q0 47 -37 47q-20 0 -29 -15t-9 -51v-24h-90q1 90 23 123q29 47 106 47q90 0 116 -52q13 -26 13 -96v-362zM198 158v95q-41 -18 -56.5 -41.5
t-15.5 -69.5q0 -40 6 -54.5t23 -14.5q25 0 38 32q5 14 5 53zM65 649h204v-64h-204v64z" />
    <glyph glyph-name="Abreve" unicode="&#x102;" horiz-adv-x="383" 
d="M244 175h-104l-24 -175h-107l110 667h146l110 -667h-107zM231 265l-39 278l-39 -278h78zM249 848h63q-7 -52 -40 -82.5t-80 -30.5q-50 0 -84.5 32t-36.5 81h63q13 -46 57 -46q45 0 58 46z" />
    <glyph glyph-name="abreve" unicode="&#x103;" 
d="M291 0h-93v37q-21 -25 -39 -34.5t-43 -9.5q-35 0 -56 23q-27 30 -27 114t16.5 111.5t91.5 68.5q34 19 45.5 33.5t11.5 39.5q0 47 -37 47q-20 0 -29 -15t-9 -51v-24h-90q1 90 23 123q29 47 106 47q90 0 116 -52q13 -26 13 -96v-362zM198 158v95q-41 -18 -56.5 -41.5
t-15.5 -69.5q0 -40 6 -54.5t23 -14.5q25 0 38 32q5 14 5 53zM221 675h63q-6 -40 -16 -58q-14 -25 -41.5 -40t-59.5 -15q-31 0 -59 15t-43 40q-12 21 -15 58h63q9 -27 20.5 -37.5t33.5 -10.5q43 0 54 48z" />
    <glyph glyph-name="Aogonek" unicode="&#x104;" horiz-adv-x="383" 
d="M268 0l-24 175h-104l-24 -175h-107l110 667h146l110 -667q-49 -40 -49 -76q0 -37 48 -37q16 0 30 6l-8 -57q-21 -7 -39 -7q-41 0 -66 20t-25 53q0 48 57 98h-55zM231 265l-39 278l-39 -278h78z" />
    <glyph glyph-name="aogonek" unicode="&#x105;" 
d="M307 -107l-8 -57q-17 -6 -35 -6q-37 0 -61 20.5t-24 51.5q0 51 61 98h-42v37q-21 -25 -39 -34.5t-43 -9.5q-35 0 -56 23q-27 30 -27 114t16.5 111.5t91.5 68.5q34 19 45.5 33.5t11.5 39.5q0 47 -37 47q-20 0 -29 -15t-9 -51v-24h-90q1 90 23 123q29 47 106 47
q90 0 116 -52q13 -26 13 -96v-362q-52 -34 -52 -75q0 -16 11.5 -26.5t30.5 -10.5q11 0 26 5zM198 158v95q-41 -18 -56.5 -41.5t-15.5 -69.5q0 -40 6 -54.5t23 -14.5q25 0 38 32q5 14 5 53z" />
    <glyph glyph-name="Cacute" unicode="&#x106;" horiz-adv-x="382" 
d="M356 450h-102q0 85 -8 110q-4 13 -16.5 21.5t-29.5 8.5q-44 0 -53 -52q-3 -24 -3 -142q0 -212 2 -252q2 -67 54 -67q46 0 52 52q2 11 3 108h102q-1 -80 -3 -103.5t-10 -50.5q-12 -43 -50.5 -68t-93.5 -25q-95 0 -134 66q-15 26 -19.5 80.5t-4.5 210.5q0 147 6 198t27 79
q40 53 125 53q55 0 93.5 -25t50.5 -69q11 -39 12 -133zM197 849h119l-93 -115h-70z" />
    <glyph glyph-name="cacute" unicode="&#x107;" horiz-adv-x="323" 
d="M296 327h-94v45q0 34 -7.5 46t-28.5 12t-28.5 -12t-7.5 -46v-241q0 -34 7.5 -46t28.5 -12t28.5 12t7.5 46v82h94v-19q0 -100 -15 -134q-30 -67 -116 -67q-89 0 -115 72q-13 33 -13 163q0 122 2.5 159t13.5 60q28 63 112 63q53 0 86 -26.5t40 -75.5q5 -40 5 -81zM165 678
h114l-92 -118h-67z" />
    <glyph glyph-name="Ccaron" unicode="&#x10c;" horiz-adv-x="382" 
d="M356 450h-102q0 85 -8 110q-4 13 -16.5 21.5t-29.5 8.5q-44 0 -53 -52q-3 -24 -3 -142q0 -212 2 -252q2 -67 54 -67q46 0 52 52q2 11 3 108h102q-1 -80 -3 -103.5t-10 -50.5q-12 -43 -50.5 -68t-93.5 -25q-95 0 -134 66q-15 26 -19.5 80.5t-4.5 210.5q0 147 6 198t27 79
q40 53 125 53q55 0 93.5 -25t50.5 -69q11 -39 12 -133zM161 735l-71 114h82l30 -59l31 59h82l-71 -114h-83z" />
    <glyph glyph-name="ccaron" unicode="&#x10d;" horiz-adv-x="323" 
d="M296 327h-94v45q0 34 -7.5 46t-28.5 12t-28.5 -12t-7.5 -46v-241q0 -34 7.5 -46t28.5 -12t28.5 12t7.5 46v82h94v-19q0 -100 -15 -134q-30 -67 -116 -67q-89 0 -115 72q-13 33 -13 163q0 122 2.5 159t13.5 60q28 63 112 63q53 0 86 -26.5t40 -75.5q5 -40 5 -81zM126 560
l-69 118h78l32 -63l31 63h79l-70 -118h-81z" />
    <glyph glyph-name="Dcaron" unicode="&#x10e;" horiz-adv-x="408" 
d="M50 667h118q68 0 101.5 -10t55.5 -38q23 -29 31.5 -88t8.5 -197q0 -149 -9.5 -208t-38.5 -88q-22 -22 -54.5 -30t-94.5 -8h-118v667zM152 577v-487h21q52 0 67 15q20 21 22 120q1 32 1 103q0 178 -10 212q-8 30 -36 35q-11 2 -38 2h-27zM151 735l-71 114h82l30 -59l31 59
h82l-71 -114h-83z" />
    <glyph glyph-name="dcaron" unicode="&#x10f;" horiz-adv-x="465" 
d="M295 667v-667h-93v37q-23 -26 -38.5 -35t-38.5 -9q-79 0 -86 104q-2 26 -2 232q0 99 11 127q9 24 31 39t48 15q42 0 75 -44v201h93zM202 178v133q0 56 -4 77q-8 42 -36 42t-30 -35q-2 -14 -2 -155q0 -122 7 -144q6 -23 24 -23t31 22q10 19 10 83zM373 667h93l-85 -158
h-40z" />
    <glyph glyph-name="Dcroat" unicode="&#x110;" horiz-adv-x="408" 
d="M50 314h-43v73h43v280h118q56 0 81 -4t48 -18q43 -26 56 -84.5t13 -226.5q0 -124 -5 -177t-21 -87q-22 -47 -80 -63q-25 -7 -92 -7h-118v314zM152 314v-224q48 1 63.5 4t25.5 13q14 13 18.5 57t4.5 170q0 130 -4.5 173t-20.5 56q-11 9 -26.5 11.5t-60.5 2.5v-190h57v-73
h-57z" />
    <glyph glyph-name="dcroat" unicode="&#x111;" horiz-adv-x="339" 
d="M296 667v-60h40v-60h-40v-547h-93v37q-23 -26 -39 -35t-39 -9q-79 0 -86 104q-2 26 -2 232q0 99 11 127q9 24 31 39t49 15q42 0 75 -44v81h-66v60h66v60h93zM203 178v133q0 57 -4 77q-7 42 -37 42q-28 0 -30 -35q-2 -15 -2 -155q0 -122 7 -144q6 -23 25 -23t30 22
q11 18 11 83z" />
    <glyph glyph-name="Emacron" unicode="&#x112;" horiz-adv-x="359" 
d="M327 667v-90h-175v-185h161v-90h-161v-212h175v-90h-277v667h277zM69 825h221v-66h-221v66z" />
    <glyph glyph-name="emacron" unicode="&#x113;" 
d="M295 234h-165v-102q0 -34 7.5 -46.5t28.5 -12.5t28.5 12.5t7.5 46.5v55h93q0 -93 -15 -126q-28 -68 -115 -68t-113 68q-15 36 -15 184q0 107 2.5 141t12.5 57q27 67 113 67q47 0 79 -22t42 -61q7 -30 8 -54t1 -139zM202 307v65q0 34 -7.5 46t-28.5 12t-28.5 -12.5
t-7.5 -45.5v-65h72zM68 649h204v-64h-204v64z" />
    <glyph glyph-name="Edotaccent" unicode="&#x116;" horiz-adv-x="359" 
d="M327 667v-90h-175v-185h161v-90h-161v-212h175v-90h-277v667h277zM142 847h93v-109h-93v109z" />
    <glyph glyph-name="edotaccent" unicode="&#x117;" 
d="M295 234h-165v-102q0 -34 7.5 -46.5t28.5 -12.5t28.5 12.5t7.5 46.5v55h93q0 -93 -15 -126q-28 -68 -115 -68t-113 68q-15 36 -15 184q0 107 2.5 141t12.5 57q27 67 113 67q47 0 79 -22t42 -61q7 -30 8 -54t1 -139zM202 307v65q0 34 -7.5 46t-28.5 12t-28.5 -12.5
t-7.5 -45.5v-65h72zM125 673h89v-109h-89v109z" />
    <glyph glyph-name="Eogonek" unicode="&#x118;" horiz-adv-x="359" 
d="M357 -107l-8 -57q-21 -7 -40 -7q-41 0 -66 20t-25 53q0 48 57 98h-225v667h277v-90h-175v-185h161v-90h-161v-212h175v-90q-49 -40 -49 -76q0 -37 48 -37q17 0 31 6z" />
    <glyph glyph-name="eogonek" unicode="&#x119;" 
d="M277 -97l-8 -57q-20 -7 -36 -7q-38 0 -61.5 20.5t-23.5 53.5q0 25 11.5 43.5t42.5 41.5q-28 -5 -45 -5q-36 0 -64.5 18.5t-40.5 49.5q-15 37 -15 185q0 105 2.5 139.5t12.5 57.5q27 67 113 67q47 0 79 -22t42 -61q7 -30 8 -54t1 -139h-165v-102q0 -34 7.5 -46.5
t28.5 -12.5t28.5 12.5t7.5 46.5v55h93q0 -79 -10 -113.5t-43 -72.5q-34 -40 -34 -68q0 -15 12 -25.5t30 -10.5q11 0 27 6zM202 307v65q0 34 -7.5 46t-28.5 12t-28.5 -12.5t-7.5 -45.5v-65h72z" />
    <glyph glyph-name="Ecaron" unicode="&#x11a;" horiz-adv-x="359" 
d="M327 667v-90h-175v-185h161v-90h-161v-212h175v-90h-277v667h277zM147 735l-71 114h82l30 -59l31 59h82l-71 -114h-83z" />
    <glyph glyph-name="ecaron" unicode="&#x11b;" 
d="M295 234h-165v-102q0 -34 7.5 -46.5t28.5 -12.5t28.5 12.5t7.5 46.5v55h93q0 -93 -15 -126q-28 -68 -115 -68t-113 68q-15 36 -15 184q0 107 2.5 141t12.5 57q27 67 113 67q47 0 79 -22t42 -61q7 -30 8 -54t1 -139zM202 307v65q0 34 -7.5 46t-28.5 12t-28.5 -12.5
t-7.5 -45.5v-65h72zM129 560l-69 118h78l32 -63l31 63h79l-70 -118h-81z" />
    <glyph glyph-name="Gbreve" unicode="&#x11e;" horiz-adv-x="402" 
d="M357 450h-102q0 75 -4 95q-9 45 -51 45q-30 0 -46 -27q-9 -19 -9 -94v-47l-1 -88v-76q0 -110 6 -136q10 -45 49 -45q38 0 50 39q6 18 6 81v70h-64v90h166v-357h-102v33q-39 -43 -90 -43q-104 0 -116 138q-7 74 -7 258q0 114 5.5 158t23.5 72q38 61 128 61q56 0 95 -25
t51 -69q10 -35 12 -133zM259 848h63q-7 -52 -40 -82.5t-80 -30.5q-50 0 -84.5 32t-36.5 81h63q13 -46 57 -46q45 0 58 46z" />
    <glyph glyph-name="gbreve" unicode="&#x11f;" horiz-adv-x="337" 
d="M296 503v-490q0 -64 -14 -88q-28 -48 -113 -48q-70 0 -101 27t-30 86h93q0 -18 8 -25.5t27 -7.5q24 0 30.5 9t6.5 41v46q-22 -22 -37.5 -29.5t-38.5 -7.5q-57 0 -79 54q-7 18 -8.5 49t-1.5 151q0 111 2 141.5t11 49.5q23 49 78 49q42 0 74 -44v37h93zM203 201v110
q0 60 -4 79q-9 40 -36 40q-30 0 -31 -52l-1 -149q0 -84 5.5 -108.5t24.5 -24.5q20 0 32 21q10 15 10 84zM226 675h63q-6 -40 -16 -58q-14 -25 -41.5 -40t-59.5 -15q-31 0 -59 15t-43 40q-12 21 -15 58h63q9 -27 20.5 -37.5t33.5 -10.5q43 0 54 48z" />
    <glyph glyph-name="Gcommaaccent" unicode="&#x122;" horiz-adv-x="402" 
d="M357 450h-102q0 75 -4 95q-9 45 -51 45q-30 0 -46 -27q-9 -19 -9 -94v-47l-1 -88v-76q0 -110 6 -136q10 -45 49 -45q38 0 50 39q6 18 6 81v70h-64v90h166v-357h-102v33q-39 -43 -90 -43q-104 0 -116 138q-7 74 -7 258q0 114 5.5 158t23.5 72q38 61 128 61q56 0 95 -25
t51 -69q10 -35 12 -133zM164 -67h105l-92 -141h-57z" />
    <glyph glyph-name="gcommaaccent" unicode="&#x123;" horiz-adv-x="337" 
d="M296 503v-490q0 -64 -14 -88q-28 -48 -113 -48q-70 0 -101 27t-30 86h93q0 -18 8 -25.5t27 -7.5q24 0 30.5 9t6.5 41v46q-22 -22 -37.5 -29.5t-38.5 -7.5q-57 0 -79 54q-7 18 -8.5 49t-1.5 151q0 111 2 141.5t11 49.5q23 49 78 49q42 0 74 -44v37h93zM203 201v110
q0 60 -4 79q-9 40 -36 40q-30 0 -31 -52l-1 -149q0 -84 5.5 -108.5t24.5 -24.5q20 0 32 21q10 15 10 84zM202 560h-113l92 118h67z" />
    <glyph glyph-name="Imacron" unicode="&#x12a;" horiz-adv-x="202" 
d="M152 667v-667h-102v667h102zM4 825h194v-66h-194v66z" />
    <glyph glyph-name="imacron" unicode="&#x12b;" horiz-adv-x="177" 
d="M135 503v-503h-93v503h93zM-7 649h191v-64h-191v64z" />
    <glyph glyph-name="Iogonek" unicode="&#x12e;" horiz-adv-x="202" 
d="M183 -107l-8 -57q-21 -7 -40 -7q-41 0 -66 20t-25 53q0 35 23 63q14 16 34 35h-51v667h103v-667q-49 -42 -49 -76q0 -37 48 -37q17 0 31 6z" />
    <glyph glyph-name="iogonek" unicode="&#x12f;" horiz-adv-x="177" 
d="M153 -107l-8 -57q-17 -6 -36 -6q-37 0 -61 20.5t-24 51.5q0 51 61 98h-43v503h93l2 -503q-53 -34 -53 -75q0 -16 12 -26.5t30 -10.5q11 0 27 5zM135 667v-109h-93v109h93z" />
    <glyph glyph-name="Idotaccent" unicode="&#x130;" horiz-adv-x="202" 
d="M152 667v-667h-102v667h102zM55 847h93v-109h-93v109z" />
    <glyph glyph-name="dotlessi" unicode="&#x131;" horiz-adv-x="177" 
d="M135 503v-503h-93v503h93z" />
    <glyph glyph-name="Kcommaaccent" unicode="&#x136;" horiz-adv-x="402" 
d="M152 667v-291l125 291h112l-131 -282l142 -385h-111l-92 272l-45 -100v-172h-102v667h102zM164 -67h105l-92 -141h-57z" />
    <glyph glyph-name="kcommaaccent" unicode="&#x137;" 
d="M135 667v-375l86 211h100l-100 -226l100 -277h-100l-86 260v-260h-93v667h93zM125 -53h94l-86 -145h-53z" />
    <glyph glyph-name="Lacute" unicode="&#x139;" horiz-adv-x="339" 
d="M152 667v-577h175v-90h-277v667h102zM101 849h119l-93 -115h-70z" />
    <glyph glyph-name="lacute" unicode="&#x13a;" horiz-adv-x="177" 
d="M135 667v-667h-93v667h93zM81 836h116l-83 -115h-70z" />
    <glyph glyph-name="Lcommaaccent" unicode="&#x13b;" horiz-adv-x="339" 
d="M152 667v-577h175v-90h-277v667h102zM132 -67h105l-92 -141h-57z" />
    <glyph glyph-name="lcommaaccent" unicode="&#x13c;" horiz-adv-x="177" 
d="M135 667v-667h-93v667h93zM48 -53h94l-86 -145h-53z" />
    <glyph glyph-name="Lcaron" unicode="&#x13d;" horiz-adv-x="339" 
d="M152 667v-577h175v-90h-277v667h102zM239 667h99l-86 -155h-50z" />
    <glyph glyph-name="lcaron" unicode="&#x13e;" horiz-adv-x="305" 
d="M135 667v-667h-93v667h93zM213 667h93l-85 -158h-40z" />
    <glyph glyph-name="Lslash" unicode="&#x141;" horiz-adv-x="339" 
d="M152 378l101 101v-92l-101 -101v-196h175v-90h-277v208l-43 -43v92l43 43v367h102v-289z" />
    <glyph glyph-name="lslash" unicode="&#x142;" horiz-adv-x="216" 
d="M155 419l51 51v-83l-51 -52v-335h-93v266l-52 -52v84l52 51v318h93v-248z" />
    <glyph glyph-name="Nacute" unicode="&#x143;" horiz-adv-x="437" 
d="M50 0v667h111l124 -440v440h102v-667h-115l-120 403v-403h-102zM218 849h119l-93 -115h-70z" />
    <glyph glyph-name="nacute" unicode="&#x144;" horiz-adv-x="341" 
d="M135 0h-93v503h93v-37q37 44 85 44q56 0 73 -51q8 -23 8 -89v-370h-93v327q0 63 -2 73q-6 30 -29 30q-27 0 -37 -38q-5 -16 -5 -71v-321zM168 678h114l-92 -118h-67z" />
    <glyph glyph-name="Ncommaaccent" unicode="&#x145;" horiz-adv-x="437" 
d="M50 0v667h111l124 -440v440h102v-667h-115l-120 403v-403h-102zM181 -67h105l-92 -141h-57z" />
    <glyph glyph-name="ncommaaccent" unicode="&#x146;" horiz-adv-x="341" 
d="M135 0h-93v503h93v-37q37 44 85 44q56 0 73 -51q8 -23 8 -89v-370h-93v327q0 63 -2 73q-6 30 -29 30q-27 0 -37 -38q-5 -16 -5 -71v-321zM130 -53h94l-86 -145h-53z" />
    <glyph glyph-name="Ncaron" unicode="&#x147;" horiz-adv-x="437" 
d="M50 0v667h111l124 -440v440h102v-667h-115l-120 403v-403h-102zM177 735l-71 114h82l30 -59l31 59h82l-71 -114h-83z" />
    <glyph glyph-name="ncaron" unicode="&#x148;" horiz-adv-x="341" 
d="M135 0h-93v503h93v-37q37 44 85 44q56 0 73 -51q8 -23 8 -89v-370h-93v327q0 63 -2 73q-6 30 -29 30q-27 0 -37 -38q-5 -16 -5 -71v-321zM127 560l-69 118h78l32 -63l31 63h79l-70 -118h-81z" />
    <glyph glyph-name="Omacron" unicode="&#x14c;" horiz-adv-x="400" 
d="M202 677q98 0 134 -72q14 -27 18 -78.5t4 -192.5q0 -157 -5.5 -207.5t-25.5 -78.5q-38 -58 -127 -58q-99 0 -136 72q-14 27 -18 79.5t-4 197.5q0 152 5.5 202.5t24.5 78.5q40 57 130 57zM200 590q-45 0 -53 -52q-3 -29 -3 -206q0 -185 4 -210q9 -45 51 -45q47 0 54 52
q3 25 3 187q0 202 -4 229q-9 45 -52 45zM89 825h221v-66h-221v66z" />
    <glyph glyph-name="omacron" unicode="&#x14d;" 
d="M163 510q59 0 89.5 -29.5t37.5 -93.5q4 -35 3.5 -145.5t-5.5 -140.5q-16 -108 -125 -108q-59 0 -89 29.5t-37 93.5q-4 36 -3.5 145.5t5.5 140.5q15 108 124 108zM127 371v-239q0 -34 7.5 -46.5t28.5 -12.5q22 0 29.5 12t7.5 47v239q0 34 -7.5 46.5t-28.5 12.5
q-22 0 -29.5 -12t-7.5 -47zM58 649h204v-64h-204v64z" />
    <glyph glyph-name="Ohungarumlaut" unicode="&#x150;" horiz-adv-x="400" 
d="M202 677q98 0 134 -72q14 -27 18 -78.5t4 -192.5q0 -157 -5.5 -207.5t-25.5 -78.5q-38 -58 -127 -58q-99 0 -136 72q-14 27 -18 79.5t-4 197.5q0 152 5.5 202.5t24.5 78.5q40 57 130 57zM200 590q-45 0 -53 -52q-3 -29 -3 -206q0 -185 4 -210q9 -45 51 -45q47 0 54 52
q3 25 3 187q0 202 -4 229q-9 45 -52 45zM126 849h99l-79 -115h-57zM270 849h102l-83 -115h-57z" />
    <glyph glyph-name="ohungarumlaut" unicode="&#x151;" 
d="M163 510q59 0 89.5 -29.5t37.5 -93.5q4 -35 3.5 -145.5t-5.5 -140.5q-16 -108 -125 -108q-59 0 -89 29.5t-37 93.5q-4 36 -3.5 145.5t5.5 140.5q15 108 124 108zM127 371v-239q0 -34 7.5 -46.5t28.5 -12.5q22 0 29.5 12t7.5 47v239q0 34 -7.5 46.5t-28.5 12.5
q-22 0 -29.5 -12t-7.5 -47zM112 678h96l-85 -118h-50zM242 678h96l-85 -118h-50z" />
    <glyph glyph-name="OE" unicode="&#x152;" horiz-adv-x="563" 
d="M531 667v-90h-173v-185h159v-90h-159v-212h173v-90h-310q-85 0 -125 31q-36 28 -45 78.5t-9 224.5q0 173 9 223.5t45 78.5q23 18 49.5 24.5t76.5 6.5h309zM200 580q-47 0 -53 -50q-3 -19 -3 -197q0 -183 4 -203t18 -31.5t33 -11.5q48 0 54 50q3 18 3 186q0 193 -4 214
q-4 20 -18 31.5t-34 11.5z" />
    <glyph glyph-name="oe" unicode="&#x153;" horiz-adv-x="498" 
d="M461 234h-166v-102q0 -35 7.5 -47t29.5 -12q21 0 28.5 12.5t7.5 46.5v55h93q0 -93 -14 -126q-29 -68 -115 -68q-52 0 -84 26q-35 -26 -84 -26q-91 0 -116 79q-11 34 -11 180q0 100 2.5 134.5t12.5 56.5q28 67 111 67q47 0 85 -25q35 25 84 25q52 0 84.5 -26.5t39.5 -75.5
q5 -33 5 -174zM368 307v65q0 34 -7.5 46t-28.5 12q-22 0 -29.5 -12t-7.5 -46v-65h73zM131 372v-240q0 -34 7.5 -46.5t28.5 -12.5q20 0 27.5 12.5t7.5 46.5v240q0 34 -7.5 46t-27.5 12q-21 0 -28.5 -12t-7.5 -46z" />
    <glyph glyph-name="Racute" unicode="&#x154;" horiz-adv-x="395" 
d="M50 0v667h132q78 0 110 -16q64 -31 64 -154q0 -59 -14 -91t-48 -49q34 -16 48 -37.5t14 -58.5v-198q0 -42 12 -63h-108q-6 29 -6 53v139q0 70 -15 91.5t-62 21.5h-25v-305h-102zM152 388h25q46 0 61.5 19.5t15.5 76.5q0 59 -15 76t-67 17h-20v-189zM188 849h119l-93 -115
h-70z" />
    <glyph glyph-name="racute" unicode="&#x155;" horiz-adv-x="268" 
d="M42 503h93v-60q22 39 44 53t61 14h16v-102q-53 0 -68 -2.5t-28 -13.5q-15 -13 -20 -34.5t-5 -74.5v-283h-93v503zM141 678h114l-92 -118h-67z" />
    <glyph glyph-name="Rcommaaccent" unicode="&#x156;" horiz-adv-x="395" 
d="M50 0v667h132q78 0 110 -16q64 -31 64 -154q0 -59 -14 -91t-48 -49q34 -16 48 -37.5t14 -58.5v-198q0 -42 12 -63h-108q-6 29 -6 53v139q0 70 -15 91.5t-62 21.5h-25v-305h-102zM152 388h25q46 0 61.5 19.5t15.5 76.5q0 59 -15 76t-67 17h-20v-189zM160 -67h105l-92 -141
h-57z" />
    <glyph glyph-name="rcommaaccent" unicode="&#x157;" horiz-adv-x="268" 
d="M42 503h93v-60q22 39 43.5 53t60.5 14h16v-102q-53 0 -68 -2.5t-27 -13.5q-15 -13 -20 -34.5t-5 -74.5v-283h-93v503zM59 -53h94l-86 -145h-53z" />
    <glyph glyph-name="Rcaron" unicode="&#x158;" horiz-adv-x="395" 
d="M50 0v667h132q78 0 110 -16q64 -31 64 -154q0 -59 -14 -91t-48 -49q34 -16 48 -37.5t14 -58.5v-198q0 -42 12 -63h-108q-6 29 -6 53v139q0 70 -15 91.5t-62 21.5h-25v-305h-102zM152 388h25q46 0 61.5 19.5t15.5 76.5q0 59 -15 76t-67 17h-20v-189zM151 735l-71 114h82
l30 -59l31 59h82l-71 -114h-83z" />
    <glyph glyph-name="rcaron" unicode="&#x159;" horiz-adv-x="268" 
d="M42 503h93v-60q22 39 44 53t61 14h16v-102q-53 0 -68 -2.5t-28 -13.5q-15 -13 -20 -34.5t-5 -74.5v-283h-93v503zM106 560l-69 118h78l32 -63l31 63h79l-70 -118h-81z" />
    <glyph glyph-name="Sacute" unicode="&#x15a;" horiz-adv-x="371" 
d="M28 231h102q1 -81 5 -104q11 -50 52 -50q25 0 40 19.5t15 50.5q0 38 -19 69.5t-72 83.5q-67 66 -89 100q-31 50 -31 114q0 76 42.5 119.5t116.5 43.5q46 0 81 -17.5t50 -48.5q11 -23 13.5 -49t3.5 -110h-102q0 89 -6 105q-11 33 -45 33q-24 0 -39 -19t-15 -49
q0 -33 18 -61.5t74 -83.5q71 -71 97 -117.5t26 -104.5q0 -79 -41 -122t-117 -43q-120 0 -149 98q-11 41 -11 143zM190 849h119l-93 -115h-70z" />
    <glyph glyph-name="sacute" unicode="&#x15b;" horiz-adv-x="303" 
d="M278 342h-93q-1 47 -5 60q-8 28 -33 28q-15 0 -24 -10t-9 -27q0 -19 13 -37t57 -59q59 -55 80 -91t21 -81q0 -63 -35.5 -97.5t-99.5 -34.5q-105 0 -122 88q-6 28 -6 106h93q0 -63 2 -75q6 -39 38 -39q16 0 26.5 13.5t10.5 33.5q0 25 -14.5 46t-68.5 74q-55 54 -71.5 82.5
t-16.5 68.5q0 56 35 87.5t96 31.5q65 0 96 -32.5t31 -101.5q0 -20 -1 -34zM152 678h114l-92 -118h-67z" />
    <glyph glyph-name="Scedilla" unicode="&#x15e;" horiz-adv-x="371" 
d="M195 -10l-27 -43q16 3 25 3q29 0 49 -18t20 -45q0 -34 -27.5 -55.5t-71.5 -21.5q-33 0 -75 16l11 31q30 -11 55 -11q21 0 33.5 10t12.5 27q0 14 -12 23.5t-29 9.5q-15 0 -31 -7l-13 15l40 68q-77 16 -102.5 64t-24.5 175h102q1 -81 5 -104q11 -50 52 -50q25 0 40 19.5
t15 50.5q0 38 -19 69.5t-72 83.5q-69 69 -89 100q-31 50 -31 114q0 76 42.5 119.5t116.5 43.5q46 0 81 -17.5t50 -48.5q11 -23 13.5 -49t3.5 -110h-102q0 89 -6 105q-11 33 -45 33q-24 0 -39 -19t-15 -49q0 -33 18 -61.5t74 -83.5q71 -71 97 -117.5t26 -104.5
q0 -98 -61 -140q-32 -21 -90 -25z" />
    <glyph glyph-name="Scedilla" unicode="&#xf6c1;" horiz-adv-x="371" 
d="M195 -10l-27 -43q16 3 25 3q29 0 49 -18t20 -45q0 -34 -27.5 -55.5t-71.5 -21.5q-33 0 -75 16l11 31q30 -11 55 -11q21 0 33.5 10t12.5 27q0 14 -12 23.5t-29 9.5q-15 0 -31 -7l-13 15l40 68q-77 16 -102.5 64t-24.5 175h102q1 -81 5 -104q11 -50 52 -50q25 0 40 19.5
t15 50.5q0 38 -19 69.5t-72 83.5q-69 69 -89 100q-31 50 -31 114q0 76 42.5 119.5t116.5 43.5q46 0 81 -17.5t50 -48.5q11 -23 13.5 -49t3.5 -110h-102q0 89 -6 105q-11 33 -45 33q-24 0 -39 -19t-15 -49q0 -33 18 -61.5t74 -83.5q71 -71 97 -117.5t26 -104.5
q0 -98 -61 -140q-32 -21 -90 -25z" />
    <glyph glyph-name="scedilla" unicode="&#x15f;" horiz-adv-x="303" 
d="M163 -7l-27 -44q20 3 24 3q28 0 47 -17.5t19 -42.5q0 -32 -26 -52t-68 -20q-34 0 -72 15l11 29q30 -10 53 -10q41 0 41 35q0 13 -10.5 22t-26.5 9t-29 -6l-13 14l39 66q-62 12 -83.5 52t-19.5 141h93q0 -63 2 -75q6 -39 38 -39q16 0 26.5 13.5t10.5 33.5q0 25 -14.5 46
t-68.5 74q-55 55 -71.5 83t-16.5 68q0 56 35 87.5t96 31.5q65 0 96 -32.5t31 -101.5q0 -20 -1 -34h-93q-1 47 -5 60q-8 28 -33 28q-15 0 -24 -10t-9 -27q0 -19 12.5 -36t57.5 -60q59 -55 80 -91t21 -81q0 -121 -122 -132z" />
    <glyph glyph-name="scedilla" unicode="&#xf6c2;" horiz-adv-x="303" 
d="M163 -7l-27 -44q20 3 24 3q28 0 47 -17.5t19 -42.5q0 -32 -26 -52t-68 -20q-34 0 -72 15l11 29q30 -10 53 -10q41 0 41 35q0 13 -10.5 22t-26.5 9t-29 -6l-13 14l39 66q-62 12 -83.5 52t-19.5 141h93q0 -63 2 -75q6 -39 38 -39q16 0 26.5 13.5t10.5 33.5q0 25 -14.5 46
t-68.5 74q-55 55 -71.5 83t-16.5 68q0 56 35 87.5t96 31.5q65 0 96 -32.5t31 -101.5q0 -20 -1 -34h-93q-1 47 -5 60q-8 28 -33 28q-15 0 -24 -10t-9 -27q0 -19 12.5 -36t57.5 -60q59 -55 80 -91t21 -81q0 -121 -122 -132z" />
    <glyph glyph-name="Scaron" unicode="&#x160;" horiz-adv-x="371" 
d="M28 231h102q1 -81 5 -104q11 -50 52 -50q25 0 40 19.5t15 50.5q0 38 -19 69.5t-72 83.5q-67 66 -89 100q-31 50 -31 114q0 76 42.5 119.5t116.5 43.5q46 0 81 -17.5t50 -48.5q11 -23 13.5 -49t3.5 -110h-102q0 89 -6 105q-11 33 -45 33q-24 0 -39 -19t-15 -49
q0 -33 18 -61.5t74 -83.5q71 -71 97 -117.5t26 -104.5q0 -79 -41 -122t-117 -43q-120 0 -149 98q-11 41 -11 143zM149 735l-71 114h82l30 -59l31 59h82l-71 -114h-83z" />
    <glyph glyph-name="scaron" unicode="&#x161;" horiz-adv-x="303" 
d="M278 342h-93q-1 47 -5 60q-8 28 -33 28q-15 0 -24 -10t-9 -27q0 -19 13 -37t57 -59q59 -55 80 -91t21 -81q0 -63 -35.5 -97.5t-99.5 -34.5q-105 0 -122 88q-6 28 -6 106h93q0 -63 2 -75q6 -39 38 -39q16 0 26.5 13.5t10.5 33.5q0 25 -14.5 46t-68.5 74q-55 54 -71.5 82.5
t-16.5 68.5q0 56 35 87.5t96 31.5q65 0 96 -32.5t31 -101.5q0 -20 -1 -34zM112 560l-69 118h78l32 -63l31 63h79l-70 -118h-81z" />
    <glyph glyph-name="Tcommaaccent" unicode="&#x162;" horiz-adv-x="353" 
d="M227 577v-577h-102v577h-113v90h329v-90h-114zM119 -67h105l-92 -141h-57z" />
    <glyph glyph-name="Tcommaaccent" unicode="&#x21a;" horiz-adv-x="353" 
d="M227 577v-577h-102v577h-113v90h329v-90h-114zM119 -67h105l-92 -141h-57z" />
    <glyph glyph-name="tcommaaccent" unicode="&#x163;" horiz-adv-x="191" 
d="M137 636v-133h34v-83h-34v-282q0 -37 5 -46t25 -9h4v-83h-73q-31 0 -42.5 15t-11.5 56v349h-34v83h34v133h93zM68 -53h94l-86 -145h-53z" />
    <glyph glyph-name="tcommaaccent" unicode="&#x21b;" horiz-adv-x="191" 
d="M137 636v-133h34v-83h-34v-282q0 -37 5 -46t25 -9h4v-83h-73q-31 0 -42.5 15t-11.5 56v349h-34v83h34v133h93zM68 -53h94l-86 -145h-53z" />
    <glyph glyph-name="Tcaron" unicode="&#x164;" horiz-adv-x="353" 
d="M227 577v-577h-102v577h-113v90h329v-90h-114zM135 735l-71 114h82l30 -59l31 59h82l-71 -114h-83z" />
    <glyph glyph-name="tcaron" unicode="&#x165;" horiz-adv-x="291" 
d="M137 636v-133h34v-83h-34v-282q0 -37 5 -46t25 -9h4v-83h-73q-31 0 -42.5 15t-11.5 56v349h-34v83h34v133h93zM215 707h93l-85 -158h-40z" />
    <glyph glyph-name="Umacron" unicode="&#x16a;" horiz-adv-x="410" 
d="M262 667h102v-445q0 -94 -3.5 -121t-18.5 -49q-43 -62 -137 -62q-48 0 -85.5 19t-56.5 53q-11 20 -13.5 46.5t-2.5 113.5v445h102v-447q0 -87 4 -102q11 -41 53 -41q45 0 53 47q3 14 3 96v447zM95 825h221v-66h-221v66z" />
    <glyph glyph-name="umacron" unicode="&#x16b;" horiz-adv-x="341" 
d="M208 503h93v-503h-93v37q-37 -44 -85 -44q-57 0 -74 51q-7 25 -7 89v370h93v-327q0 -63 2 -73q6 -30 29 -30q28 0 37 38q5 15 5 71v321zM69 649h204v-64h-204v64z" />
    <glyph glyph-name="Uring" unicode="&#x16e;" horiz-adv-x="410" 
d="M262 667h102v-445q0 -94 -3.5 -121t-18.5 -49q-43 -62 -137 -62q-48 0 -85.5 19t-56.5 53q-11 20 -13.5 46.5t-2.5 113.5v445h102v-447q0 -87 4 -102q11 -41 53 -41q45 0 53 47q3 14 3 96v447zM207 870q33 0 56.5 -24t23.5 -58t-24 -57.5t-58 -23.5q-33 0 -57 24t-24 57
q0 34 24 58t59 24zM206 820q-14 0 -23 -9t-9 -23q0 -13 9 -22t22 -9t22.5 9.5t9.5 22.5q0 12 -9 21.5t-22 9.5z" />
    <glyph glyph-name="uring" unicode="&#x16f;" horiz-adv-x="341" 
d="M208 503h93v-503h-93v37q-37 -44 -85 -44q-57 0 -74 51q-7 25 -7 89v370h93v-327q0 -63 2 -73q6 -30 29 -30q28 0 37 38q5 15 5 71v321zM173 710q33 0 56.5 -24t23.5 -58t-24 -57.5t-58 -23.5q-33 0 -57 24t-24 57q0 34 24 58t59 24zM172 660q-14 0 -23 -9t-9 -23
q0 -13 9 -22t22 -9t22.5 9.5t9.5 22.5q0 12 -9 21.5t-22 9.5z" />
    <glyph glyph-name="Uhungarumlaut" unicode="&#x170;" horiz-adv-x="410" 
d="M262 667h102v-445q0 -94 -3.5 -121t-18.5 -49q-43 -62 -137 -62q-48 0 -85.5 19t-56.5 53q-11 20 -13.5 46.5t-2.5 113.5v445h102v-447q0 -87 4 -102q11 -41 53 -41q45 0 53 47q3 14 3 96v447zM131 849h99l-79 -115h-57zM275 849h102l-83 -115h-57z" />
    <glyph glyph-name="uhungarumlaut" unicode="&#x171;" horiz-adv-x="341" 
d="M208 503h93v-503h-93v37q-37 -44 -85 -44q-57 0 -74 51q-7 25 -7 89v370h93v-327q0 -63 2 -73q6 -30 29 -30q28 0 37 38q5 15 5 71v321zM122 678h96l-85 -118h-50zM252 678h96l-85 -118h-50z" />
    <glyph glyph-name="Uogonek" unicode="&#x172;" horiz-adv-x="410" 
d="M47 667h102v-447q0 -87 4 -102q11 -41 53 -41q45 0 53 47q3 14 3 96v447h102v-445q0 -106 -4.5 -130.5t-32.5 -58.5q-27 -35 -35.5 -53t-8.5 -42q0 -44 48 -44q16 0 30 6l-7 -57q-21 -7 -40 -7q-41 0 -66 20t-25 54q0 35 45 89q-31 -9 -63 -9q-48 0 -85.5 19t-56.5 53
q-11 20 -13.5 46.5t-2.5 113.5v445z" />
    <glyph glyph-name="uogonek" unicode="&#x173;" horiz-adv-x="341" 
d="M317 -107l-8 -57q-17 -6 -35 -6q-37 0 -61 20.5t-24 51.5q0 51 61 98h-42v37q-37 -44 -85 -44q-57 0 -74 51q-7 25 -7 89v370h93v-327q0 -63 2 -73q6 -30 29 -30q28 0 37 38q5 15 5 71v321h93v-503q-52 -34 -52 -75q0 -16 11.5 -26.5t30.5 -10.5q11 0 26 5z" />
    <glyph glyph-name="Ydieresis" unicode="&#x178;" horiz-adv-x="334" 
d="M120 0v266l-118 401h111l57 -245l52 245h109l-109 -401v-266h-102zM54 847h89v-109h-89v109zM190 847h89v-109h-89v109z" />
    <glyph glyph-name="Zacute" unicode="&#x179;" horiz-adv-x="353" 
d="M324 667v-102l-194 -475h194v-90h-295v102l194 475h-184v90h285zM176 849h119l-93 -115h-70z" />
    <glyph glyph-name="zacute" unicode="&#x17a;" horiz-adv-x="292" 
d="M271 503v-93l-163 -327h169v-83h-262v92l163 328h-153v83h246zM148 678h114l-92 -118h-67z" />
    <glyph glyph-name="Zdotaccent" unicode="&#x17b;" horiz-adv-x="353" 
d="M324 667v-102l-194 -475h194v-90h-295v102l194 475h-184v90h285zM137 847h93v-109h-93v109z" />
    <glyph glyph-name="zdotaccent" unicode="&#x17c;" horiz-adv-x="292" 
d="M271 503v-93l-163 -327h169v-83h-262v92l163 328h-153v83h246zM105 673h89v-109h-89v109z" />
    <glyph glyph-name="Zcaron" unicode="&#x17d;" horiz-adv-x="353" 
d="M324 667v-102l-194 -475h194v-90h-295v102l194 475h-184v90h285zM135 735l-71 114h82l30 -59l31 59h82l-71 -114h-83z" />
    <glyph glyph-name="zcaron" unicode="&#x17e;" horiz-adv-x="292" 
d="M271 503v-93l-163 -327h169v-83h-262v92l163 328h-153v83h246zM108 560l-69 118h78l32 -63l31 63h79l-70 -118h-81z" />
    <glyph glyph-name="florin" unicode="&#x192;" horiz-adv-x="407" 
d="M-56 -142l13 70q124 15 145 154l76 397h-84l10 53h85l6 37q13 84 67 129t140 42l-12 -67q-46 -5 -71 -30t-33 -74l-7 -37h84l-11 -53h-83l-77 -407q-13 -64 -29.5 -97.5t-49.5 -61.5q-32 -26 -77 -41.5t-85 -13.5h-7z" />
    <glyph glyph-name="Scommaaccent" unicode="&#x218;" horiz-adv-x="371" 
d="M28 231h102q1 -81 5 -104q11 -50 52 -50q25 0 40 19.5t15 50.5q0 38 -19 69.5t-72 83.5q-67 66 -89 100q-31 50 -31 114q0 76 42.5 119.5t116.5 43.5q46 0 81 -17.5t50 -48.5q11 -23 13.5 -49t3.5 -110h-102q0 89 -6 105q-11 33 -45 33q-24 0 -39 -19t-15 -49
q0 -33 18 -61.5t74 -83.5q71 -71 97 -117.5t26 -104.5q0 -79 -41 -122t-117 -43q-120 0 -149 98q-11 41 -11 143zM148 -67h105l-92 -141h-57z" />
    <glyph glyph-name="scommaaccent" unicode="&#x219;" horiz-adv-x="303" 
d="M278 342h-93q-1 47 -5 60q-8 28 -33 28q-15 0 -24 -10t-9 -27q0 -19 13 -37t57 -59q59 -55 80 -91t21 -81q0 -63 -35.5 -97.5t-99.5 -34.5q-105 0 -122 88q-6 28 -6 106h93q0 -63 2 -75q6 -39 38 -39q16 0 26.5 13.5t10.5 33.5q0 25 -14.5 46t-68.5 74q-55 54 -71.5 82.5
t-16.5 68.5q0 56 35 87.5t96 31.5q65 0 96 -32.5t31 -101.5q0 -20 -1 -34zM110 -53h94l-86 -145h-53z" />
    <glyph glyph-name="circumflex" unicode="&#x2c6;" horiz-adv-x="500" 
d="M209 678h81l70 -118h-79l-31 63l-32 -63h-78z" />
    <glyph glyph-name="caron" unicode="&#x2c7;" horiz-adv-x="500" 
d="M209 560l-69 118h78l32 -63l31 63h79l-70 -118h-81z" />
    <glyph glyph-name="breve" unicode="&#x2d8;" horiz-adv-x="500" 
d="M304 675h63q-6 -40 -16 -58q-14 -25 -41.5 -40t-59.5 -15q-31 0 -59 15t-43 40q-12 21 -15 58h63q9 -27 20.5 -37.5t33.5 -10.5q43 0 54 48z" />
    <glyph glyph-name="dotaccent" unicode="&#x2d9;" horiz-adv-x="500" 
d="M205 673h89v-109h-89v109z" />
    <glyph glyph-name="ring" unicode="&#x2da;" horiz-adv-x="500" 
d="M251 710q33 0 56.5 -24t23.5 -58t-24 -57.5t-58 -23.5q-33 0 -57 24t-24 57q0 34 24 58t59 24zM250 660q-14 0 -23 -9t-9 -23q0 -13 9 -22t22 -9t22.5 9.5t9.5 22.5q0 12 -9 21.5t-22 9.5z" />
    <glyph glyph-name="ogonek" unicode="&#x2db;" horiz-adv-x="500" 
d="M319 0h51q-52 -34 -52 -75q0 -16 12 -26.5t30 -10.5q11 0 26 5l-8 -57q-17 -6 -35 -6q-37 0 -61 20.5t-24 51.5q0 51 61 98z" />
    <glyph glyph-name="tilde" unicode="&#x2dc;" horiz-adv-x="500" 
d="M192 570h-64q2 42 23 68.5t52 26.5q17 0 63 -22q10 -5 17 -5q17 0 24 29h64q-1 -40 -22 -68t-50 -28q-22 0 -69 23q-12 5 -19 5q-14 0 -19 -29z" />
    <glyph glyph-name="hungarumlaut" unicode="&#x2dd;" horiz-adv-x="500" 
d="M196 678h96l-85 -118h-50zM326 678h96l-85 -118h-50z" />
    <glyph glyph-name="Delta" unicode="&#x394;" horiz-adv-x="667" 
d="M24 0l259 667h97l262 -667h-618zM153 84h359l-180 473z" />
    <glyph glyph-name="Delta" unicode="&#x2206;" horiz-adv-x="667" 
d="M24 0l259 667h97l262 -667h-618zM153 84h359l-180 473z" />
    <glyph glyph-name="endash" unicode="&#x2013;" horiz-adv-x="345" 
d="M42 327h261v-88h-261v88z" />
    <glyph glyph-name="emdash" unicode="&#x2014;" horiz-adv-x="414" 
d="M0 327h414v-88h-414v88z" />
    <glyph glyph-name="quoteleft" unicode="&#x2018;" horiz-adv-x="172" 
d="M130 450h-88v105l88 112v-64l-42 -48h42v-105z" />
    <glyph glyph-name="quoteright" unicode="&#x2019;" horiz-adv-x="172" 
d="M43 667h86v-103l-86 -109v62l41 47h-41v103z" />
    <glyph glyph-name="quotesinglbase" unicode="&#x201a;" horiz-adv-x="172" 
d="M43 103h86v-103l-86 -109v63l41 46h-41v103z" />
    <glyph glyph-name="quotedblleft" unicode="&#x201c;" horiz-adv-x="296" 
d="M130 450h-88v105l88 112v-64l-42 -48h42v-105zM254 450h-88v105l88 112v-64l-42 -48h42v-105z" />
    <glyph glyph-name="quotedblright" unicode="&#x201d;" horiz-adv-x="296" 
d="M166 667h88v-105l-88 -112v64l42 48h-42v105zM42 667h88v-105l-88 -112v64l42 48h-42v105z" />
    <glyph glyph-name="quotedblbase" unicode="&#x201e;" horiz-adv-x="296" 
d="M166 123h88v-105l-88 -112v64l42 48h-42v105zM42 123h88v-105l-88 -112v64l42 48h-42v105z" />
    <glyph glyph-name="dagger" unicode="&#x2020;" horiz-adv-x="482" 
d="M292 400v-480h-102v480h-147v90h147v177h102v-177h147v-90h-147z" />
    <glyph glyph-name="daggerdbl" unicode="&#x2021;" horiz-adv-x="482" 
d="M292 400v-204h147v-90h-147v-186h-102v186h-147v90h147v204h-147v90h147v177h102v-177h147v-90h-147z" />
    <glyph glyph-name="bullet" unicode="&#x2022;" horiz-adv-x="667" 
d="M337 477q55 0 95.5 -41t40.5 -97q0 -58 -40.5 -98.5t-97.5 -40.5t-98 40.5t-41 97.5q0 58 41 98.5t100 40.5z" />
    <glyph glyph-name="ellipsis" unicode="&#x2026;" horiz-adv-x="542" 
d="M42 122h97v-122h-97v122zM223 122h97v-122h-97v122zM403 122h97v-122h-97v122z" />
    <glyph glyph-name="perthousand" unicode="&#x2030;" horiz-adv-x="783" 
d="M657 339q54 0 74 -37q13 -22 13 -136q0 -78 -3 -103.5t-14 -40.5q-21 -30 -71 -30q-56 0 -75 37q-8 15 -10.5 39.5t-2.5 93.5q0 81 3 106.5t14 40.5q23 30 72 30zM656 293q-17 0 -22 -14q-6 -14 -6 -113q0 -101 6 -114q5 -14 22 -14t22 14q6 14 6 114q0 99 -6 113
q-5 14 -22 14zM431 339q54 0 74 -37q13 -22 13 -136q0 -78 -3 -103.5t-14 -40.5q-21 -30 -71 -30q-56 0 -75 37q-8 15 -10.5 39.5t-2.5 93.5q0 81 3 106.5t14 40.5q23 30 72 30zM430 293q-17 0 -22 -14q-6 -14 -6 -113q0 -101 6 -114q5 -14 22 -14t22 14q6 14 6 114
q0 99 -6 113q-5 14 -22 14zM146 0l204 665h62l-205 -665h-61zM131 675q54 0 74 -37q13 -22 13 -136q0 -78 -3 -103.5t-14 -40.5q-21 -30 -71 -30q-56 0 -75 37q-8 15 -10.5 39.5t-2.5 93.5q0 81 3 106.5t14 40.5q23 30 72 30zM130 629q-17 0 -22 -14q-6 -14 -6 -113
q0 -101 6 -114q5 -14 22 -14t22 14q6 14 6 114q0 99 -6 113q-5 14 -22 14z" />
    <glyph glyph-name="guilsinglleft" unicode="&#x2039;" horiz-adv-x="230" 
d="M114 444h73l-80 -161l80 -161h-73l-82 161z" />
    <glyph glyph-name="guilsinglright" unicode="&#x203a;" horiz-adv-x="230" 
d="M116 444l82 -161l-82 -161h-73l80 161l-80 161h73z" />
    <glyph glyph-name="fraction" unicode="&#x2044;" horiz-adv-x="110" 
d="M250 667l-337 -667h-60l337 667h60z" />
    <glyph glyph-name="fraction" unicode="&#x2215;" horiz-adv-x="110" 
d="M250 667l-337 -667h-60l337 667h60z" />
    <glyph glyph-name="trademark" unicode="&#x2122;" horiz-adv-x="520" 
d="M134 610v-323h-65v323h-65v57h194v-57h-64zM227 287v380h106l29 -184l26 184h107v-380h-65v281l-47 -281h-40l-51 283v-283h-65z" />
    <glyph glyph-name="partialdiff" unicode="&#x2202;" horiz-adv-x="500" 
d="M78 590l12 79q89 -12 148 -36.5t108 -69.5q61 -56 94 -137t33 -174q0 -100 -43 -165q-30 -46 -77.5 -71.5t-102.5 -25.5q-92 0 -158 66.5t-66 159.5q0 91 60.5 154.5t147.5 63.5q44 0 75.5 -14.5t63.5 -50.5q-25 60 -47.5 90.5t-66.5 62.5q-89 57 -181 68zM253 367
q-58 0 -97 -45t-39 -110q0 -64 38.5 -109t93.5 -45t93.5 46t38.5 113q0 64 -36.5 107t-91.5 43z" />
    <glyph glyph-name="summation" unicode="&#x2211;" horiz-adv-x="667" 
d="M605 750v-235h-81l-9 151h-388l252 -397l-252 -435h397l5 150h85v-234h-588v94l247 425l-247 389v92h579z" />
    <glyph glyph-name="minus" unicode="&#x2212;" horiz-adv-x="407" 
d="M366 382v-83h-325v83h325z" />
    <glyph glyph-name="radical" unicode="&#x221a;" horiz-adv-x="667" 
d="M667 830v-84h-191l-200 -746h-115l-74 290h-87v84h160l59 -220l179 676h269z" />
    <glyph glyph-name="notequal" unicode="&#x2260;" horiz-adv-x="500" 
d="M269 461l54 111l60 -27l-41 -84h125v-81h-162l-41 -84h203v-81h-240l-53 -109l-60 27l40 82h-121v81h158l41 84h-199v81h236z" />
    <glyph glyph-name="lessequal" unicode="&#x2264;" horiz-adv-x="500" 
d="M466 628v-86l-337 -151l337 -151v-86l-433 197v77zM466 125v-84h-433v84h433z" />
    <glyph glyph-name="greaterequal" unicode="&#x2265;" horiz-adv-x="500" 
d="M33 154v86l337 151l-337 151v86l433 -200v-77zM33 41v84h433v-84h-433z" />
    <glyph glyph-name="lozenge" unicode="&#x25ca;" horiz-adv-x="667" 
d="M334 693l259 -359l-259 -360l-260 360zM334 604l-197 -270l197 -271l197 271z" />
    <glyph glyph-name="middot" unicode="&#xe000;" horiz-adv-x="181" 
d="M42 321h97v-122h-97v122z" />
    <glyph glyph-name="nbspace" unicode="&#xe001;" horiz-adv-x="233" 
 />
    <glyph glyph-name="commaaccent" unicode="&#xf6c3;" horiz-adv-x="500" 
d="M209 -53h94l-86 -145h-53z" />
    </font>
</defs>
</svg>
