<?xml version="1.0" standalone="no"?>
<!DOCTYPE svg PUBLIC "-//W3C//DTD SVG 1.1//EN" "http://www.w3.org/Graphics/SVG/1.1/DTD/svg11.dtd" >
<svg>
<metadata>
Created by FontForge 20090622 at Wed Mar 28 20:11:59 2018
 By deploy user
(URW)++, Copyright &#194;&#169; 2000 by (URW)++ Design &#38; Development
</metadata>
<defs>
<font id="NimbusSansDOT-ReguCond" horiz-adv-x="500" >
  <font-face 
    font-family="Nimbus Sans D OT Condensed"
    font-weight="400"
    font-stretch="condensed"
    units-per-em="1000"
    panose-1="2 0 0 0 0 0 0 0 0 0"
    ascent="800"
    descent="-200"
    x-height="487"
    cap-height="667"
    bbox="-171 -250 916 866"
    underline-thickness="62"
    underline-position="-36"
    unicode-range="U+0020-U+FB02"
  />
<missing-glyph horiz-adv-x="233" 
 />
    <glyph glyph-name="fi" unicode="fi" horiz-adv-x="398" 
d="M147 430v-430h-73v430h-59v57h59v56q0 126 109 126q9 0 33 -2v-65q-5 1 -12 1q-34 0 -45.5 -14t-11.5 -54v-48h69v-57h-69zM345 487v-487h-74v487h74zM345 667v-90h-74v90h74z" />
    <glyph glyph-name="fl" unicode="fl" horiz-adv-x="397" 
d="M147 430v-430h-73v430h-59v57h59v56q0 126 109 126q9 0 33 -2v-65q-5 1 -12 1q-34 0 -45.5 -14t-11.5 -54v-48h69v-57h-69zM344 0h-73v667h73v-667z" />
    <glyph glyph-name=".notdef" horiz-adv-x="233" 
 />
    <glyph glyph-name=".null" horiz-adv-x="0" 
 />
    <glyph glyph-name="nonmarkingreturn" horiz-adv-x="333" 
 />
    <glyph glyph-name="space" unicode=" " horiz-adv-x="233" 
 />
    <glyph glyph-name="space" unicode="&#xa0;" horiz-adv-x="233" 
 />
    <glyph glyph-name="exclam" unicode="!" horiz-adv-x="189" 
d="M135 667v-216l-20 -290h-43l-19 290v216h82zM135 88v-88h-82v88h82z" />
    <glyph glyph-name="quotedbl" unicode="&#x22;" horiz-adv-x="320" 
d="M117 399h-52l-10 268h73zM255 399h-52l-11 268h73z" />
    <glyph glyph-name="numbersign" unicode="#" horiz-adv-x="471" 
d="M412 269l-7 -48h-79l-35 -221h-52l35 221h-113l-35 -221h-52l35 221h-78l8 48h78l20 128h-78l7 48h79l35 222h52l-36 -222h114l35 222h52l-35 -222h77l-8 -48h-77l-20 -128h78zM302 397h-113l-20 -128h113z" />
    <glyph glyph-name="dollar" unicode="$" horiz-adv-x="471" 
d="M44 217h77l1 -26q-2 -58 23.5 -92.5t71.5 -35.5v250q-85 34 -107 53q-55 46 -55 126q0 46 19 84.5t52 60.5q31 22 91 29v66h43v-66q74 -1 118.5 -49.5t41.5 -124.5h-79q0 104 -81 108v-220q97 -38 126 -66q47 -45 47 -124q0 -107 -70 -156q-38 -27 -103 -34v-87h-43v87
q-95 8 -136 60t-37 157zM260 295v-232q94 12 94 114q0 47 -21.5 74.5t-72.5 43.5zM217 397v203q-36 -4 -53 -21q-30 -30 -30 -80q0 -76 83 -102z" />
    <glyph glyph-name="percent" unicode="%" horiz-adv-x="659" 
d="M573 667l-436 -667h-53l437 667h52zM159 674q59 0 89 -46q31 -46 31 -141q0 -84 -30 -128t-88 -44q-119 0 -119 180q0 179 117 179zM158 627q-62 0 -62 -135q0 -69 15 -100.5t47 -31.5q68 0 68 127q0 140 -68 140zM498 352q59 0 89 -46q31 -46 31 -141q0 -172 -119 -172
t-119 180q0 179 118 179zM497 305q-63 0 -63 -135q0 -69 15 -100.5t48 -31.5q32 0 50 33t18 94q0 140 -68 140z" />
    <glyph glyph-name="ampersand" unicode="&#x26;" horiz-adv-x="545" 
d="M436 125l87 -125h-87l-41 62q-76 -75 -164 -75q-81 0 -134 54t-53 136t52 136q16 16 79 64q-41 63 -52 88t-11 59q0 58 38.5 97.5t95.5 39.5q56 0 95 -38.5t39 -93.5t-38 -101q-19 -24 -70 -65l123 -178q23 49 21 117h70q-3 -98 -50 -177zM237 413q40 36 55.5 61t15.5 54
q0 30 -18 50t-44 20t-45.5 -20t-19.5 -48q0 -41 56 -117zM357 117l-145 208q-50 -38 -71 -70t-21 -71q0 -57 35.5 -94t90.5 -37q61 0 111 64z" />
    <glyph glyph-name="quotesingle" unicode="'" horiz-adv-x="182" 
d="M117 399h-52l-10 268h73z" />
    <glyph glyph-name="parenleft" unicode="(" horiz-adv-x="267" 
d="M183 667h52q-59 -91 -83.5 -179t-24.5 -210q0 -119 24.5 -207.5t83.5 -183.5h-52q-73 110 -103 198.5t-30 193.5q0 212 133 388z" />
    <glyph glyph-name="parenright" unicode=")" horiz-adv-x="267" 
d="M103 -113h-53q59 90 83.5 178t24.5 211q0 119 -24.5 207.5t-83.5 183.5h53q72 -110 102 -198.5t30 -193.5q0 -210 -132 -388z" />
    <glyph glyph-name="asterisk" unicode="*" horiz-adv-x="364" 
d="M186 487l-70 -87l-39 31l65 83l-98 34l17 46l98 -35v108h50v-108l95 35l16 -46l-93 -34l61 -83l-40 -31z" />
    <glyph glyph-name="plus" unicode="+" horiz-adv-x="471" 
d="M59 367h141v143h72v-143h140v-67h-140v-143h-72v143h-141v67z" />
    <glyph glyph-name="comma" unicode="," horiz-adv-x="192" 
d="M53 0v87h86v-72q0 -61 -25 -102q-19 -29 -61 -46v44q43 20 43 81v8h-43z" />
    <glyph glyph-name="hyphen" unicode="-" horiz-adv-x="178" 
d="M0 209v70h178v-70h-178z" />
    <glyph glyph-name="hyphen" unicode="&#xad;" horiz-adv-x="178" 
d="M0 209v70h178v-70h-178z" />
    <glyph glyph-name="period" unicode="." horiz-adv-x="192" 
d="M138 88v-88h-85v88h85z" />
    <glyph glyph-name="slash" unicode="/" horiz-adv-x="336" 
d="M291 667l-207 -780h-59l206 780h60z" />
    <glyph glyph-name="zero" unicode="0" horiz-adv-x="471" 
d="M234 678q52 0 91.5 -24.5t58.5 -68.5q37 -83 37 -248t-37 -254q-18 -43 -58.5 -68.5t-89.5 -25.5q-46 0 -85.5 23t-59.5 61q-41 79 -41 268q0 177 44 256q47 81 140 81zM233 613q-56 0 -78.5 -66t-22.5 -228q0 -142 24 -202.5t80 -60.5q53 0 79 59q25 55 25 217
q0 182 -30 234q-29 47 -77 47z" />
    <glyph glyph-name="one" unicode="1" horiz-adv-x="471" 
d="M231 482h-134v58q75 -2 113 30.5t37 96.5h63v-667h-79v482z" />
    <glyph glyph-name="two" unicode="2" horiz-adv-x="471" 
d="M412 69v-69h-358q-1 99 34 162t138 148q58 49 79 86t21 90q0 55 -26.5 88t-70.5 33q-32 0 -56 -17t-34 -48q-10 -30 -10 -84v-11h-75q0 94 25 141q44 90 150 90q80 0 128.5 -52t48.5 -138q0 -90 -52 -154q-32 -37 -101 -94q-115 -93 -124 -171h283z" />
    <glyph glyph-name="three" unicode="3" horiz-adv-x="471" 
d="M54 201h74q4 -72 20 -102q26 -45 85 -45q51 0 82 38t31 101q0 62 -31.5 95t-90.5 33q-10 0 -38 -2v66h24q49 0 75 16q41 28 41 100q0 52 -25.5 83t-68.5 31q-26 0 -47 -13t-31 -35q-13 -28 -14 -87h-77q5 198 168 198q76 0 123 -47.5t47 -123.5t-46 -119q-17 -16 -54 -29
q34 -6 61 -22q61 -39 61 -144q0 -91 -52 -147.5t-136 -56.5q-87 0 -134.5 51.5t-47.5 146.5q0 8 1 14z" />
    <glyph glyph-name="four" unicode="4" horiz-adv-x="471" 
d="M355 165v-165h-71v165h-241v79l241 423h71v-435h69v-67h-69zM284 232v299l-171 -299h171z" />
    <glyph glyph-name="five" unicode="5" horiz-adv-x="471" 
d="M401 667v-70h-224l-30 -198q29 24 50.5 33t50.5 9q81 0 127 -58t46 -159q0 -109 -51.5 -172t-140.5 -63q-78 0 -125 49q-46 49 -46 118v20h75q2 -35 11 -63q10 -27 33.5 -43.5t53.5 -16.5q52 0 81.5 45.5t29.5 124.5q0 70 -29.5 111t-80.5 41q-31 0 -53 -14.5t-42 -47.5
l-63 5l40 349h287z" />
    <glyph glyph-name="six" unicode="6" horiz-adv-x="471" 
d="M405 515h-75q-6 96 -80 96q-79 0 -106 -108q-8 -32 -17 -137q31 37 59 51.5t67 14.5q76 0 121.5 -57t45.5 -153q0 -102 -52 -167.5t-132 -65.5q-89 0 -137 75q-49 78 -49 241q0 216 60 300q51 73 138 73q79 0 122 -56q27 -35 35 -107zM239 368q-49 0 -77.5 -39.5
t-28.5 -108.5q0 -78 28.5 -122t78.5 -44q48 0 74.5 44t26.5 124q0 64 -21 99q-30 47 -81 47z" />
    <glyph glyph-name="seven" unicode="7" horiz-adv-x="471" 
d="M426 667v-70q-95 -137 -153.5 -300.5t-59.5 -296.5h-88q20 164 70.5 303t144.5 288h-285v76h371z" />
    <glyph glyph-name="eight" unicode="8" horiz-adv-x="471" 
d="M306 363q43 -10 64 -30q49 -47 49 -142q0 -91 -50.5 -146.5t-134.5 -55.5q-83 0 -132.5 54t-49.5 146q0 80 43 134q24 28 68 42q-45 17 -65 47q-26 38 -26 93q0 77 44.5 125t114.5 48q74 0 120 -46.5t46 -122.5q0 -61 -29 -101q-17 -23 -62 -45zM240 330h-6
q-46 0 -72.5 -36.5t-26.5 -99.5q0 -65 26.5 -101t75.5 -36t75.5 35.5t26.5 100.5q0 64 -26.5 100.5t-72.5 36.5zM232 612q-37 0 -59 -28t-22 -76q0 -53 22.5 -83t62.5 -30q39 0 62.5 30.5t23.5 80.5q0 47 -25 76.5t-65 29.5z" />
    <glyph glyph-name="nine" unicode="9" horiz-adv-x="471" 
d="M65 152h76q6 -96 80 -96q26 0 49 14t35 37q14 28 24 76.5t10 88.5v25q-43 -63 -121 -63q-77 0 -123 57t-46 152q0 104 51.5 169.5t134.5 65.5q87 0 135 -73q27 -41 38 -98t11 -154q0 -183 -45 -270q-49 -94 -151 -94q-70 0 -113 44.5t-45 118.5zM231 614q-49 0 -76 -44.5
t-27 -124.5q0 -68 27 -107.5t73 -39.5q51 0 79.5 40t28.5 113q0 74 -28.5 118.5t-76.5 44.5z" />
    <glyph glyph-name="colon" unicode=":" horiz-adv-x="192" 
d="M138 487v-88h-85v88h85zM138 88v-88h-85v88h85z" />
    <glyph glyph-name="semicolon" unicode=";" horiz-adv-x="192" 
d="M53 0v87h86v-72q0 -61 -25 -102q-19 -29 -61 -46v44q43 20 43 81v8h-43zM138 487v-88h-85v88h85z" />
    <glyph glyph-name="less" unicode="&#x3c;" 
d="M466 566v-66l-361 -164l361 -163v-67l-433 201v59z" />
    <glyph glyph-name="equal" unicode="=" horiz-adv-x="471" 
d="M63 441h345v-67h-345v67zM63 292h345v-67h-345v67z" />
    <glyph glyph-name="greater" unicode="&#x3e;" 
d="M34 106v67l361 163l-361 164v66l433 -201v-58z" />
    <glyph glyph-name="question" unicode="?" horiz-adv-x="402" 
d="M227 161h-74v25q1 68 11.5 91.5t68.5 91.5q34 39 46.5 65.5t12.5 59.5q0 48 -26 79.5t-66 31.5q-59 0 -81 -60q-11 -27 -12 -83h-75q3 87 25 127q43 81 139 81q77 0 125.5 -49.5t48.5 -127.5q0 -45 -18 -82t-64 -86q-37 -40 -49.5 -66t-12.5 -66q0 -20 1 -32zM232 85v-85
h-79v85h79z" />
    <glyph glyph-name="at" unicode="@" horiz-adv-x="599" 
d="M446 496l-46 -215q-5 -27 -5 -45q0 -22 11 -36t29 -14q34 0 59.5 58.5t25.5 135.5q0 111 -57.5 182.5t-147.5 71.5q-98 0 -165.5 -87.5t-67.5 -214.5q0 -123 63 -212q64 -88 174 -88q80 0 152 49l14 -44q-76 -50 -165 -50q-131 0 -206 98q-81 103 -81 248q0 146 81 246
t199 100q109 0 180.5 -84.5t71.5 -212.5q0 -97 -39.5 -167.5t-93.5 -70.5q-45 0 -78 54q-48 -49 -105 -49q-84 0 -84 99q0 50 14 104t37 90q39 62 107 62q45 0 68 -37l6 29h49zM318 462q-42 0 -64 -49q-35 -75 -35 -159q0 -65 46 -65q49 0 75 63q12 29 22 75.5t10 72.5
q0 29 -14.5 45.5t-39.5 16.5z" />
    <glyph glyph-name="A" unicode="A" horiz-adv-x="516" 
d="M364 194h-215l-54 -194h-83l194 667h98l200 -667h-87zM345 262l-91 343l-89 -343h180z" />
    <glyph glyph-name="B" unicode="B" horiz-adv-x="490" 
d="M62 667h173q81 0 114 -16q37 -19 58.5 -59.5t21.5 -92.5q0 -60 -28 -104q-15 -23 -52 -44q42 -15 63 -39q38 -47 38 -118q0 -62 -28.5 -110t-77.5 -67q-42 -17 -109 -17h-173v667zM135 378h107q45 0 64 11q47 23 47 100q0 78 -52 98q-23 10 -73 10h-93v-219zM135 65h96
q62 0 91 16q49 28 49 112q0 87 -61 114q-21 9 -76 9h-99v-251z" />
    <glyph glyph-name="C" unicode="C" horiz-adv-x="479" 
d="M374 239h77q-2 -120 -53 -185t-144 -65q-105 0 -157 82q-28 43 -39 99.5t-11 152.5q0 191 54 276q50 79 157 79q104 0 155 -73q31 -44 38 -138h-77q-11 72 -29 98q-29 44 -84 44q-71 0 -101.5 -67t-30.5 -222q0 -142 30 -204.5t98 -62.5t100 75q17 39 17 111z" />
    <glyph glyph-name="D" unicode="D" horiz-adv-x="506" 
d="M62 0v667h150q81 0 122 -15t69 -54q56 -80 56 -256q0 -211 -79 -292q-29 -29 -59.5 -39.5t-88.5 -10.5h-170zM138 66h83q49 0 73 8.5t42 33.5q20 28 32.5 94t12.5 145q0 148 -44 208q-18 24 -43.5 33.5t-71.5 9.5h-84v-532z" />
    <glyph glyph-name="E" unicode="E" horiz-adv-x="455" 
d="M141 311v-240h275v-71h-354v667h354v-75h-275v-210h262v-71h-262z" />
    <glyph glyph-name="F" unicode="F" horiz-adv-x="419" 
d="M130 312v-312h-78v667h346v-76h-268v-212h258v-67h-258z" />
    <glyph glyph-name="G" unicode="G" horiz-adv-x="508" 
d="M453 347v-347h-62v72q-56 -83 -144 -83q-58 0 -101 30t-65 85q-34 89 -34 246q0 167 50.5 247.5t155.5 80.5q52 0 95 -22t68 -61q27 -45 30 -124h-84q0 37 -7 62q-25 76 -100 76q-65 0 -95.5 -64.5t-30.5 -200.5q0 -142 29 -215q13 -34 40.5 -54t61.5 -20q74 0 104 85
q12 33 13 138h-136v69h212z" />
    <glyph glyph-name="H" unicode="H" horiz-adv-x="517" 
d="M141 319v-319h-79v667h79v-277h238v277h76v-667h-76v319h-238z" />
    <glyph glyph-name="I" unicode="I" horiz-adv-x="212" 
d="M143 667v-667h-74v667h74z" />
    <glyph glyph-name="J" unicode="J" horiz-adv-x="393" 
d="M20 215h77l-1 -31q0 -68 18.5 -98.5t60.5 -30.5q31 0 51.5 16.5t27.5 45.5q4 17 4 73v477h78v-477q0 -86 -21 -127q-39 -74 -139 -74q-71 0 -113 40q-45 44 -45 141q0 3 2 45z" />
    <glyph glyph-name="K" unicode="K" horiz-adv-x="489" 
d="M138 230v-230h-76v667h76v-333l240 333h92l-211 -279l218 -388h-91l-177 322z" />
    <glyph glyph-name="L" unicode="L" horiz-adv-x="432" 
d="M139 74h271v-74h-348v667h77v-593z" />
    <glyph glyph-name="M" unicode="M" horiz-adv-x="646" 
d="M360 0h-70l-150 564v-564h-78v667h123l143 -563l138 563h118v-667h-77v564z" />
    <glyph glyph-name="N" unicode="N" horiz-adv-x="522" 
d="M460 667v-667h-106l-212 552v-552h-80v667h103l216 -546v546h79z" />
    <glyph glyph-name="O" unicode="O" horiz-adv-x="505" 
d="M254 678q107 0 159 -85q46 -75 46 -231q0 -179 -36 -268q-45 -105 -172 -105q-52 0 -95 25t-66 68q-43 85 -43 258q0 167 44 246q23 43 66.5 67.5t96.5 24.5zM255 612q-69 0 -98.5 -65t-29.5 -219q0 -144 30.5 -210.5t96.5 -66.5q71 0 98 68q28 66 28 219q0 149 -32 218
q-13 26 -38 41t-55 15z" />
    <glyph glyph-name="P" unicode="P" horiz-adv-x="456" 
d="M143 280v-280h-78v667h153q86 0 123 -21q86 -47 86 -171q0 -68 -26 -117t-72 -67q-30 -11 -96 -11h-90zM143 348h76q63 0 88 15q20 13 32 43.5t12 68.5q0 84 -58 109q-23 10 -74 10h-76v-246z" />
    <glyph glyph-name="Q" unicode="Q" horiz-adv-x="504" 
d="M486 16l-38 -45l-74 61q-47 -43 -123 -43q-54 0 -97.5 25.5t-66.5 71.5q-40 80 -40 253q0 163 40 240q52 99 166 99q52 0 94 -23t65 -64q46 -79 46 -242q0 -102 -14 -176q-9 -51 -32 -92zM295 180l60 -50q25 81 25 213q0 150 -35 218q-26 53 -92 53q-67 0 -97 -65.5
t-30 -212.5q0 -154 30.5 -219t102.5 -65q39 0 64 25l-67 53z" />
    <glyph glyph-name="R" unicode="R" horiz-adv-x="494" 
d="M137 297v-297h-75v667h160q94 0 129 -19q39 -20 62 -63t23 -96q0 -85 -51 -131q-22 -20 -74 -26q41 -5 60.5 -15t35.5 -35q13 -22 17.5 -60t8.5 -147q0 -55 28 -60v-15h-93q-14 29 -15 109q-1 66 -5.5 100t-20.5 55.5t-40 27t-71 5.5h-79zM137 361h81q67 0 93 17
q46 31 46 103q0 88 -65 108q-20 7 -79 7h-76v-235z" />
    <glyph glyph-name="S" unicode="S" horiz-adv-x="479" 
d="M33 210h79q2 -52 7 -75.5t19 -40.5q32 -41 95 -41t97 33t34 94q0 49 -27 74.5t-106 51.5q-67 22 -94 34.5t-46 29.5q-42 39 -42 121q0 88 50.5 137.5t139.5 49.5q84 0 134.5 -46t50.5 -123q0 -11 -1 -20h-77q2 20 2 23q0 44 -32 74q-26 25 -77 25q-55 0 -84 -29t-29 -84
q0 -51 30 -76q18 -15 105 -44q95 -31 127 -57q54 -41 54 -132q0 -93 -56 -146.5t-153 -53.5q-59 0 -105 23t-69 63t-26 135z" />
    <glyph glyph-name="T" unicode="T" horiz-adv-x="452" 
d="M268 595v-595h-81v595h-165v72h408v-72h-162z" />
    <glyph glyph-name="U" unicode="U" horiz-adv-x="501" 
d="M445 667v-456q0 -58 -5.5 -87.5t-21.5 -52.5q-51 -80 -166 -80q-128 0 -176 98q-19 41 -19 122v456h82v-458q0 -70 16 -99q27 -53 96 -53q75 0 101 62q11 29 11 90v458h82z" />
    <glyph glyph-name="V" unicode="V" horiz-adv-x="507" 
d="M304 0h-95l-190 667h86l153 -592l150 592h81z" />
    <glyph glyph-name="W" unicode="W" horiz-adv-x="722" 
d="M700 667l-145 -667h-86l-110 552l-108 -552h-91l-138 667h82l104 -558l104 558h95l108 -558l102 558h83z" />
    <glyph glyph-name="X" unicode="X" horiz-adv-x="485" 
d="M248 268l-147 -268h-89l189 340l-176 327h92l131 -255l135 255h90l-181 -327l181 -340h-90z" />
    <glyph glyph-name="Y" unicode="Y" horiz-adv-x="481" 
d="M284 261v-261h-78v256l-197 411h90l146 -326l139 326h89z" />
    <glyph glyph-name="Z" unicode="Z" horiz-adv-x="466" 
d="M433 71v-71h-408v65l313 528h-299v74h386v-69l-314 -527h322z" />
    <glyph glyph-name="bracketleft" unicode="[" horiz-adv-x="249" 
d="M60 667h147v-43h-74v-687h74v-50h-147v780z" />
    <glyph glyph-name="backslash" unicode="\" horiz-adv-x="336" 
d="M49 667h60l206 -780h-59z" />
    <glyph glyph-name="bracketright" unicode="]" horiz-adv-x="249" 
d="M189 667v-780h-147v50h74v687h-74v43h147z" />
    <glyph glyph-name="asciicircum" unicode="^" 
d="M100 368h-73l179 300h87l179 -300h-73l-150 248z" />
    <glyph glyph-name="underscore" unicode="_" 
d="M0 -67h500v-62h-500v62z" />
    <glyph glyph-name="grave" unicode="`" 
d="M133 677h106l61 -126h-61z" />
    <glyph glyph-name="a" unicode="a" horiz-adv-x="409" 
d="M393 54v-54q-25 -8 -41 -8q-31 0 -47 16.5t-24 55.5q-23 -39 -42 -52q-37 -25 -91 -25q-56 0 -86.5 35t-30.5 100q0 74 36 107t139 53q45 10 60 23t15 44q0 47 -20.5 68.5t-66.5 21.5q-38 0 -59 -18t-21 -49q0 -11 1 -17h-70q-1 8 -1 22q0 56 41 89t111 33q83 0 120 -34
t37 -110v-250q0 -32 5 -42.5t20 -10.5q3 0 15 2zM281 239v19q-27 -19 -92 -38q-44 -13 -64 -36t-20 -60q0 -35 18.5 -56.5t47.5 -21.5q55 0 88 43q24 31 24 87z" />
    <glyph glyph-name="b" unicode="b" horiz-adv-x="423" 
d="M121 667v-232q27 37 50 51.5t55 14.5q44 0 78.5 -23t53.5 -65q27 -57 27 -161q0 -127 -41 -195.5t-117 -68.5q-74 0 -106 71v-59h-68v667h68zM212 441q-41 0 -64 -32q-28 -39 -28 -143q0 -120 18 -164q23 -51 75 -51q98 0 98 208q0 93 -24 137.5t-75 44.5z" />
    <glyph glyph-name="c" unicode="c" horiz-adv-x="392" 
d="M293 170h72q-3 -73 -30 -116q-20 -32 -53.5 -50t-73.5 -18q-77 0 -124 61q-45 60 -45 194q0 117 31 180q43 86 138 86q86 0 130 -68q22 -35 27 -99h-72q-5 104 -80 104q-52 0 -74.5 -48t-22.5 -161q0 -98 22 -143t70 -45q47 0 66 40q12 25 19 83z" />
    <glyph glyph-name="d" unicode="d" horiz-adv-x="425" 
d="M305 438v229h67v-667h-67v60q-32 -71 -113 -71q-39 0 -71.5 20.5t-50.5 56.5q-31 63 -31 175q0 125 41 194t116 69q33 0 57.5 -15t51.5 -51zM211 444q-24 0 -45.5 -15t-31.5 -38q-19 -48 -19 -143q0 -89 20 -147q19 -53 71 -53t75.5 49.5t23.5 160.5q0 97 -23 141
q-10 20 -30 32.5t-41 12.5z" />
    <glyph glyph-name="e" unicode="e" horiz-adv-x="401" 
d="M291 161h70q-6 -84 -46.5 -128.5t-110.5 -44.5q-86 0 -125.5 64t-39.5 202q0 127 43 188t119 61q78 0 120 -57t42 -163q0 -5 -2 -41h-246q0 -102 22 -149t70 -47q38 0 60 30.5t24 84.5zM115 298h175q-2 146 -85 146q-53 0 -78 -62q-11 -28 -12 -84z" />
    <glyph glyph-name="f" unicode="f" horiz-adv-x="234" 
d="M147 430v-430h-73v430h-59v57h59v56q0 126 109 126q9 0 33 -2v-65q-5 1 -12 1q-34 0 -45.5 -14t-11.5 -54v-48h69v-57h-69z" />
    <glyph glyph-name="g" unicode="g" horiz-adv-x="423" 
d="M300 446v41h70v-487q0 -79 -45.5 -124t-125.5 -45q-134 0 -151 120h78q0 -29 20 -45t56 -16q47 0 72.5 28.5t25.5 81.5v51q-11 -25 -41 -41.5t-66 -16.5q-78 0 -117 62q-38 58 -38 190q0 133 39 190q20 29 52 46t67 17q61 0 104 -52zM205 437q-50 0 -73 -50
q-18 -36 -18 -137q0 -116 25 -161q22 -39 66 -39q25 0 46.5 14.5t30.5 37.5q20 49 20 154q0 81 -15 119q-11 28 -33.5 45t-48.5 17z" />
    <glyph glyph-name="h" unicode="h" horiz-adv-x="421" 
d="M125 667v-229q28 36 53.5 50.5t60.5 14.5q86 0 117 -66q12 -28 12 -89v-348h-76v348q0 44 -7 58q-20 35 -63 35q-26 0 -49.5 -13t-36.5 -35q-11 -17 -11 -66v-327h-72v667h72z" />
    <glyph glyph-name="i" unicode="i" horiz-adv-x="181" 
d="M127 487v-487h-74v487h74zM127 667v-90h-74v90h74z" />
    <glyph glyph-name="j" unicode="j" horiz-adv-x="182" 
d="M129 487v-500q0 -78 -27 -112.5t-88 -34.5q-18 0 -29 1v63l10 -1q5 -1 12 -1q24 0 38 19q8 11 8 47v519h76zM129 667v-90h-76v90h76z" />
    <glyph glyph-name="k" unicode="k" horiz-adv-x="418" 
d="M126 168v-168h-73v667h73v-400l188 220h88l-164 -185l173 -302h-90l-136 241z" />
    <glyph glyph-name="l" unicode="l" horiz-adv-x="180" 
d="M126 0h-73v667h73v-667z" />
    <glyph glyph-name="m" unicode="m" horiz-adv-x="645" 
d="M53 487h72v-37q45 52 110 52q82 0 113 -67q51 67 122 67q40 0 71.5 -18.5t42.5 -48.5q9 -24 9 -79v-356h-75v344q0 43 -5 58q-13 38 -57 38q-59 0 -87 -46q-12 -21 -12 -60v-334h-71v336q0 50 -3 63q-5 18 -23 30t-42 12q-55 0 -87 -55q-6 -10 -6 -48v-338h-72v487z" />
    <glyph glyph-name="n" unicode="n" horiz-adv-x="422" 
d="M53 487h70v-48q49 62 120 62q85 0 113 -68q11 -27 11 -85v-348h-71v341q0 39 -5 59q-6 19 -24.5 30t-43.5 11q-51 0 -86 -51q-14 -19 -14 -35v-355h-70v487z" />
    <glyph glyph-name="o" unicode="o" horiz-adv-x="420" 
d="M211 503q171 0 171 -247q0 -270 -174 -270q-81 0 -125 68.5t-44 195.5q0 124 44 188.5t128 64.5zM213 445q-96 0 -96 -198q0 -105 22 -152t72 -47t73 49.5t23 157.5q0 190 -94 190z" />
    <glyph glyph-name="p" unicode="p" horiz-adv-x="426" 
d="M122 55v-228h-69v660h69v-54q30 68 110 68q155 0 155 -248q0 -127 -40.5 -196t-114.5 -69q-81 0 -110 67zM216 444q-47 0 -71.5 -49t-24.5 -141q0 -102 24.5 -155.5t71.5 -53.5t72 53t25 152q0 194 -97 194z" />
    <glyph glyph-name="q" unicode="q" horiz-adv-x="423" 
d="M370 487v-660h-70v208q-36 -57 -109 -57q-153 0 -153 266q0 249 157 249q35 0 58.5 -13t46.5 -47v54h70zM205 434q-95 0 -95 -198q0 -199 93 -199q100 0 100 203q0 194 -98 194z" />
    <glyph glyph-name="r" unicode="r" horiz-adv-x="262" 
d="M243 497v-72h-19q-70 0 -92 -66q-7 -21 -7 -91v-268h-72v487h72v-64q42 74 107 74h11z" />
    <glyph glyph-name="s" unicode="s" horiz-adv-x="382" 
d="M34 136h65v-12q0 -84 92 -84q46 0 70.5 21.5t24.5 61.5q0 39 -21 60q-15 14 -74 30q-63 17 -82 25t-35 23q-34 32 -34 96q0 70 45 108q45 36 109 36q84 0 124 -56q23 -32 24 -88h-71q-3 43 -14 57q-20 25 -62 25q-40 0 -63.5 -20.5t-23.5 -54.5t21 -52q14 -13 78 -31
q56 -16 74 -24t35 -23q40 -33 40 -99q0 -72 -44.5 -113.5t-122.5 -41.5q-75 0 -115.5 35t-40.5 100q0 13 1 21z" />
    <glyph glyph-name="t" unicode="t" horiz-adv-x="241" 
d="M143 430v-316q0 -37 8.5 -49t33.5 -12q8 0 26 2v-61q-11 -1 -27 -1q-62 0 -86.5 21.5t-24.5 74.5v341h-67v57h67v134h70v-134h79v-57h-79z" />
    <glyph glyph-name="u" unicode="u" horiz-adv-x="420" 
d="M366 0h-72v50q-45 -61 -114 -61q-45 0 -78 20.5t-43 55.5q-6 18 -6 78v344h75v-337q0 -48 6 -66q6 -16 24.5 -26t41.5 -10q39 0 71 32q23 23 23 57v350h72v-487z" />
    <glyph glyph-name="v" unicode="v" horiz-adv-x="400" 
d="M389 487l-147 -487h-78l-153 487h80l112 -394l110 394h76z" />
    <glyph glyph-name="w" unicode="w" horiz-adv-x="583" 
d="M292 371l-81 -371h-77l-123 487h78l85 -387l77 387h81l80 -387l85 387h76l-126 -487h-76z" />
    <glyph glyph-name="x" unicode="x" horiz-adv-x="398" 
d="M200 192l-116 -192h-84l156 254l-149 233h88l105 -170l99 170h87l-144 -233l156 -254h-90z" />
    <glyph glyph-name="y" unicode="y" horiz-adv-x="405" 
d="M38 -164v62q27 -7 45 -7q32 0 51 22.5t30 73.5l-153 500h79l113 -399l113 399h78l-165 -530q-23 -74 -53.5 -100t-94.5 -26q-17 0 -43 5z" />
    <glyph glyph-name="z" unicode="z" horiz-adv-x="355" 
d="M329 61v-61h-304v61l217 367h-207v59h288v-59l-213 -367h219z" />
    <glyph glyph-name="braceleft" unicode="{" horiz-adv-x="262" 
d="M140 526v-138q0 -46 -12 -70t-43 -41q31 -17 43 -42.5t12 -71.5v-131q0 -55 20 -74q16 -16 54 -16h17v-55h-16q-78 0 -109.5 32t-31.5 111v132q0 42 -12 62t-43 29v51q29 8 42 28.5t13 59.5v143q0 71 31 101.5t103 30.5h23v-55h-17q-41 0 -57.5 -19.5t-16.5 -66.5z" />
    <glyph glyph-name="bar" unicode="|" 
d="M217 667h67v-834h-67v834z" />
    <glyph glyph-name="braceright" unicode="}" horiz-adv-x="262" 
d="M123 28v138q0 46 12 70t43 41q-31 17 -43 42.5t-12 71.5v131q0 55 -20 74q-16 16 -54 16h-17v55h16q78 0 109.5 -32t31.5 -111v-132q0 -42 12 -62t43 -29v-51q-29 -8 -42 -28.5t-13 -59.5v-143q0 -71 -31 -101.5t-103 -30.5h-23v55h17q41 0 57.5 19.5t16.5 66.5z" />
    <glyph glyph-name="asciitilde" unicode="~" horiz-adv-x="667" 
d="M133 585l-40 26q31 63 61 88t74 25q38 0 113 -36q71 -33 99 -33t48.5 15.5t43.5 54.5l41 -24q-55 -110 -142 -110q-21 0 -46.5 9t-92.5 40q-41 20 -68 20q-51 0 -91 -75z" />
    <glyph glyph-name="exclamdown" unicode="&#xa1;" horiz-adv-x="189" 
d="M53 -127v216l20 290h43l19 -290v-216h-82zM53 452v88h82v-88h-82z" />
    <glyph glyph-name="cent" unicode="&#xa2;" horiz-adv-x="471" 
d="M321 254h73q2 -73 -35 -122t-102 -59v-88h-32v84q-81 11 -119.5 72t-38.5 177q0 131 38.5 197.5t119.5 75.5v82h32v-82q61 -5 99.5 -52t37.5 -117h-73q-1 43 -18.5 71t-45.5 32v-393q56 12 64 122zM225 132v393q-45 -12 -62 -56t-17 -146q0 -97 17.5 -140t61.5 -51z" />
    <glyph glyph-name="sterling" unicode="&#xa3;" horiz-adv-x="471" 
d="M419 99l25 -61q-56 -38 -107 -38q-31 0 -81 18q-45 15 -73 15q-56 0 -106 -43l-40 58q56 46 79.5 85.5t23.5 86.5q0 44 -22 84h-81v43h59q-45 75 -45 139q0 83 53 137.5t134 54.5q117 0 165 -90q21 -41 22 -117h-79v10q0 59 -27.5 92t-77.5 33q-51 0 -79.5 -32.5
t-28.5 -91.5q0 -50 48 -135h147v-43h-127q16 -36 16 -67q0 -75 -81 -155q47 12 79 12q40 0 83 -13q38 -11 50 -11q25 0 71 29z" />
    <glyph glyph-name="currency" unicode="&#xa4;" horiz-adv-x="667" 
d="M59 121l92 94q-51 66 -51 143q0 74 51 142l-95 94l38 38l94 -94q70 52 145 52q76 0 143 -52l95 93l37 -37l-93 -94q51 -68 51 -143q0 -73 -51 -141l95 -94l-38 -38l-94 94q-68 -52 -144 -52q-72 0 -144 51l-94 -93zM335 530q-73 0 -123 -50t-50 -123q0 -71 50 -121
t121 -50t121 50.5t50 121.5q0 70 -50 121t-119 51z" />
    <glyph glyph-name="yen" unicode="&#xa5;" horiz-adv-x="471" 
d="M278 218v-218h-77v218h-154v43h152l-28 66h-124v43h106l-126 297h80l133 -329l124 329h80l-121 -297h108v-43h-126l-27 -66h153v-43h-153z" />
    <glyph glyph-name="brokenbar" unicode="&#xa6;" 
d="M217 667h67v-332h-67v332zM217 153h67v-320h-67v320z" />
    <glyph glyph-name="section" unicode="&#xa7;" horiz-adv-x="467" 
d="M79 22h70q2 -41 25 -65t59 -24q32 0 54.5 21.5t22.5 52.5q0 26 -13 45t-56 58l-115 106q-40 36 -53.5 60.5t-13.5 61.5q0 77 82 119q-44 51 -44 100q0 56 40.5 91.5t104.5 35.5q59 0 99 -36.5t41 -90.5h-64q-7 32 -28.5 49.5t-53.5 17.5q-31 0 -51.5 -18t-20.5 -44
q0 -22 10.5 -38.5t42.5 -44.5l23 -22l106 -98q36 -34 49 -57.5t13 -53.5q0 -42 -18.5 -70.5t-63.5 -56.5q52 -62 52 -115q0 -56 -42 -95.5t-102 -39.5q-38 0 -74.5 19t-56.5 50q-19 30 -24 82zM270 338l-83 77q-64 -19 -64 -71q0 -25 20 -51q9 -12 44 -42l90 -83
q29 5 46.5 24t17.5 45q0 25 -22 54q-10 13 -49 47z" />
    <glyph glyph-name="dieresis" unicode="&#xa8;" 
d="M213 659v-91h-72v91h72zM359 659v-91h-72v91h72z" />
    <glyph glyph-name="copyright" unicode="&#xa9;" horiz-adv-x="567" 
d="M352 287h50q-1 -71 -31 -109t-85 -38q-60 0 -92 47q-29 46 -29 144q0 106 29.5 154t94.5 48q104 0 113 -125h-50q-7 44 -20.5 62t-41.5 18q-38 0 -54.5 -36.5t-16.5 -122.5q0 -77 16 -111.5t52 -34.5q65 0 65 104zM283 678q136 0 200 -92q53 -77 53 -244q0 -178 -53 -260
q-59 -93 -204 -93q-63 0 -115 25t-80 68q-53 82 -53 257q0 169 53 247q30 43 82.5 67.5t116.5 24.5zM284 627q-118 0 -162 -75q-41 -73 -41 -224q0 -150 48 -221t151 -71q109 0 157.5 69.5t48.5 224.5q0 151 -41 222q-45 75 -161 75z" />
    <glyph glyph-name="ordfeminine" unicode="&#xaa;" horiz-adv-x="283" 
d="M260 306v-39q-16 -6 -28 -6q-35 0 -44 38q-27 -40 -80 -40q-36 0 -55.5 21.5t-19.5 61.5q0 44 23 64.5t87 32.5q26 5 34.5 12.5t8.5 24.5q0 26 -11.5 37.5t-38.5 11.5q-46 0 -46 -36l1 -13h-49q-1 6 -1 16q0 35 26 55t70 20q52 0 75.5 -21t23.5 -67v-147q0 -18 2.5 -23.5
t9.5 -5.5q4 0 12 3zM187 373l-1 43q-2 -1 -3 -2l-2 -1q-9 -5 -20 -8q-6 -1 -27 -9q-49 -14 -49 -53q0 -19 10 -31t27 -12q30 0 47.5 20t17.5 53z" />
    <glyph glyph-name="guillemotleft" unicode="&#xab;" horiz-adv-x="391" 
d="M90 246l87 -95v-78l-135 142v64l135 134v-79zM250 246l87 -95v-78l-135 142v64l135 134v-79z" />
    <glyph glyph-name="logicalnot" unicode="&#xac;" 
d="M399 0v205h-366v62h433v-267h-67z" />
    <glyph glyph-name="registered" unicode="&#xae;" horiz-adv-x="567" 
d="M225 314v-167h-49v380h98q60 0 83 -18q40 -29 40 -85q0 -71 -54 -87q32 -10 41 -35t11 -109q0 -31 16 -32v-14h-59q-9 18 -10 64q-1 69 -13.5 86t-61.5 17h-42zM225 356h43q45 0 61 16q16 19 16 48q0 36 -21 51q-15 10 -59 10h-40v-125zM283 678q136 0 200 -92
q53 -77 53 -244q0 -178 -53 -260q-59 -93 -204 -93q-63 0 -115 25t-80 68q-53 82 -53 257q0 169 53 247q30 43 82.5 67.5t116.5 24.5zM284 627q-118 0 -162 -75q-41 -73 -41 -224q0 -150 48 -221t151 -71q109 0 157.5 69.5t48.5 224.5q0 151 -41 222q-45 75 -161 75z" />
    <glyph glyph-name="macron" unicode="&#xaf;" 
d="M135 580v65h230v-65h-230z" />
    <glyph glyph-name="macron" unicode="&#x2c9;" 
d="M135 580v65h230v-65h-230z" />
    <glyph glyph-name="degree" unicode="&#xb0;" horiz-adv-x="334" 
d="M168 667q58 0 99 -40t41 -97q0 -56 -41 -96.5t-99 -40.5q-59 0 -100 40.5t-41 98.5q0 55 41.5 95t99.5 40zM167 619q-37 0 -64 -26t-27 -62q0 -37 27 -63.5t65 -26.5t64.5 26t26.5 63t-27 63t-65 26z" />
    <glyph glyph-name="plusminus" unicode="&#xb1;" horiz-adv-x="471" 
d="M63 417h137v133h70v-133h138v-67h-138v-130h-70v130h-137v67zM63 146h345v-67h-345v67z" />
    <glyph glyph-name="twosuperior" unicode="&#xb2;" horiz-adv-x="291" 
d="M255 316v-49h-218q-1 64 19.5 103t82.5 92q34 29 46 51t12 54t-14.5 51t-39.5 19q-55 0 -55 -85v-12h-51q0 58 15 91q28 56 92 56q49 0 78 -32.5t29 -86.5q0 -55 -31 -95q-15 -20 -60 -59q-64 -52 -71 -98h166z" />
    <glyph glyph-name="threesuperior" unicode="&#xb3;" horiz-adv-x="291" 
d="M35 396h50q2 -46 12 -64q15 -26 48 -26q28 0 45.5 22.5t17.5 59.5q0 75 -69 75q-6 0 -26 -2v48q46 0 60 9q23 16 23 58q0 30 -14.5 48t-37.5 18q-30 0 -44 -27q-7 -18 -7 -55h-53q3 127 103 127q47 0 75.5 -29.5t28.5 -77.5q0 -67 -51 -90q64 -20 64 -102
q0 -57 -31.5 -92.5t-82.5 -35.5q-76 0 -101 65q-10 23 -10 71z" />
    <glyph glyph-name="acute" unicode="&#xb4;" 
d="M367 677l-106 -126h-61l61 126h106z" />
    <glyph glyph-name="mu" unicode="&#xb5;" horiz-adv-x="471" 
d="M77 -125v612h72v-281q0 -87 25 -121q24 -33 58 -33q41 0 65 44t24 120v271h72v-487h-72v69q-29 -82 -89 -82q-30 0 -50.5 17t-39.5 58v-187h-65z" />
    <glyph glyph-name="mu" unicode="&#x3bc;" horiz-adv-x="471" 
d="M77 -125v612h72v-281q0 -87 25 -121q24 -33 58 -33q41 0 65 44t24 120v271h72v-487h-72v69q-29 -82 -89 -82q-30 0 -50.5 17t-39.5 58v-187h-65z" />
    <glyph glyph-name="paragraph" unicode="&#xb6;" horiz-adv-x="471" 
d="M213 -113v427h-15q-67 0 -109 48.5t-42 124.5q0 49 19 89.5t52 62.5q42 28 115 28h150v-780h-58v727h-54v-727h-58z" />
    <glyph glyph-name="periodcentered" unicode="&#xb7;" horiz-adv-x="192" 
d="M138 291v-88h-85v88h85z" />
    <glyph glyph-name="periodcentered" unicode="&#x2219;" horiz-adv-x="192" 
d="M138 291v-88h-85v88h85z" />
    <glyph glyph-name="cedilla" unicode="&#xb8;" 
d="M242 0h34l-39 -56q20 4 30 4q31 0 52.5 -18t21.5 -44q0 -33 -29 -54.5t-74 -21.5q-35 0 -79 17l11 26q32 -13 59 -13q23 0 38.5 12t15.5 31q0 16 -12 26t-30 10q-19 0 -39 -9l-13 13z" />
    <glyph glyph-name="onesuperior" unicode="&#xb9;" horiz-adv-x="291" 
d="M140 560h-79v42q46 -2 67.5 17.5t20.5 60.5h44v-413h-53v293z" />
    <glyph glyph-name="ordmasculine" unicode="&#xba;" horiz-adv-x="290" 
d="M145 570q108 0 108 -150q0 -162 -110 -162q-50 0 -78 41.5t-28 117.5q0 74 28 113.5t80 39.5zM147 529q-56 0 -56 -114q0 -61 12.5 -87.5t41.5 -26.5t42.5 28.5t13.5 90.5q0 109 -54 109z" />
    <glyph glyph-name="guillemotright" unicode="&#xbb;" horiz-adv-x="391" 
d="M300 241l-87 95v77l135 -142v-64l-135 -134v80zM140 241l-87 95v77l135 -142v-64l-135 -134v80z" />
    <glyph glyph-name="onequarter" unicode="&#xbc;" horiz-adv-x="727" 
d="M140 560h-79v42q46 -2 67.5 17.5t20.5 60.5h44v-413h-53v293zM608 667l-436 -667h-52l437 667h51zM654 101v-101h-49v101h-142v53l143 259h48v-264h41v-48h-41zM605 149v165l-92 -165h92z" />
    <glyph glyph-name="onehalf" unicode="&#xbd;" horiz-adv-x="727" 
d="M140 560h-79v42q46 -2 67.5 17.5t20.5 60.5h44v-413h-53v293zM608 667l-436 -667h-52l437 667h51zM692 49v-49h-218q-1 64 19.5 103t82.5 92q34 29 46 51t12 54t-14.5 51t-39.5 19q-55 0 -55 -85v-12h-51q0 58 15 91q28 56 92 56q49 0 78 -32.5t29 -86.5q0 -55 -31 -95
q-15 -20 -60 -59q-65 -53 -71 -98h166z" />
    <glyph glyph-name="threequarters" unicode="&#xbe;" horiz-adv-x="727" 
d="M35 396h50q2 -46 12 -64q15 -26 48 -26q28 0 45.5 22.5t17.5 59.5q0 75 -69 75q-6 0 -26 -2v48q46 0 60 9q23 16 23 58q0 30 -14.5 48t-37.5 18q-30 0 -44 -27q-7 -18 -7 -55h-53q3 127 103 127q47 0 75.5 -29.5t28.5 -77.5q0 -67 -51 -90q64 -20 64 -102
q0 -57 -31.5 -92.5t-82.5 -35.5q-76 0 -101 65q-10 23 -10 71zM607 667l-436 -667h-52l437 667h51zM653 101v-101h-49v101h-142v53l143 259h48v-264h41v-48h-41zM604 149v165l-92 -165h92z" />
    <glyph glyph-name="questiondown" unicode="&#xbf;" horiz-adv-x="402" 
d="M175 382h74l-1 -25q-1 -68 -11 -91.5t-68 -91.5q-34 -39 -46.5 -65.5t-12.5 -59.5q0 -48 26 -79.5t66 -31.5q59 0 81 60q11 27 12 83h75q-3 -87 -25 -127q-43 -81 -139 -81q-77 0 -125.5 49.5t-48.5 127.5q0 44 18 81.5t64 86.5q37 40 49.5 66t12.5 66q0 20 -1 32z
M170 458v85h79v-85h-79z" />
    <glyph glyph-name="Agrave" unicode="&#xc0;" horiz-adv-x="516" 
d="M364 194h-215l-54 -194h-83l194 667h98l200 -667h-87zM345 262l-91 343l-89 -343h180zM126 848h110l61 -121h-65z" />
    <glyph glyph-name="Aacute" unicode="&#xc1;" horiz-adv-x="516" 
d="M364 194h-215l-54 -194h-83l194 667h98l200 -667h-87zM345 262l-91 343l-89 -343h180zM384 848l-107 -121h-64l61 121h110z" />
    <glyph glyph-name="Acircumflex" unicode="&#xc2;" horiz-adv-x="516" 
d="M364 194h-215l-54 -194h-83l194 667h98l200 -667h-87zM345 262l-91 343l-89 -343h180zM258 806l-52 -79h-74l76 121h100l75 -121h-74z" />
    <glyph glyph-name="Atilde" unicode="&#xc3;" horiz-adv-x="516" 
d="M364 194h-215l-54 -194h-83l194 667h98l200 -667h-87zM345 262l-91 343l-89 -343h180zM354 836h50q-4 -45 -26.5 -72.5t-54.5 -27.5t-90 34q-15 9 -33 9q-12 0 -21 -12t-11 -32h-50q2 43 26 72t57 29q27 0 93 -35q14 -8 24 -8q30 0 36 43z" />
    <glyph glyph-name="Adieresis" unicode="&#xc4;" horiz-adv-x="516" 
d="M364 194h-215l-54 -194h-83l194 667h98l200 -667h-87zM345 262l-91 343l-89 -343h180zM220 742h-78v86h78v-86zM373 742h-78v86h78v-86z" />
    <glyph glyph-name="Aring" unicode="&#xc5;" horiz-adv-x="516" 
d="M364 194h-215l-54 -194h-83l194 667h98l200 -667h-87zM345 262l-91 343l-89 -343h180zM258 866q33 0 56 -23t23 -57q0 -32 -23.5 -55t-55.5 -23t-55.5 23.5t-23.5 55.5t23.5 55.5t55.5 23.5zM258 825q-16 0 -27 -11t-11 -27t11 -27t27 -11t27 11t11 27t-11 27t-27 11z
" />
    <glyph glyph-name="AE" unicode="&#xc6;" horiz-adv-x="736" 
d="M345 192h-191l-68 -192h-81l237 667h449v-75h-269v-212h261v-68h-261v-242h275v-70h-352v192zM345 260v332h-51l-116 -332h167z" />
    <glyph glyph-name="Ccedilla" unicode="&#xc7;" horiz-adv-x="479" 
d="M258 -11l-32 -44q20 4 31 4q32 0 53 -18t21 -45q0 -33 -29 -54.5t-74 -21.5q-36 0 -79 17l11 26q34 -13 59 -13q23 0 38.5 12.5t15.5 30.5q0 16 -12 26.5t-30 10.5q-21 0 -40 -10l-12 13l46 68q-68 10 -107 53q-38 42 -54.5 106t-16.5 173q0 191 54 276q50 79 157 79
q104 0 155 -73q31 -44 38 -138h-77q-11 72 -29 98q-29 44 -84 44q-71 0 -101.5 -66.5t-30.5 -221.5q0 -142 30 -204.5t98 -62.5q67 0 100 74q17 39 17 111h77q0 -115 -52 -182t-141 -68z" />
    <glyph glyph-name="Egrave" unicode="&#xc8;" horiz-adv-x="455" 
d="M141 311v-240h275v-71h-354v667h354v-75h-275v-210h262v-71h-262zM120 848h110l61 -121h-65z" />
    <glyph glyph-name="Eacute" unicode="&#xc9;" horiz-adv-x="455" 
d="M141 311v-240h275v-71h-354v667h354v-75h-275v-210h262v-71h-262zM358 848l-107 -121h-64l61 121h110z" />
    <glyph glyph-name="Ecircumflex" unicode="&#xca;" horiz-adv-x="455" 
d="M141 311v-240h275v-71h-354v667h354v-75h-275v-210h262v-71h-262zM239 806l-52 -79h-74l76 121h100l75 -121h-74z" />
    <glyph glyph-name="Edieresis" unicode="&#xcb;" horiz-adv-x="455" 
d="M141 311v-240h275v-71h-354v667h354v-75h-275v-210h262v-71h-262zM201 742h-78v86h78v-86zM354 742h-78v86h78v-86z" />
    <glyph glyph-name="Igrave" unicode="&#xcc;" horiz-adv-x="212" 
d="M143 667v-667h-74v667h74zM-16 848h106l55 -121h-65z" />
    <glyph glyph-name="Iacute" unicode="&#xcd;" horiz-adv-x="212" 
d="M143 667v-667h-74v667h74zM228 848l-97 -121h-64l54 121h107z" />
    <glyph glyph-name="Icircumflex" unicode="&#xce;" horiz-adv-x="212" 
d="M143 667v-667h-74v667h74zM106 806l-45 -79h-74l69 121h100l75 -121h-80z" />
    <glyph glyph-name="Idieresis" unicode="&#xcf;" horiz-adv-x="212" 
d="M143 667v-667h-74v667h74zM87 742h-78v86h78v-86zM204 742h-78v86h78v-86z" />
    <glyph glyph-name="Eth" unicode="&#xd0;" horiz-adv-x="506" 
d="M62 0v321h-60v67h60v279h151q80 0 121 -14.5t69 -54.5q56 -79 56 -256q0 -213 -79 -292q-28 -30 -58 -40t-90 -10h-170zM138 66h83q49 0 72 8.5t42 33.5q21 28 33.5 93.5t12.5 145.5q0 148 -44 208q-19 25 -43.5 34t-71.5 9h-84v-210h127v-67h-127v-255z" />
    <glyph glyph-name="Ntilde" unicode="&#xd1;" horiz-adv-x="522" 
d="M460 667v-667h-106l-212 552v-552h-80v667h103l216 -546v546h79zM357 836h50q-4 -45 -26.5 -72.5t-54.5 -27.5t-90 34q-15 9 -33 9q-12 0 -21 -12t-11 -32h-50q2 43 26 72t57 29q27 0 93 -35q14 -8 24 -8q30 0 36 43z" />
    <glyph glyph-name="Ograve" unicode="&#xd2;" horiz-adv-x="505" 
d="M254 678q107 0 159 -85q46 -75 46 -231q0 -179 -36 -268q-45 -105 -172 -105q-52 0 -95 25t-66 68q-43 85 -43 258q0 167 44 246q23 43 66.5 67.5t96.5 24.5zM255 612q-69 0 -98.5 -65t-29.5 -219q0 -144 30.5 -210.5t96.5 -66.5q71 0 98 68q28 66 28 219q0 149 -32 218
q-13 26 -38 41t-55 15zM131 848h110l61 -121h-65z" />
    <glyph glyph-name="Oacute" unicode="&#xd3;" horiz-adv-x="505" 
d="M254 678q107 0 159 -85q46 -75 46 -231q0 -179 -36 -268q-45 -105 -172 -105q-52 0 -95 25t-66 68q-43 85 -43 258q0 167 44 246q23 43 66.5 67.5t96.5 24.5zM255 612q-69 0 -98.5 -65t-29.5 -219q0 -144 30.5 -210.5t96.5 -66.5q71 0 98 68q28 66 28 219q0 149 -32 218
q-13 26 -38 41t-55 15zM375 848l-107 -121h-64l61 121h110z" />
    <glyph glyph-name="Ocircumflex" unicode="&#xd4;" horiz-adv-x="505" 
d="M254 678q107 0 159 -85q46 -75 46 -231q0 -179 -36 -268q-45 -105 -172 -105q-52 0 -95 25t-66 68q-43 85 -43 258q0 167 44 246q23 43 66.5 67.5t96.5 24.5zM255 612q-69 0 -98.5 -65t-29.5 -219q0 -144 30.5 -210.5t96.5 -66.5q71 0 98 68q28 66 28 219q0 149 -32 218
q-13 26 -38 41t-55 15zM253 806l-52 -79h-74l76 121h100l75 -121h-74z" />
    <glyph glyph-name="Otilde" unicode="&#xd5;" horiz-adv-x="505" 
d="M254 678q107 0 159 -85q46 -75 46 -231q0 -179 -36 -268q-45 -105 -172 -105q-52 0 -95 25t-66 68q-43 85 -43 258q0 167 44 246q23 43 66.5 67.5t96.5 24.5zM255 612q-69 0 -98.5 -65t-29.5 -219q0 -144 30.5 -210.5t96.5 -66.5q71 0 98 68q28 66 28 219q0 149 -32 218
q-13 26 -38 41t-55 15zM352 836h50q-4 -45 -26.5 -72.5t-54.5 -27.5t-90 34q-15 9 -33 9q-12 0 -21 -12t-11 -32h-50q2 43 26 72t57 29q27 0 93 -35q14 -8 24 -8q30 0 36 43z" />
    <glyph glyph-name="Odieresis" unicode="&#xd6;" horiz-adv-x="505" 
d="M254 678q107 0 159 -85q46 -75 46 -231q0 -179 -36 -268q-45 -105 -172 -105q-52 0 -95 25t-66 68q-43 85 -43 258q0 167 44 246q23 43 66.5 67.5t96.5 24.5zM255 612q-69 0 -98.5 -65t-29.5 -219q0 -144 30.5 -210.5t96.5 -66.5q71 0 98 68q28 66 28 219q0 149 -32 218
q-13 26 -38 41t-55 15zM215 742h-78v86h78v-86zM368 742h-78v86h78v-86z" />
    <glyph glyph-name="multiply" unicode="&#xd7;" horiz-adv-x="471" 
d="M118 500l117 -117l117 117l49 -49l-116 -117l116 -117l-49 -50l-117 117l-117 -117l-49 50l117 117l-117 117z" />
    <glyph glyph-name="Oslash" unicode="&#xd8;" horiz-adv-x="505" 
d="M113 46l-40 -63l-40 26l49 83q-20 49 -28 102t-8 144q0 158 40 239q23 49 67 75t102 26q85 0 141 -63l39 63l41 -26l-50 -82q19 -57 25.5 -100.5t6.5 -115.5q0 -148 -32 -242q-20 -59 -67 -91t-112 -32q-81 0 -134 57zM369 484l-211 -372q28 -58 97 -58q55 0 80 39
q43 69 43 259q0 52 -9 132zM137 170l213 376q-6 29 -33.5 48t-63.5 19q-62 0 -93 -55q-35 -67 -35 -219q0 -87 12 -169z" />
    <glyph glyph-name="Ugrave" unicode="&#xd9;" horiz-adv-x="501" 
d="M445 667v-456q0 -58 -5.5 -87.5t-21.5 -52.5q-51 -80 -166 -80q-128 0 -176 98q-19 41 -19 122v456h82v-458q0 -70 16 -99q27 -53 96 -53q75 0 101 62q11 29 11 90v458h82zM132 848h110l61 -121h-65z" />
    <glyph glyph-name="Uacute" unicode="&#xda;" horiz-adv-x="501" 
d="M445 667v-456q0 -58 -5.5 -87.5t-21.5 -52.5q-51 -80 -166 -80q-128 0 -176 98q-19 41 -19 122v456h82v-458q0 -70 16 -99q27 -53 96 -53q75 0 101 62q11 29 11 90v458h82zM370 848l-107 -121h-64l61 121h110z" />
    <glyph glyph-name="Ucircumflex" unicode="&#xdb;" horiz-adv-x="501" 
d="M445 667v-456q0 -58 -5.5 -87.5t-21.5 -52.5q-51 -80 -166 -80q-128 0 -176 98q-19 41 -19 122v456h82v-458q0 -70 16 -99q27 -53 96 -53q75 0 101 62q11 29 11 90v458h82zM251 806l-52 -79h-74l76 121h100l75 -121h-74z" />
    <glyph glyph-name="Udieresis" unicode="&#xdc;" horiz-adv-x="501" 
d="M445 667v-456q0 -58 -5.5 -87.5t-21.5 -52.5q-51 -80 -166 -80q-128 0 -176 98q-19 41 -19 122v456h82v-458q0 -70 16 -99q27 -53 96 -53q75 0 101 62q11 29 11 90v458h82zM213 742h-78v86h78v-86zM366 742h-78v86h78v-86z" />
    <glyph glyph-name="Yacute" unicode="&#xdd;" horiz-adv-x="481" 
d="M284 261v-261h-78v256l-197 411h90l146 -326l139 326h89zM360 848l-107 -121h-64l61 121h110z" />
    <glyph glyph-name="Thorn" unicode="&#xde;" horiz-adv-x="454" 
d="M141 186v-186h-81v667h81v-94h75q58 0 89.5 -8t56.5 -28q63 -52 63 -156q0 -113 -66 -165q-22 -17 -49 -23.5t-79 -6.5h-90zM141 254h76q76 0 101 25q31 34 31 102q0 67 -39 98q-27 21 -86 21h-83v-246z" />
    <glyph glyph-name="germandbls" unicode="&#xdf;" horiz-adv-x="434" 
d="M180 342v58q7 -1 16 -1q46 0 68 22q29 29 29 85q0 46 -23.5 74t-61.5 28q-26 0 -47 -14.5t-29 -39.5q-5 -16 -5 -75v-479h-74v484q0 83 22 119q20 32 56.5 50.5t79.5 18.5q70 0 113 -45.5t43 -118.5q0 -54 -27 -92q-20 -29 -69 -42q56 -8 80 -36q42 -50 42 -136
q0 -60 -21 -108.5t-58 -74.5q-43 -30 -107 -30q-7 0 -27 3v63q15 -3 25 -3q54 0 83.5 40t29.5 113q0 92 -57 123q-27 14 -81 14z" />
    <glyph glyph-name="agrave" unicode="&#xe0;" horiz-adv-x="409" 
d="M393 54v-54q-25 -8 -41 -8q-31 0 -47 16.5t-24 55.5q-23 -39 -42 -52q-37 -25 -91 -25q-56 0 -86.5 35t-30.5 100q0 74 36 107t139 53q45 10 60 23t15 44q0 47 -20.5 68.5t-66.5 21.5q-38 0 -59 -18t-21 -49q0 -11 1 -17h-70q-1 8 -1 22q0 56 41 89t111 33q83 0 120 -34
t37 -110v-250q0 -32 5 -42.5t20 -10.5q3 0 15 2zM281 239v19q-27 -19 -92 -38q-44 -13 -64 -36t-20 -60q0 -35 18.5 -56.5t47.5 -21.5q55 0 88 43q24 31 24 87zM87 677h106l61 -126h-61z" />
    <glyph glyph-name="aacute" unicode="&#xe1;" horiz-adv-x="409" 
d="M393 54v-54q-25 -8 -41 -8q-31 0 -47 16.5t-24 55.5q-23 -39 -42 -52q-37 -25 -91 -25q-56 0 -86.5 35t-30.5 100q0 74 36 107t139 53q45 10 60 23t15 44q0 47 -20.5 68.5t-66.5 21.5q-38 0 -59 -18t-21 -49q0 -11 1 -17h-70q-1 8 -1 22q0 56 41 89t111 33q83 0 120 -34
t37 -110v-250q0 -32 5 -42.5t20 -10.5q3 0 15 2zM281 239v19q-27 -19 -92 -38q-44 -13 -64 -36t-20 -60q0 -35 18.5 -56.5t47.5 -21.5q55 0 88 43q24 31 24 87zM321 677l-106 -126h-61l61 126h106z" />
    <glyph glyph-name="acircumflex" unicode="&#xe2;" horiz-adv-x="409" 
d="M393 54v-54q-25 -8 -41 -8q-31 0 -47 16.5t-24 55.5q-23 -39 -42 -52q-37 -25 -91 -25q-56 0 -86.5 35t-30.5 100q0 74 36 107t139 53q45 10 60 23t15 44q0 47 -20.5 68.5t-66.5 21.5q-38 0 -59 -18t-21 -49q0 -11 1 -17h-70q-1 8 -1 22q0 56 41 89t111 33q83 0 120 -34
t37 -110v-250q0 -32 5 -42.5t20 -10.5q3 0 15 2zM281 239v19q-27 -19 -92 -38q-44 -13 -64 -36t-20 -60q0 -35 18.5 -56.5t47.5 -21.5q55 0 88 43q24 31 24 87zM203 629l-55 -79h-66l85 127h71l85 -127h-66z" />
    <glyph glyph-name="atilde" unicode="&#xe3;" horiz-adv-x="409" 
d="M393 54v-54q-25 -8 -41 -8q-31 0 -47 16.5t-24 55.5q-23 -39 -42 -52q-37 -25 -91 -25q-56 0 -86.5 35t-30.5 100q0 74 36 107t139 53q45 10 60 23t15 44q0 47 -20.5 68.5t-66.5 21.5q-38 0 -59 -18t-21 -49q0 -11 1 -17h-70q-1 8 -1 22q0 56 41 89t111 33q83 0 120 -34
t37 -110v-250q0 -32 5 -42.5t20 -10.5q3 0 15 2zM281 239v19q-27 -19 -92 -38q-44 -13 -64 -36t-20 -60q0 -35 18.5 -56.5t47.5 -21.5q55 0 88 43q24 31 24 87zM279 658h47q-2 -40 -22 -65.5t-49 -25.5q-21 0 -86 32q-10 5 -16 5q-17 0 -26 -35h-47q9 89 71 89q19 0 85 -31
q10 -5 16 -5q19 0 27 36z" />
    <glyph glyph-name="adieresis" unicode="&#xe4;" horiz-adv-x="409" 
d="M393 54v-54q-25 -8 -41 -8q-31 0 -47 16.5t-24 55.5q-23 -39 -42 -52q-37 -25 -91 -25q-56 0 -86.5 35t-30.5 100q0 74 36 107t139 53q45 10 60 23t15 44q0 47 -20.5 68.5t-66.5 21.5q-38 0 -59 -18t-21 -49q0 -11 1 -17h-70q-1 8 -1 22q0 56 41 89t111 33q83 0 120 -34
t37 -110v-250q0 -32 5 -42.5t20 -10.5q3 0 15 2zM281 239v19q-27 -19 -92 -38q-44 -13 -64 -36t-20 -60q0 -35 18.5 -56.5t47.5 -21.5q55 0 88 43q24 31 24 87zM166 659v-91h-72v91h72zM312 659v-91h-72v91h72z" />
    <glyph glyph-name="aring" unicode="&#xe5;" horiz-adv-x="409" 
d="M393 54v-54q-25 -8 -41 -8q-31 0 -47 16.5t-24 55.5q-23 -39 -42 -52q-37 -25 -91 -25q-56 0 -86.5 35t-30.5 100q0 74 36 107t139 53q45 10 60 23t15 44q0 47 -20.5 68.5t-66.5 21.5q-38 0 -59 -18t-21 -49q0 -11 1 -17h-70q-1 8 -1 22q0 56 41 89t111 33q83 0 120 -34
t37 -110v-250q0 -32 5 -42.5t20 -10.5q3 0 15 2zM281 239v19q-27 -19 -92 -38q-44 -13 -64 -36t-20 -60q0 -35 18.5 -56.5t47.5 -21.5q55 0 88 43q24 31 24 87zM204 699q33 0 56 -23t23 -57q0 -32 -23.5 -55t-55.5 -23t-55.5 23.5t-23.5 55.5t23.5 55.5t55.5 23.5zM204 658
q-16 0 -27 -11t-11 -27t11 -27t27 -11q15 0 26.5 11t11.5 26q0 16 -11 27.5t-27 11.5z" />
    <glyph glyph-name="ae" unicode="&#xe6;" horiz-adv-x="609" 
d="M498 165h71q-11 -76 -36 -112q-44 -63 -123 -63q-86 0 -128 89q-19 -44 -45 -62q-38 -27 -83 -27q-55 0 -88.5 39t-33.5 101q0 87 68 129q19 11 117 35q30 8 39 18t9 36q0 52 -18.5 76t-58.5 24q-37 0 -58 -22.5t-24 -63.5h-67q4 61 29 93q43 52 120 52q79 0 118 -55
q44 57 110 57q33 0 66 -17.5t51 -45.5q37 -55 37 -159q0 -23 -1 -40h-239q1 -11 1 -25v-60q1 -52 24.5 -83t62.5 -31q74 0 80 117zM495 303v21q0 58 -22.5 90t-62.5 32q-45 0 -66 -38q-13 -24 -15 -83v-22h166zM263 216l-1 31q-42 -14 -67 -21q-49 -13 -69.5 -35.5
t-20.5 -62.5q0 -35 17.5 -56t47.5 -21q52 0 79 49q14 27 14 95v21z" />
    <glyph glyph-name="ccedilla" unicode="&#xe7;" horiz-adv-x="392" 
d="M206 -13l-30 -43q19 5 31 5q32 0 53 -18t21 -45q0 -33 -29 -54.5t-74 -21.5q-36 0 -80 17l12 26q32 -13 59 -13q23 0 38.5 12.5t15.5 30.5q0 16 -12 26.5t-30 10.5q-20 0 -40 -10l-12 13l45 67q-32 11 -44 17t-26 19q-65 58 -65 215q0 118 31 180q43 86 138 86
q86 0 130 -68q22 -35 27 -99h-72q-5 104 -80 104q-52 0 -74.5 -48t-22.5 -161q0 -98 22 -143t70 -45q47 0 66 40q12 25 19 83h72q-1 -85 -43.5 -134t-115.5 -49z" />
    <glyph glyph-name="egrave" unicode="&#xe8;" horiz-adv-x="401" 
d="M291 161h70q-6 -84 -46.5 -128.5t-110.5 -44.5q-86 0 -125.5 64t-39.5 202q0 127 43 188t119 61q78 0 120 -57t42 -163q0 -5 -2 -41h-246q0 -102 22 -149t70 -47q38 0 60 30.5t24 84.5zM115 298h175q-2 146 -85 146q-53 0 -78 -62q-11 -28 -12 -84zM87 677h106l61 -126
h-61z" />
    <glyph glyph-name="eacute" unicode="&#xe9;" horiz-adv-x="401" 
d="M291 161h70q-6 -84 -46.5 -128.5t-110.5 -44.5q-86 0 -125.5 64t-39.5 202q0 127 43 188t119 61q78 0 120 -57t42 -163q0 -5 -2 -41h-246q0 -102 22 -149t70 -47q38 0 60 30.5t24 84.5zM115 298h175q-2 146 -85 146q-53 0 -78 -62q-11 -28 -12 -84zM324 677l-106 -126
h-61l61 126h106z" />
    <glyph glyph-name="ecircumflex" unicode="&#xea;" horiz-adv-x="401" 
d="M291 161h70q-6 -84 -46.5 -128.5t-110.5 -44.5q-86 0 -125.5 64t-39.5 202q0 127 43 188t119 61q78 0 120 -57t42 -163q0 -5 -2 -41h-246q0 -102 22 -149t70 -47q38 0 60 30.5t24 84.5zM115 298h175q-2 146 -85 146q-53 0 -78 -62q-11 -28 -12 -84zM208 629l-55 -79h-66
l85 127h71l85 -127h-66z" />
    <glyph glyph-name="edieresis" unicode="&#xeb;" horiz-adv-x="401" 
d="M291 161h70q-6 -84 -46.5 -128.5t-110.5 -44.5q-86 0 -125.5 64t-39.5 202q0 127 43 188t119 61q78 0 120 -57t42 -163q0 -5 -2 -41h-246q0 -102 22 -149t70 -47q38 0 60 30.5t24 84.5zM115 298h175q-2 146 -85 146q-53 0 -78 -62q-11 -28 -12 -84zM171 659v-91h-72v91
h72zM317 659v-91h-72v91h72z" />
    <glyph glyph-name="igrave" unicode="&#xec;" horiz-adv-x="181" 
d="M127 487v-487h-74v487h74zM-27 677h103l51 -126h-61z" />
    <glyph glyph-name="iacute" unicode="&#xed;" horiz-adv-x="181" 
d="M127 487v-487h-74v487h74zM207 677l-93 -126h-61l51 126h103z" />
    <glyph glyph-name="icircumflex" unicode="&#xee;" horiz-adv-x="181" 
d="M128 487v-487h-74v487h74zM91 629l-45 -79h-66l75 127h71l75 -127h-66z" />
    <glyph glyph-name="idieresis" unicode="&#xef;" horiz-adv-x="181" 
d="M128 487v-487h-74v487h74zM70 659v-91h-72v91h72zM184 659v-91h-72v91h72z" />
    <glyph glyph-name="eth" unicode="&#xf0;" horiz-adv-x="420" 
d="M136 555l-25 36l66 44l-33 42l39 30l14.5 -18.5t12.5 -16.5t7 -9l68 46l25 -36l-67 -46q76 -110 107.5 -195.5t31.5 -182.5q0 -127 -44 -195t-127 -68t-127.5 68t-44.5 196q0 124 44 188.5t128 64.5q19 0 47 -6q-20 48 -56 103zM213 445q-96 0 -96 -198q0 -105 22 -152
t72 -47t73 49.5t23 157.5q0 190 -94 190z" />
    <glyph glyph-name="ntilde" unicode="&#xf1;" horiz-adv-x="422" 
d="M53 487h70v-48q49 62 120 62q85 0 113 -68q11 -27 11 -85v-348h-71v341q0 39 -5 59q-6 19 -24.5 30t-43.5 11q-51 0 -86 -51q-14 -19 -14 -35v-355h-70v487zM279 658h47q-2 -40 -22 -65.5t-49 -25.5q-21 0 -86 32q-10 5 -16 5q-17 0 -26 -35h-47q9 89 71 89q19 0 85 -31
q10 -5 16 -5q19 0 27 36z" />
    <glyph glyph-name="ograve" unicode="&#xf2;" horiz-adv-x="420" 
d="M211 503q171 0 171 -247q0 -270 -174 -270q-81 0 -125 68.5t-44 195.5q0 124 44 188.5t128 64.5zM213 445q-96 0 -96 -198q0 -105 22 -152t72 -47t73 49.5t23 157.5q0 190 -94 190zM93 677h106l61 -126h-61z" />
    <glyph glyph-name="oacute" unicode="&#xf3;" horiz-adv-x="420" 
d="M211 503q171 0 171 -247q0 -270 -174 -270q-81 0 -125 68.5t-44 195.5q0 124 44 188.5t128 64.5zM213 445q-96 0 -96 -198q0 -105 22 -152t72 -47t73 49.5t23 157.5q0 190 -94 190zM330 677l-106 -126h-61l61 126h106z" />
    <glyph glyph-name="ocircumflex" unicode="&#xf4;" horiz-adv-x="420" 
d="M211 503q171 0 171 -247q0 -270 -174 -270q-81 0 -125 68.5t-44 195.5q0 124 44 188.5t128 64.5zM213 445q-96 0 -96 -198q0 -105 22 -152t72 -47t73 49.5t23 157.5q0 190 -94 190zM211 629l-55 -79h-66l85 127h71l85 -127h-66z" />
    <glyph glyph-name="otilde" unicode="&#xf5;" horiz-adv-x="420" 
d="M211 503q171 0 171 -247q0 -270 -174 -270q-81 0 -125 68.5t-44 195.5q0 124 44 188.5t128 64.5zM213 445q-96 0 -96 -198q0 -105 22 -152t72 -47t73 49.5t23 157.5q0 190 -94 190zM292 658h47q-2 -40 -22 -65.5t-49 -25.5q-21 0 -86 32q-10 5 -16 5q-17 0 -26 -35h-47
q9 89 71 89q19 0 85 -31q10 -5 16 -5q19 0 27 36z" />
    <glyph glyph-name="odieresis" unicode="&#xf6;" horiz-adv-x="420" 
d="M211 503q171 0 171 -247q0 -270 -174 -270q-81 0 -125 68.5t-44 195.5q0 124 44 188.5t128 64.5zM213 445q-96 0 -96 -198q0 -105 22 -152t72 -47t73 49.5t23 157.5q0 190 -94 190zM174 659v-91h-72v91h72zM320 659v-91h-72v91h72z" />
    <glyph glyph-name="divide" unicode="&#xf7;" horiz-adv-x="471" 
d="M236 535q18 0 31 -13t13 -31t-13 -31t-31 -13t-31 13t-13 31t13 31t31 13zM236 220q18 0 31 -13t13 -31t-13 -31t-31 -13t-31 13t-13 31t13 31t31 13zM63 367h345v-67h-345v67z" />
    <glyph glyph-name="oslash" unicode="&#xf8;" horiz-adv-x="420" 
d="M58 -20l-32 24l46 71q-32 68 -32 172q0 131 49 200q38 55 123 55q67 0 110 -42l39 60l33 -24l-46 -69q34 -72 34 -169q0 -133 -43 -202t-126 -69q-70 0 -116 53zM297 359l-159 -262q28 -48 71 -48q52 0 75 49t23 161q0 56 -10 100zM123 149l156 255q-16 41 -65 41
q-52 0 -74.5 -48t-22.5 -158q0 -50 6 -90z" />
    <glyph glyph-name="ugrave" unicode="&#xf9;" horiz-adv-x="420" 
d="M366 0h-72v50q-45 -61 -114 -61q-45 0 -78 20.5t-43 55.5q-6 18 -6 78v344h75v-337q0 -48 6 -66q6 -16 24.5 -26t41.5 -10q39 0 71 32q23 23 23 57v350h72v-487zM93 677h106l61 -126h-61z" />
    <glyph glyph-name="uacute" unicode="&#xfa;" horiz-adv-x="420" 
d="M366 0h-72v50q-45 -61 -114 -61q-45 0 -78 20.5t-43 55.5q-6 18 -6 78v344h75v-337q0 -48 6 -66q6 -16 24.5 -26t41.5 -10q39 0 71 32q23 23 23 57v350h72v-487zM326 677l-106 -126h-61l61 126h106z" />
    <glyph glyph-name="ucircumflex" unicode="&#xfb;" horiz-adv-x="420" 
d="M366 0h-72v50q-45 -61 -114 -61q-45 0 -78 20.5t-43 55.5q-6 18 -6 78v344h75v-337q0 -48 6 -66q6 -16 24.5 -26t41.5 -10q39 0 71 32q23 23 23 57v350h72v-487zM210 629l-55 -79h-66l85 127h71l85 -127h-66z" />
    <glyph glyph-name="udieresis" unicode="&#xfc;" horiz-adv-x="420" 
d="M366 0h-72v50q-45 -61 -114 -61q-45 0 -78 20.5t-43 55.5q-6 18 -6 78v344h75v-337q0 -48 6 -66q6 -16 24.5 -26t41.5 -10q39 0 71 32q23 23 23 57v350h72v-487zM173 659v-91h-72v91h72zM319 659v-91h-72v91h72z" />
    <glyph glyph-name="yacute" unicode="&#xfd;" horiz-adv-x="405" 
d="M38 -164v62q27 -7 45 -7q32 0 51 22.5t30 73.5l-153 500h79l113 -399l113 399h78l-165 -530q-23 -74 -53.5 -100t-94.5 -26q-17 0 -43 5zM319 677l-106 -126h-61l61 126h106z" />
    <glyph glyph-name="thorn" unicode="&#xfe;" horiz-adv-x="428" 
d="M122 55v-228h-69v840h69v-234q30 68 110 68q155 0 155 -248q0 -127 -40.5 -196t-114.5 -69q-81 0 -110 67zM216 444q-47 0 -71.5 -49t-24.5 -141q0 -102 24.5 -155.5t71.5 -53.5t72 53t25 152q0 194 -97 194z" />
    <glyph glyph-name="ydieresis" unicode="&#xff;" horiz-adv-x="405" 
d="M38 -164v62q27 -7 45 -7q32 0 51 22.5t30 73.5l-153 500h79l113 -399l113 399h78l-165 -530q-23 -74 -53.5 -100t-94.5 -26q-17 0 -43 5zM166 659v-91h-72v91h72zM312 659v-91h-72v91h72z" />
    <glyph glyph-name="Amacron" unicode="&#x100;" horiz-adv-x="516" 
d="M364 194h-215l-54 -194h-83l194 667h98l200 -667h-87zM345 262l-91 343l-89 -343h180zM116 753v65h283v-65h-283z" />
    <glyph glyph-name="amacron" unicode="&#x101;" horiz-adv-x="409" 
d="M393 54v-54q-25 -8 -41 -8q-31 0 -47 16.5t-24 55.5q-23 -39 -42 -52q-37 -25 -91 -25q-56 0 -86.5 35t-30.5 100q0 74 36 107t139 53q45 10 60 23t15 44q0 47 -20.5 68.5t-66.5 21.5q-38 0 -59 -18t-21 -49q0 -11 1 -17h-70q-1 8 -1 22q0 56 41 89t111 33q83 0 120 -34
t37 -110v-250q0 -32 5 -42.5t20 -10.5q3 0 15 2zM281 239v19q-27 -19 -92 -38q-44 -13 -64 -36t-20 -60q0 -35 18.5 -56.5t47.5 -21.5q55 0 88 43q24 31 24 87zM86 580v65h230v-65h-230z" />
    <glyph glyph-name="Abreve" unicode="&#x102;" horiz-adv-x="516" 
d="M364 194h-215l-54 -194h-83l194 667h98l200 -667h-87zM345 262l-91 343l-89 -343h180zM126 843h55q16 -63 76 -63q57 0 78 63h56q-3 -53 -40.5 -86.5t-92.5 -33.5q-58 0 -94 33t-38 87z" />
    <glyph glyph-name="abreve" unicode="&#x103;" horiz-adv-x="409" 
d="M393 54v-54q-25 -8 -41 -8q-31 0 -47 16.5t-24 55.5q-23 -39 -42 -52q-37 -25 -91 -25q-56 0 -86.5 35t-30.5 100q0 74 36 107t139 53q45 10 60 23t15 44q0 47 -20.5 68.5t-66.5 21.5q-38 0 -59 -18t-21 -49q0 -11 1 -17h-70q-1 8 -1 22q0 56 41 89t111 33q83 0 120 -34
t37 -110v-250q0 -32 5 -42.5t20 -10.5q3 0 15 2zM281 239v19q-27 -19 -92 -38q-44 -13 -64 -36t-20 -60q0 -35 18.5 -56.5t47.5 -21.5q55 0 88 43q24 31 24 87zM76 673h53q12 -62 72 -62q57 0 74 62h54q-5 -56 -39 -87.5t-89 -31.5q-56 0 -89.5 32t-35.5 87z" />
    <glyph glyph-name="Aogonek" unicode="&#x104;" horiz-adv-x="516" 
d="M304 667l200 -667q-51 -48 -51 -83q0 -16 12.5 -26.5t31.5 -10.5q13 0 36 5l-7 -47q-21 -5 -38 -5q-38 0 -63 20.5t-25 51.5q0 49 64 95h-47l-53 194h-215l-54 -194h-83l194 667h98zM345 262l-91 343l-89 -343h180z" />
    <glyph glyph-name="aogonek" unicode="&#x105;" horiz-adv-x="409" 
d="M393 54v-54q-22 -18 -36.5 -41t-14.5 -41q0 -16 12 -27t29 -11q8 0 32 5l-7 -47q-19 -5 -35 -5q-37 0 -61 20.5t-24 51.5q0 23 17.5 47.5t44.5 38.5q-32 4 -46.5 19.5t-22.5 53.5q-23 -39 -42 -52q-37 -25 -91 -25q-56 0 -86.5 35t-30.5 100q0 73 36 106t139 54
q45 10 60 23t15 44q0 47 -20.5 68.5t-66.5 21.5q-38 0 -59 -18t-21 -49q0 -11 1 -17h-70q-1 8 -1 22q0 56 41 89t111 33q83 0 120 -34t37 -110v-250q0 -32 5 -42.5t20 -10.5q3 0 15 2zM281 239v19q-27 -19 -92 -38q-44 -13 -64 -36t-20 -60q0 -35 18.5 -56.5t47.5 -21.5
q55 0 88 43q24 31 24 87z" />
    <glyph glyph-name="Cacute" unicode="&#x106;" horiz-adv-x="479" 
d="M374 239h77q-2 -120 -53 -185t-144 -65q-105 0 -157 82q-28 43 -39 99.5t-11 152.5q0 191 54 276q50 79 157 79q104 0 155 -73q31 -44 38 -138h-77q-11 72 -29 98q-29 44 -84 44q-71 0 -101.5 -67t-30.5 -222q0 -142 30 -204.5t98 -62.5t100 75q17 39 17 111zM381 848
l-107 -121h-64l61 121h110z" />
    <glyph glyph-name="cacute" unicode="&#x107;" horiz-adv-x="392" 
d="M293 170h72q-3 -73 -30 -116q-20 -32 -53.5 -50t-73.5 -18q-77 0 -124 61q-45 60 -45 194q0 117 31 180q43 86 138 86q86 0 130 -68q22 -35 27 -99h-72q-5 104 -80 104q-52 0 -74.5 -48t-22.5 -161q0 -98 22 -143t70 -45q47 0 66 40q12 25 19 83zM333 677l-106 -126h-61
l61 126h106z" />
    <glyph glyph-name="Ccaron" unicode="&#x10c;" horiz-adv-x="479" 
d="M374 239h77q-2 -120 -53 -185t-144 -65q-105 0 -157 82q-28 43 -39 99.5t-11 152.5q0 191 54 276q50 79 157 79q104 0 155 -73q31 -44 38 -138h-77q-11 72 -29 98q-29 44 -84 44q-71 0 -101.5 -67t-30.5 -222q0 -142 30 -204.5t98 -62.5t100 75q17 39 17 111zM261 769
l51 79h74l-75 -121h-100l-76 121h74z" />
    <glyph glyph-name="ccaron" unicode="&#x10d;" horiz-adv-x="392" 
d="M293 170h72q-3 -73 -30 -116q-20 -32 -53.5 -50t-73.5 -18q-77 0 -124 61q-45 60 -45 194q0 117 31 180q43 86 138 86q86 0 130 -68q22 -35 27 -99h-72q-5 104 -80 104q-52 0 -74.5 -48t-22.5 -161q0 -98 22 -143t70 -45q47 0 66 40q12 25 19 83zM212 598l54 79h66
l-85 -127h-71l-85 127h66z" />
    <glyph glyph-name="Dcaron" unicode="&#x10e;" horiz-adv-x="506" 
d="M62 0v667h150q81 0 122 -15t69 -54q56 -80 56 -256q0 -211 -79 -292q-29 -29 -59.5 -39.5t-88.5 -10.5h-170zM138 66h83q49 0 73 8.5t42 33.5q20 28 32.5 94t12.5 145q0 148 -44 208q-18 24 -43.5 33.5t-71.5 9.5h-84v-532zM231 769l51 79h74l-75 -121h-100l-76 121h74z
" />
    <glyph glyph-name="dcaron" unicode="&#x10f;" horiz-adv-x="543" 
d="M305 438v229h67v-667h-67v60q-32 -71 -113 -71q-39 0 -71.5 20.5t-50.5 56.5q-31 63 -31 175q0 125 41 194t116 69q33 0 57.5 -15t51.5 -51zM211 444q-24 0 -45.5 -15t-31.5 -38q-19 -48 -19 -143q0 -89 20 -147q19 -53 71 -53t75.5 49.5t23.5 160.5q0 97 -23 141
q-10 20 -30 32.5t-41 12.5zM544 667l-70 -156h-54l41 156h83z" />
    <glyph glyph-name="Dcroat" unicode="&#x110;" horiz-adv-x="506" 
d="M62 0v321h-60v67h60v279h151q80 0 121 -14.5t69 -54.5q56 -79 56 -256q0 -213 -79 -292q-28 -30 -58 -40t-90 -10h-170zM138 66h83q49 0 72 8.5t42 33.5q21 28 33.5 93.5t12.5 145.5q0 148 -44 208q-19 25 -43.5 34t-71.5 9h-84v-210h127v-67h-127v-255z" />
    <glyph glyph-name="dcroat" unicode="&#x111;" horiz-adv-x="435" 
d="M305 438v109h-93v53h93v67h67v-67h60v-53h-60v-547h-67v60q-32 -71 -112 -71q-39 0 -72 20.5t-51 56.5q-31 63 -31 175q0 125 41.5 194t115.5 69q33 0 57.5 -15t51.5 -51zM211 444q-24 0 -45.5 -15t-31.5 -38q-19 -48 -19 -143q0 -89 20 -147q19 -53 71 -53t75.5 49.5
t23.5 160.5q0 97 -23 141q-10 20 -30 32.5t-41 12.5z" />
    <glyph glyph-name="Emacron" unicode="&#x112;" horiz-adv-x="455" 
d="M141 311v-240h275v-71h-354v667h354v-75h-275v-210h262v-71h-262zM97 753v65h283v-65h-283z" />
    <glyph glyph-name="emacron" unicode="&#x113;" horiz-adv-x="401" 
d="M291 161h70q-6 -84 -46.5 -128.5t-110.5 -44.5q-86 0 -125.5 64t-39.5 202q0 127 43 188t119 61q78 0 120 -57t42 -163q0 -5 -2 -41h-246q0 -102 22 -149t70 -47q38 0 60 30.5t24 84.5zM115 298h175q-2 146 -85 146q-53 0 -78 -62q-11 -28 -12 -84zM93 580v65h230v-65
h-230z" />
    <glyph glyph-name="Edotaccent" unicode="&#x116;" horiz-adv-x="455" 
d="M141 311v-240h275v-71h-354v667h354v-75h-275v-210h262v-71h-262zM278 742h-78v86h78v-86z" />
    <glyph glyph-name="edotaccent" unicode="&#x117;" horiz-adv-x="401" 
d="M291 161h70q-6 -84 -46.5 -128.5t-110.5 -44.5q-86 0 -125.5 64t-39.5 202q0 127 43 188t119 61q78 0 120 -57t42 -163q0 -5 -2 -41h-246q0 -102 22 -149t70 -47q38 0 60 30.5t24 84.5zM115 298h175q-2 146 -85 146q-53 0 -78 -62q-11 -28 -12 -84zM243 659v-91h-72v91
h72z" />
    <glyph glyph-name="Eogonek" unicode="&#x118;" horiz-adv-x="455" 
d="M416 71v-71q-50 -47 -50 -83q0 -16 12.5 -26.5t30.5 -10.5q14 0 35 5l-6 -47q-21 -5 -38 -5q-38 0 -63 20.5t-25 51.5q0 49 64 95h-314v667h354v-75h-275v-210h262v-71h-262v-240h275z" />
    <glyph glyph-name="eogonek" unicode="&#x119;" horiz-adv-x="401" 
d="M334 -109l-7 -47q-20 -5 -38 -5q-38 0 -63 20t-25 51q0 43 52 85q-22 -8 -45 -8q-89 0 -129 63.5t-40 203.5q0 127 43 188t119 61q78 0 120 -57t42 -163q0 -5 -2 -41h-246q0 -103 22 -150t70 -47q38 0 60 30.5t24 85.5h70q-3 -46 -17 -79t-49 -77q-41 -53 -41 -80
q0 -17 12.5 -28t31.5 -11q15 0 36 5zM115 298h175q-2 146 -85 146q-53 0 -78 -62q-11 -28 -12 -84z" />
    <glyph glyph-name="Ecaron" unicode="&#x11a;" horiz-adv-x="455" 
d="M141 311v-240h275v-71h-354v667h354v-75h-275v-210h262v-71h-262zM239 769l51 79h74l-75 -121h-100l-76 121h74z" />
    <glyph glyph-name="ecaron" unicode="&#x11b;" horiz-adv-x="401" 
d="M291 161h70q-6 -84 -46.5 -128.5t-110.5 -44.5q-86 0 -125.5 64t-39.5 202q0 127 43 188t119 61q78 0 120 -57t42 -163q0 -5 -2 -41h-246q0 -102 22 -149t70 -47q38 0 60 30.5t24 84.5zM115 298h175q-2 146 -85 146q-53 0 -78 -62q-11 -28 -12 -84zM208 598l54 79h66
l-85 -127h-71l-85 127h66z" />
    <glyph glyph-name="Gbreve" unicode="&#x11e;" horiz-adv-x="508" 
d="M453 347v-347h-62v72q-56 -83 -144 -83q-58 0 -101 30t-65 85q-34 89 -34 246q0 167 50.5 247.5t155.5 80.5q52 0 95 -22t68 -61q27 -45 30 -124h-84q0 37 -7 62q-25 76 -100 76q-65 0 -95.5 -64.5t-30.5 -200.5q0 -142 29 -215q13 -34 40.5 -54t61.5 -20q74 0 104 85
q12 33 13 138h-136v69h212zM128 843h55q17 -63 76 -63q57 0 78 63h56q-3 -53 -40.5 -86.5t-92.5 -33.5q-58 0 -94 33t-38 87z" />
    <glyph glyph-name="gbreve" unicode="&#x11f;" horiz-adv-x="423" 
d="M300 446v41h70v-487q0 -79 -45.5 -124t-125.5 -45q-134 0 -151 120h78q0 -29 20 -45t56 -16q47 0 72.5 28.5t25.5 81.5v51q-11 -25 -41 -41.5t-66 -16.5q-78 0 -117 62q-38 58 -38 190q0 133 39 190q20 29 52 46t67 17q61 0 104 -52zM205 437q-50 0 -73 -50
q-18 -36 -18 -137q0 -116 25 -161q22 -39 66 -39q25 0 46.5 14.5t30.5 37.5q20 49 20 154q0 81 -15 119q-11 28 -33.5 45t-48.5 17zM95 673h53q12 -62 72 -62q57 0 74 62h54q-5 -56 -39 -87.5t-89 -31.5q-56 0 -89.5 32t-35.5 87z" />
    <glyph glyph-name="Gcommaaccent" unicode="&#x122;" horiz-adv-x="508" 
d="M453 347v-347h-62v72q-56 -83 -144 -83q-58 0 -101 30t-65 85q-34 89 -34 246q0 167 50.5 247.5t155.5 80.5q52 0 95 -22t68 -61q27 -45 30 -124h-84q0 37 -7 62q-25 76 -100 76q-65 0 -95.5 -64.5t-30.5 -200.5q0 -142 29 -215q13 -34 40.5 -54t61.5 -20q74 0 104 85
q12 33 13 138h-136v69h212zM306 -67l-73 -135h-64l41 135h96z" />
    <glyph glyph-name="gcommaaccent" unicode="&#x123;" horiz-adv-x="423" 
d="M300 446v41h70v-487q0 -79 -45.5 -124t-125.5 -45q-134 0 -151 120h78q0 -29 20 -45t56 -16q47 0 72.5 28.5t25.5 81.5v51q-11 -25 -41 -41.5t-66 -16.5q-78 0 -117 62q-38 58 -38 190q0 133 39 190q20 29 52 46t67 17q61 0 104 -52zM205 437q-50 0 -73 -50
q-18 -36 -18 -137q0 -116 25 -161q22 -39 66 -39q25 0 46.5 14.5t30.5 37.5q20 49 20 154q0 81 -15 119q-11 28 -33.5 45t-48.5 17zM148 551l106 126h61l-61 -126h-106z" />
    <glyph glyph-name="Imacron" unicode="&#x12a;" horiz-adv-x="212" 
d="M142 667v-667h-74v667h74zM4 753v65h203v-65h-203z" />
    <glyph glyph-name="imacron" unicode="&#x12b;" horiz-adv-x="181" 
d="M127 487v-487h-74v487h74zM-5 580v65h190v-65h-190z" />
    <glyph glyph-name="Iogonek" unicode="&#x12e;" horiz-adv-x="212" 
d="M143 667v-667q-15 -15 -29 -42t-14 -42t12 -25.5t29 -10.5q7 0 31 5l-7 -47q-19 -5 -35 -5q-36 0 -60 20.5t-24 51.5q0 41 60 95h-38v667h75z" />
    <glyph glyph-name="iogonek" unicode="&#x12f;" horiz-adv-x="181" 
d="M156 -115l-6 -47q-19 -5 -32 -5q-33 0 -57 20.5t-24 49.5q0 39 54 97h-38v487h74v-487q-14 -16 -25.5 -41t-11.5 -40q0 -17 11.5 -28.5t27.5 -11.5q6 0 18 3q3 2 9 3zM127 667v-90h-74v90h74z" />
    <glyph glyph-name="Idotaccent" unicode="&#x130;" horiz-adv-x="212" 
d="M143 667v-667h-74v667h74zM145 742h-78v86h78v-86z" />
    <glyph glyph-name="dotlessi" unicode="&#x131;" horiz-adv-x="181" 
d="M127 487v-487h-74v487h74z" />
    <glyph glyph-name="Kcommaaccent" unicode="&#x136;" horiz-adv-x="489" 
d="M138 230v-230h-76v667h76v-333l240 333h92l-211 -279l218 -388h-91l-177 322zM296 -67l-73 -135h-64l41 135h96z" />
    <glyph glyph-name="kcommaaccent" unicode="&#x137;" horiz-adv-x="418" 
d="M126 168v-168h-73v667h73v-400l188 220h88l-164 -185l173 -302h-90l-136 241zM265 -60l-66 -146h-61l41 146h86z" />
    <glyph glyph-name="Lacute" unicode="&#x139;" horiz-adv-x="432" 
d="M139 74h271v-74h-348v667h77v-593zM235 848l-107 -121h-64l61 121h110z" />
    <glyph glyph-name="lacute" unicode="&#x13a;" horiz-adv-x="180" 
d="M126 0h-73v667h73v-667zM212 848l-97 -121h-64l54 121h107z" />
    <glyph glyph-name="Lcommaaccent" unicode="&#x13b;" horiz-adv-x="432" 
d="M139 74h271v-74h-348v667h77v-593zM267 -67l-73 -135h-64l41 135h96z" />
    <glyph glyph-name="lcommaaccent" unicode="&#x13c;" horiz-adv-x="180" 
d="M126 0h-73v667h73v-667zM140 -60l-66 -146h-61l41 146h86z" />
    <glyph glyph-name="Lcaron" unicode="&#x13d;" horiz-adv-x="432" 
d="M139 74h271v-74h-348v667h77v-593zM351 667l-73 -155h-51l34 155h90z" />
    <glyph glyph-name="lcaron" unicode="&#x13e;" horiz-adv-x="288" 
d="M126 0h-73v667h73v-667zM294 667l-70 -156h-54l41 156h83z" />
    <glyph glyph-name="Lslash" unicode="&#x141;" horiz-adv-x="432" 
d="M62 253l-60 -55v83l60 54v332h77v-283l130 111v-82l-130 -111v-228h271v-74h-348v253z" />
    <glyph glyph-name="lslash" unicode="&#x142;" horiz-adv-x="228" 
d="M78 300l-61 -57v70l61 57v297h73v-249l60 55v-70l-60 -55v-348h-73v300z" />
    <glyph glyph-name="Nacute" unicode="&#x143;" horiz-adv-x="522" 
d="M460 667v-667h-106l-212 552v-552h-80v667h103l216 -546v546h79zM383 848l-107 -121h-64l61 121h110z" />
    <glyph glyph-name="nacute" unicode="&#x144;" horiz-adv-x="422" 
d="M53 487h70v-48q49 62 120 62q85 0 113 -68q11 -27 11 -85v-348h-71v341q0 39 -5 59q-6 19 -24.5 30t-43.5 11q-51 0 -86 -51q-14 -19 -14 -35v-355h-70v487zM321 677l-106 -126h-61l61 126h106z" />
    <glyph glyph-name="Ncommaaccent" unicode="&#x145;" horiz-adv-x="522" 
d="M460 667v-667h-106l-212 552v-552h-80v667h103l216 -546v546h79zM313 -67l-73 -135h-64l41 135h96z" />
    <glyph glyph-name="ncommaaccent" unicode="&#x146;" horiz-adv-x="422" 
d="M53 487h70v-48q49 62 120 62q85 0 113 -68q11 -27 11 -85v-348h-71v341q0 39 -5 59q-6 19 -24.5 30t-43.5 11q-51 0 -86 -51q-14 -19 -14 -35v-355h-70v487zM254 -60l-66 -146h-61l41 146h86z" />
    <glyph glyph-name="Ncaron" unicode="&#x147;" horiz-adv-x="522" 
d="M460 667v-667h-106l-212 552v-552h-80v667h103l216 -546v546h79zM262 769l51 79h74l-75 -121h-100l-76 121h74z" />
    <glyph glyph-name="ncaron" unicode="&#x148;" horiz-adv-x="422" 
d="M53 487h70v-48q49 62 120 62q85 0 113 -68q11 -27 11 -85v-348h-71v341q0 39 -5 59q-6 19 -24.5 30t-43.5 11q-51 0 -86 -51q-14 -19 -14 -35v-355h-70v487zM203 598l54 79h66l-85 -127h-71l-85 127h66z" />
    <glyph glyph-name="Omacron" unicode="&#x14c;" horiz-adv-x="505" 
d="M254 678q107 0 159 -85q46 -75 46 -231q0 -179 -36 -268q-45 -105 -172 -105q-52 0 -95 25t-66 68q-43 85 -43 258q0 167 44 246q23 43 66.5 67.5t96.5 24.5zM255 612q-69 0 -98.5 -65t-29.5 -219q0 -144 30.5 -210.5t96.5 -66.5q71 0 98 68q28 66 28 219q0 149 -32 218
q-13 26 -38 41t-55 15zM111 753v65h283v-65h-283z" />
    <glyph glyph-name="omacron" unicode="&#x14d;" horiz-adv-x="420" 
d="M211 503q171 0 171 -247q0 -270 -174 -270q-81 0 -125 68.5t-44 195.5q0 124 44 188.5t128 64.5zM213 445q-96 0 -96 -198q0 -105 22 -152t72 -47t73 49.5t23 157.5q0 190 -94 190zM96 580v65h230v-65h-230z" />
    <glyph glyph-name="Ohungarumlaut" unicode="&#x150;" horiz-adv-x="505" 
d="M254 678q107 0 159 -85q46 -75 46 -231q0 -179 -36 -268q-45 -105 -172 -105q-52 0 -95 25t-66 68q-43 85 -43 258q0 167 44 246q23 43 66.5 67.5t96.5 24.5zM255 612q-69 0 -98.5 -65t-29.5 -219q0 -144 30.5 -210.5t96.5 -66.5q71 0 98 68q28 66 28 219q0 149 -32 218
q-13 26 -38 41t-55 15zM316 848l-103 -121h-51l61 121h93zM450 848l-104 -121h-51l61 121h94z" />
    <glyph glyph-name="ohungarumlaut" unicode="&#x151;" horiz-adv-x="420" 
d="M211 503q171 0 171 -247q0 -270 -174 -270q-81 0 -125 68.5t-44 195.5q0 124 44 188.5t128 64.5zM213 445q-96 0 -96 -198q0 -105 22 -152t72 -47t73 49.5t23 157.5q0 190 -94 190zM272 677l-99 -126h-44l56 126h87zM392 677l-100 -126h-43l56 126h87z" />
    <glyph glyph-name="OE" unicode="&#x152;" horiz-adv-x="768" 
d="M461 312v-244h268v-68h-340v68q-45 -79 -138 -79q-204 0 -204 347q0 166 50 254t145 88q57 0 102 -34q21 -17 45 -51v74h325v-74h-253v-212h253v-69h-253zM260 611q-68 0 -100 -65.5t-32 -207.5q0 -149 33 -221q14 -31 41.5 -50t58.5 -19q71 0 103 66q15 32 20 75t5 138
q0 164 -26 219q-13 30 -41 47.5t-62 17.5z" />
    <glyph glyph-name="oe" unicode="&#x153;" horiz-adv-x="643" 
d="M532 157h72q-8 -86 -48 -130.5t-110 -44.5q-53 0 -87 28q-18 16 -29 50q-40 -78 -121 -78q-84 0 -126 64q-41 64 -41 198q0 124 36 187q41 72 129 72q82 0 126 -68q23 38 47.5 52.5t64.5 14.5q52 0 90.5 -30.5t54.5 -84.5q14 -50 14 -149h-237q-1 -16 -1 -36
q0 -159 82 -159q38 0 61 29.5t23 77.5v7zM526 292v26q0 121 -80 121q-43 0 -63 -40q-11 -23 -15 -84l-1 -23h159zM209 441q-28 0 -48.5 -17.5t-28.5 -48.5q-14 -56 -14 -132q0 -99 22 -152q19 -47 69 -47q51 0 70.5 46t19.5 167q0 99 -19 136q-23 48 -71 48z" />
    <glyph glyph-name="Racute" unicode="&#x154;" horiz-adv-x="494" 
d="M137 297v-297h-75v667h160q94 0 129 -19q39 -20 62 -63t23 -96q0 -85 -51 -131q-22 -20 -74 -26q41 -5 60.5 -15t35.5 -35q13 -22 17.5 -60t8.5 -147q0 -55 28 -60v-15h-93q-14 29 -15 109q-1 66 -5.5 100t-20.5 55.5t-40 27t-71 5.5h-79zM137 361h81q67 0 93 17
q46 31 46 103q0 88 -65 108q-20 7 -79 7h-76v-235zM354 848l-107 -121h-64l61 121h110z" />
    <glyph glyph-name="racute" unicode="&#x155;" horiz-adv-x="262" 
d="M243 497v-72h-19q-70 0 -92 -66q-7 -21 -7 -91v-268h-72v487h72v-64q42 74 107 74h11zM261 677l-106 -126h-61l61 126h106z" />
    <glyph glyph-name="Rcommaaccent" unicode="&#x156;" horiz-adv-x="494" 
d="M137 297v-297h-75v667h160q94 0 129 -19q39 -20 62 -63t23 -96q0 -85 -51 -131q-22 -20 -74 -26q41 -5 60.5 -15t35.5 -35q13 -22 17.5 -60t8.5 -147q0 -55 28 -60v-15h-93q-14 29 -15 109q-1 66 -5.5 100t-20.5 55.5t-40 27t-71 5.5h-79zM137 361h81q67 0 93 17
q46 31 46 103q0 88 -65 108q-20 7 -79 7h-76v-235zM299 -67l-73 -135h-64l41 135h96z" />
    <glyph glyph-name="rcommaaccent" unicode="&#x157;" horiz-adv-x="262" 
d="M241 497v-72h-19q-70 0 -92 -66q-7 -21 -7 -91v-268h-72v487h72v-64q42 74 107 74h11zM134 -60l-66 -146h-61l41 146h86z" />
    <glyph glyph-name="Rcaron" unicode="&#x158;" horiz-adv-x="494" 
d="M137 297v-297h-75v667h160q94 0 129 -19q39 -20 62 -63t23 -96q0 -85 -51 -131q-22 -20 -74 -26q41 -5 60.5 -15t35.5 -35q13 -22 17.5 -60t8.5 -147q0 -55 28 -60v-15h-93q-14 29 -15 109q-1 66 -5.5 100t-20.5 55.5t-40 27t-71 5.5h-79zM137 361h81q67 0 93 17
q46 31 46 103q0 88 -65 108q-20 7 -79 7h-76v-235zM235 769l51 79h74l-75 -121h-100l-76 121h74z" />
    <glyph glyph-name="rcaron" unicode="&#x159;" horiz-adv-x="262" 
d="M243 497v-72h-19q-70 0 -92 -66q-7 -21 -7 -91v-268h-72v487h72v-64q42 74 107 74h11zM131 598l54 79h66l-85 -127h-71l-85 127h66z" />
    <glyph glyph-name="Sacute" unicode="&#x15a;" horiz-adv-x="479" 
d="M33 210h79q2 -52 7 -75.5t19 -40.5q32 -41 95 -41t97 33t34 94q0 49 -27 74.5t-106 51.5q-67 22 -94 34.5t-46 29.5q-42 39 -42 121q0 88 50.5 137.5t139.5 49.5q84 0 134.5 -46t50.5 -123q0 -11 -1 -20h-77q2 20 2 23q0 44 -32 74q-26 25 -77 25q-55 0 -84 -29t-29 -84
q0 -51 30 -76q18 -15 105 -44q95 -31 127 -57q54 -41 54 -132q0 -93 -56 -146.5t-153 -53.5q-59 0 -105 23t-69 63t-26 135zM360 848l-107 -121h-64l61 121h110z" />
    <glyph glyph-name="sacute" unicode="&#x15b;" horiz-adv-x="382" 
d="M34 136h65v-12q0 -84 92 -84q46 0 70.5 21.5t24.5 61.5q0 39 -21 60q-15 14 -74 30q-63 17 -82 25t-35 23q-34 32 -34 96q0 70 45 108q45 36 109 36q84 0 124 -56q23 -32 24 -88h-71q-3 43 -14 57q-20 25 -62 25q-40 0 -63.5 -20.5t-23.5 -54.5t21 -52q14 -13 78 -31
q56 -16 74 -24t35 -23q40 -33 40 -99q0 -72 -44.5 -113.5t-122.5 -41.5q-75 0 -115.5 35t-40.5 100q0 13 1 21zM318 677l-106 -126h-61l61 126h106z" />
    <glyph glyph-name="Scedilla" unicode="&#x15e;" horiz-adv-x="479" 
d="M235 -11l-31 -44q13 4 31 4q32 0 53 -18t21 -45q0 -33 -29 -54.5t-74 -21.5q-36 0 -80 17l11 26q34 -13 59 -13q24 0 39.5 12.5t15.5 30.5q0 16 -12 26.5t-31 10.5q-17 0 -39 -10l-12 13l46 68q-90 13 -130 64.5t-40 154.5h79q2 -52 7 -75.5t19 -40.5q32 -41 95 -41
t97 33t34 94q0 49 -27 74.5t-106 51.5q-110 36 -140 64q-42 39 -42 121q0 88 50.5 137.5t139.5 49.5q84 0 134.5 -46t50.5 -123q0 -11 -1 -20h-77q2 20 2 23q0 44 -32 74q-26 25 -77 25q-55 0 -84 -29t-29 -84q0 -51 30 -76q21 -17 105 -44q93 -31 127 -57q54 -41 54 -132
q0 -93 -54.5 -145.5t-152.5 -54.5z" />
    <glyph glyph-name="Scedilla" unicode="&#xf6c1;" horiz-adv-x="479" 
d="M235 -11l-31 -44q13 4 31 4q32 0 53 -18t21 -45q0 -33 -29 -54.5t-74 -21.5q-36 0 -80 17l11 26q34 -13 59 -13q24 0 39.5 12.5t15.5 30.5q0 16 -12 26.5t-31 10.5q-17 0 -39 -10l-12 13l46 68q-90 13 -130 64.5t-40 154.5h79q2 -52 7 -75.5t19 -40.5q32 -41 95 -41
t97 33t34 94q0 49 -27 74.5t-106 51.5q-110 36 -140 64q-42 39 -42 121q0 88 50.5 137.5t139.5 49.5q84 0 134.5 -46t50.5 -123q0 -11 -1 -20h-77q2 20 2 23q0 44 -32 74q-26 25 -77 25q-55 0 -84 -29t-29 -84q0 -51 30 -76q21 -17 105 -44q93 -31 127 -57q54 -41 54 -132
q0 -93 -54.5 -145.5t-152.5 -54.5z" />
    <glyph glyph-name="scedilla" unicode="&#x15f;" horiz-adv-x="382" 
d="M190 -19l-26 -36q20 4 31 4q32 0 53 -18t21 -45q0 -33 -29 -54.5t-74 -21.5q-36 0 -79 17l11 26q34 -13 59 -13q23 0 38.5 12.5t15.5 30.5q0 16 -12 26.5t-30 10.5q-21 0 -40 -10l-12 13l41 60q-125 14 -125 132q0 13 1 21h65v-12q0 -83 92 -83q46 0 70.5 21.5t24.5 61.5
t-21 59q-15 14 -74 31q-61 16 -81 24.5t-36 23.5q-34 32 -34 95q0 72 45 108t109 36q84 0 124 -56q23 -32 24 -88h-71q-3 43 -14 57q-20 25 -62 25q-40 0 -63.5 -20.5t-23.5 -54.5t21 -52q13 -12 78 -31q57 -17 74.5 -24.5t34.5 -21.5q40 -34 40 -100q0 -72 -43.5 -112.5
t-122.5 -41.5z" />
    <glyph glyph-name="scedilla" unicode="&#xf6c2;" horiz-adv-x="382" 
d="M190 -19l-26 -36q20 4 31 4q32 0 53 -18t21 -45q0 -33 -29 -54.5t-74 -21.5q-36 0 -79 17l11 26q34 -13 59 -13q23 0 38.5 12.5t15.5 30.5q0 16 -12 26.5t-30 10.5q-21 0 -40 -10l-12 13l41 60q-125 14 -125 132q0 13 1 21h65v-12q0 -83 92 -83q46 0 70.5 21.5t24.5 61.5
t-21 59q-15 14 -74 31q-61 16 -81 24.5t-36 23.5q-34 32 -34 95q0 72 45 108t109 36q84 0 124 -56q23 -32 24 -88h-71q-3 43 -14 57q-20 25 -62 25q-40 0 -63.5 -20.5t-23.5 -54.5t21 -52q13 -12 78 -31q57 -17 74.5 -24.5t34.5 -21.5q40 -34 40 -100q0 -72 -43.5 -112.5
t-122.5 -41.5z" />
    <glyph glyph-name="Scaron" unicode="&#x160;" horiz-adv-x="479" 
d="M33 210h79q2 -52 7 -75.5t19 -40.5q32 -41 95 -41t97 33t34 94q0 49 -27 74.5t-106 51.5q-67 22 -94 34.5t-46 29.5q-42 39 -42 121q0 88 50.5 137.5t139.5 49.5q84 0 134.5 -46t50.5 -123q0 -11 -1 -20h-77q2 20 2 23q0 44 -32 74q-26 25 -77 25q-55 0 -84 -29t-29 -84
q0 -51 30 -76q18 -15 105 -44q95 -31 127 -57q54 -41 54 -132q0 -93 -56 -146.5t-153 -53.5q-59 0 -105 23t-69 63t-26 135zM241 769l51 79h74l-75 -121h-100l-76 121h74z" />
    <glyph glyph-name="scaron" unicode="&#x161;" horiz-adv-x="382" 
d="M34 136h65v-12q0 -84 92 -84q46 0 70.5 21.5t24.5 61.5q0 39 -21 60q-15 14 -74 30q-63 17 -82 25t-35 23q-34 32 -34 96q0 70 45 108q45 36 109 36q84 0 124 -56q23 -32 24 -88h-71q-3 43 -14 57q-20 25 -62 25q-40 0 -63.5 -20.5t-23.5 -54.5t21 -52q14 -13 78 -31
q56 -16 74 -24t35 -23q40 -33 40 -99q0 -72 -44.5 -113.5t-122.5 -41.5q-75 0 -115.5 35t-40.5 100q0 13 1 21zM198 598l54 79h66l-85 -127h-71l-85 127h66z" />
    <glyph glyph-name="Tcommaaccent" unicode="&#x162;" horiz-adv-x="452" 
d="M268 595v-595h-81v595h-165v72h408v-72h-162zM278 -67l-73 -135h-64l41 135h96z" />
    <glyph glyph-name="Tcommaaccent" unicode="&#x21a;" horiz-adv-x="452" 
d="M268 595v-595h-81v595h-165v72h408v-72h-162zM278 -67l-73 -135h-64l41 135h96z" />
    <glyph glyph-name="tcommaaccent" unicode="&#x163;" horiz-adv-x="241" 
d="M143 430v-316q0 -37 8.5 -49t33.5 -12q8 0 26 2v-61q-11 -1 -27 -1q-62 0 -86.5 21.5t-24.5 74.5v341h-67v57h67v134h70v-134h79v-57h-79zM190 -60l-66 -146h-61l41 146h86z" />
    <glyph glyph-name="tcommaaccent" unicode="&#x21b;" horiz-adv-x="241" 
d="M143 430v-316q0 -37 8.5 -49t33.5 -12q8 0 26 2v-61q-11 -1 -27 -1q-62 0 -86.5 21.5t-24.5 74.5v341h-67v57h67v134h70v-134h79v-57h-79zM190 -60l-66 -146h-61l41 146h86z" />
    <glyph glyph-name="Tcaron" unicode="&#x164;" horiz-adv-x="452" 
d="M268 595v-595h-81v595h-165v72h408v-72h-162zM227 769l51 79h74l-75 -121h-100l-76 121h74z" />
    <glyph glyph-name="tcaron" unicode="&#x165;" horiz-adv-x="290" 
d="M143 430v-316q0 -37 8.5 -49t33.5 -12q8 0 26 2v-61q-11 -1 -27 -1q-62 0 -86.5 21.5t-24.5 74.5v341h-67v57h67v134h70v-134h79v-57h-79zM309 720l-70 -156h-54l41 156h83z" />
    <glyph glyph-name="Umacron" unicode="&#x16a;" horiz-adv-x="501" 
d="M445 667v-456q0 -58 -5.5 -87.5t-21.5 -52.5q-51 -80 -166 -80q-128 0 -176 98q-19 41 -19 122v456h82v-458q0 -70 16 -99q27 -53 96 -53q75 0 101 62q11 29 11 90v458h82zM109 753v65h283v-65h-283z" />
    <glyph glyph-name="umacron" unicode="&#x16b;" horiz-adv-x="420" 
d="M366 0h-72v50q-45 -61 -114 -61q-45 0 -78 20.5t-43 55.5q-6 18 -6 78v344h75v-337q0 -48 6 -66q6 -16 24.5 -26t41.5 -10q39 0 71 32q23 23 23 57v350h72v-487zM95 580v65h230v-65h-230z" />
    <glyph glyph-name="Uring" unicode="&#x16e;" horiz-adv-x="501" 
d="M445 667v-456q0 -58 -5.5 -87.5t-21.5 -52.5q-51 -80 -166 -80q-128 0 -176 98q-19 41 -19 122v456h82v-458q0 -70 16 -99q27 -53 96 -53q75 0 101 62q11 29 11 90v458h82zM251 866q33 0 56 -23t23 -57q0 -32 -23.5 -55t-55.5 -23t-55.5 23.5t-23.5 55.5t23.5 55.5
t55.5 23.5zM251 825q-16 0 -27 -11t-11 -27t11 -27t27 -11t27 11t11 27t-11 27t-27 11z" />
    <glyph glyph-name="uring" unicode="&#x16f;" horiz-adv-x="420" 
d="M366 0h-72v50q-45 -61 -114 -61q-45 0 -78 20.5t-43 55.5q-6 18 -6 78v344h75v-337q0 -48 6 -66q6 -16 24.5 -26t41.5 -10q39 0 71 32q23 23 23 57v350h72v-487zM209 699q33 0 56 -23t23 -57q0 -32 -23.5 -55t-55.5 -23t-55.5 23.5t-23.5 55.5t23.5 55.5t55.5 23.5z
M209 658q-16 0 -27 -11t-11 -27t11 -27t27 -11q15 0 26.5 11t11.5 26q0 16 -11 27.5t-27 11.5z" />
    <glyph glyph-name="Uhungarumlaut" unicode="&#x170;" horiz-adv-x="501" 
d="M445 667v-456q0 -58 -5.5 -87.5t-21.5 -52.5q-51 -80 -166 -80q-128 0 -176 98q-19 41 -19 122v456h82v-458q0 -70 16 -99q27 -53 96 -53q75 0 101 62q11 29 11 90v458h82zM308 848l-103 -121h-51l61 121h93zM442 848l-104 -121h-51l61 121h94z" />
    <glyph glyph-name="uhungarumlaut" unicode="&#x171;" horiz-adv-x="420" 
d="M366 0h-72v50q-45 -61 -114 -61q-45 0 -78 20.5t-43 55.5q-6 18 -6 78v344h75v-337q0 -48 6 -66q6 -16 24.5 -26t41.5 -10q39 0 71 32q23 23 23 57v350h72v-487zM267 677l-99 -126h-44l56 126h87zM387 677l-100 -126h-43l56 126h87z" />
    <glyph glyph-name="Uogonek" unicode="&#x172;" horiz-adv-x="501" 
d="M397 -115l-6 -47q-21 -5 -39 -5q-38 0 -62.5 20t-24.5 52q0 43 64 97q-42 -11 -77 -11q-128 0 -176 92q-19 38 -19 115v469h82v-458q0 -71 16 -99q27 -53 96 -53q75 0 101 62q11 26 11 90v458h82v-463q0 -74 -16 -114t-68 -92q-43 -46 -43 -79q0 -39 48 -39q15 0 31 5z
" />
    <glyph glyph-name="uogonek" unicode="&#x173;" horiz-adv-x="420" 
d="M394 -115l-6 -47q-21 -5 -38 -5q-38 0 -63 20t-25 51q0 23 18 52q5 6 38 36q2 1 9 8h-33v50q-45 -61 -114 -61q-45 0 -78 20.5t-43 54.5q-6 18 -6 73v350h75v-350q0 -46 12 -64q18 -25 60 -25q39 0 71 32q23 23 23 57v350h72v-487q-51 -48 -51 -83q0 -16 12.5 -26.5
t31.5 -10.5q14 0 35 5z" />
    <glyph glyph-name="Ydieresis" unicode="&#x178;" horiz-adv-x="481" 
d="M284 261v-261h-78v256l-197 411h90l146 -326l139 326h89zM203 742h-78v86h78v-86zM356 742h-78v86h78v-86z" />
    <glyph glyph-name="Zacute" unicode="&#x179;" horiz-adv-x="466" 
d="M433 71v-71h-408v65l313 528h-299v74h386v-69l-314 -527h322zM351 848l-107 -121h-64l61 121h110z" />
    <glyph glyph-name="zacute" unicode="&#x17a;" horiz-adv-x="355" 
d="M329 61v-61h-304v61l217 367h-207v59h288v-59l-213 -367h219zM297 677l-106 -126h-61l61 126h106z" />
    <glyph glyph-name="Zdotaccent" unicode="&#x17b;" horiz-adv-x="466" 
d="M433 71v-71h-408v65l313 528h-299v74h386v-69l-314 -527h322zM268 742h-78v86h78v-86z" />
    <glyph glyph-name="zdotaccent" unicode="&#x17c;" horiz-adv-x="355" 
d="M329 61v-61h-304v61l217 367h-207v59h288v-59l-213 -367h219zM213 659v-91h-72v91h72z" />
    <glyph glyph-name="Zcaron" unicode="&#x17d;" horiz-adv-x="466" 
d="M433 71v-71h-408v65l313 528h-299v74h386v-69l-314 -527h322zM230 769l51 79h74l-75 -121h-100l-76 121h74z" />
    <glyph glyph-name="zcaron" unicode="&#x17e;" horiz-adv-x="355" 
d="M329 61v-61h-304v61l217 367h-207v59h288v-59l-213 -367h219zM177 598l54 79h66l-85 -127h-71l-85 127h66z" />
    <glyph glyph-name="florin" unicode="&#x192;" horiz-adv-x="471" 
d="M312 532h83l-11 -53h-82l-79 -407q-26 -194 -221 -214l11 60q64 8 100 48t48 115l76 398h-84l10 53h85l6 37q24 157 181 171l-11 -60q-47 -6 -72 -32.5t-34 -78.5z" />
    <glyph glyph-name="Scommaaccent" unicode="&#x218;" horiz-adv-x="479" 
d="M33 210h79q2 -52 7 -75.5t19 -40.5q32 -41 95 -41t97 33t34 94q0 49 -27 74.5t-106 51.5q-67 22 -94 34.5t-46 29.5q-42 39 -42 121q0 88 50.5 137.5t139.5 49.5q84 0 134.5 -46t50.5 -123q0 -11 -1 -20h-77q2 20 2 23q0 44 -32 74q-26 25 -77 25q-55 0 -84 -29t-29 -84
q0 -51 30 -76q18 -15 105 -44q95 -31 127 -57q54 -41 54 -132q0 -93 -56 -146.5t-153 -53.5q-59 0 -105 23t-69 63t-26 135zM284 -67l-73 -135h-64l41 135h96z" />
    <glyph glyph-name="scommaaccent" unicode="&#x219;" horiz-adv-x="382" 
d="M34 136h65v-12q0 -84 92 -84q46 0 70.5 21.5t24.5 61.5q0 39 -21 60q-15 14 -74 30q-63 17 -82 25t-35 23q-34 32 -34 96q0 70 45 108q45 36 109 36q84 0 124 -56q23 -32 24 -88h-71q-3 43 -14 57q-20 25 -62 25q-40 0 -63.5 -20.5t-23.5 -54.5t21 -52q14 -13 78 -31
q56 -16 74 -24t35 -23q40 -33 40 -99q0 -72 -44.5 -113.5t-122.5 -41.5q-75 0 -115.5 35t-40.5 100q0 13 1 21zM241 -60l-66 -146h-61l41 146h86z" />
    <glyph glyph-name="circumflex" unicode="&#x2c6;" 
d="M250 629l-55 -79h-66l85 127h71l85 -127h-66z" />
    <glyph glyph-name="caron" unicode="&#x2c7;" 
d="M250 598l54 79h66l-85 -127h-71l-85 127h66z" />
    <glyph glyph-name="breve" unicode="&#x2d8;" 
d="M124 673h53q12 -62 72 -62q57 0 74 62h54q-5 -56 -39 -87.5t-89 -31.5q-56 0 -89.5 32t-35.5 87z" />
    <glyph glyph-name="dotaccent" unicode="&#x2d9;" 
d="M286 659v-91h-72v91h72z" />
    <glyph glyph-name="ring" unicode="&#x2da;" 
d="M250 699q33 0 56 -23t23 -57q0 -32 -23.5 -55t-55.5 -23t-55.5 23.5t-23.5 55.5t23.5 55.5t55.5 23.5zM250 658q-16 0 -27 -11t-11 -27t11 -27t27 -11q15 0 26.5 11t11.5 26q0 16 -11 27.5t-27 11.5z" />
    <glyph glyph-name="ogonek" unicode="&#x2db;" 
d="M377 0h44q-51 -48 -51 -83q0 -16 12.5 -26.5t31.5 -10.5q14 0 35 5l-6 -47q-21 -5 -38 -5q-38 0 -63 20.5t-25 51.5q0 25 19 51q4 6 34 36q4 4 7 8z" />
    <glyph glyph-name="tilde" unicode="&#x2dc;" 
d="M326 658h47q-2 -40 -22 -65.5t-49 -25.5q-21 0 -86 32q-10 5 -16 5q-17 0 -26 -35h-47q9 89 71 89q19 0 85 -31q10 -5 16 -5q19 0 27 36z" />
    <glyph glyph-name="hungarumlaut" unicode="&#x2dd;" 
d="M305 677l-99 -126h-44l56 126h87zM425 677l-100 -126h-43l56 126h87z" />
    <glyph glyph-name="Delta" unicode="&#x394;" horiz-adv-x="667" 
d="M29 0l268 667h71l270 -667h-609zM125 62h417l-209 524z" />
    <glyph glyph-name="Delta" unicode="&#x2206;" horiz-adv-x="667" 
d="M29 0l268 667h71l270 -667h-609zM125 62h417l-209 524z" />
    <glyph glyph-name="endash" unicode="&#x2013;" horiz-adv-x="423" 
d="M53 209v70h316v-70h-316z" />
    <glyph glyph-name="emdash" unicode="&#x2014;" horiz-adv-x="538" 
d="M0 209v69h538v-69h-538z" />
    <glyph glyph-name="quoteleft" unicode="&#x2018;" horiz-adv-x="192" 
d="M139 534v-87h-86v72q0 61 25 102q19 29 61 46v-44q-43 -19 -43 -81v-8h43z" />
    <glyph glyph-name="quoteright" unicode="&#x2019;" horiz-adv-x="192" 
d="M54 581v86h84v-71q0 -58 -24 -100q-18 -28 -60 -45v43q42 19 42 79v8h-42z" />
    <glyph glyph-name="quotesinglbase" unicode="&#x201a;" horiz-adv-x="192" 
d="M54 0v86h84v-71q0 -58 -24 -100q-18 -28 -60 -45v43q42 19 42 79v8h-42z" />
    <glyph glyph-name="quotedblleft" unicode="&#x201c;" horiz-adv-x="332" 
d="M279 534v-87h-86v72q0 61 25 102q19 29 61 46v-44q-43 -19 -43 -81v-8h43zM139 534v-87h-86v72q0 61 25 102q19 29 61 46v-44q-43 -19 -43 -81v-8h43z" />
    <glyph glyph-name="quotedblright" unicode="&#x201d;" horiz-adv-x="332" 
d="M53 580v87h86v-72q0 -61 -25 -102q-19 -29 -61 -46v44q43 20 43 81v8h-43zM193 580v87h86v-72q0 -61 -25 -102q-19 -29 -61 -46v44q43 20 43 81v8h-43z" />
    <glyph glyph-name="quotedblbase" unicode="&#x201e;" horiz-adv-x="332" 
d="M53 0v87h86v-72q0 -61 -25 -102q-19 -29 -61 -46v44q43 20 43 81v8h-43zM193 0v87h86v-72q0 -61 -25 -102q-19 -29 -61 -46v44q43 20 43 81v8h-43z" />
    <glyph glyph-name="dagger" unicode="&#x2020;" horiz-adv-x="467" 
d="M197 -113v510h-153v68h153v202h72v-202h153v-68h-153v-510h-72z" />
    <glyph glyph-name="daggerdbl" unicode="&#x2021;" horiz-adv-x="467" 
d="M197 397h-153v68h153v202h72v-202h153v-68h-153v-241h153v-68h-153v-201h-72v201h-153v68h153v241z" />
    <glyph glyph-name="bullet" unicode="&#x2022;" horiz-adv-x="667" 
d="M337 478q55 0 95.5 -41t40.5 -97q0 -58 -40.5 -98.5t-97.5 -40.5t-98 40.5t-41 97.5q0 58 41 98.5t100 40.5z" />
    <glyph glyph-name="ellipsis" unicode="&#x2026;" horiz-adv-x="575" 
d="M138 88v-88h-85v88h85zM330 88v-88h-85v88h85zM521 88v-88h-85v88h85z" />
    <glyph glyph-name="perthousand" unicode="&#x2030;" horiz-adv-x="958" 
d="M573 667l-436 -667h-53l437 667h52zM159 674q59 0 89 -46q31 -46 31 -141q0 -84 -30 -128t-88 -44q-119 0 -119 180q0 179 117 179zM158 627q-62 0 -62 -135q0 -69 15 -100.5t47 -31.5q68 0 68 127q0 140 -68 140zM796 352q59 0 89 -46q31 -46 31 -141q0 -84 -30 -128
t-88 -44q-119 0 -119 180q0 179 117 179zM795 305q-62 0 -62 -135q0 -69 15 -100.5t47 -31.5q68 0 68 127q0 140 -68 140zM496 352q59 0 89 -46q31 -46 31 -141q0 -84 -30 -128t-88 -44q-119 0 -119 180q0 179 117 179zM495 305q-62 0 -62 -135q0 -69 15 -100.5t47 -31.5
q68 0 68 127q0 140 -68 140z" />
    <glyph glyph-name="guilsinglleft" unicode="&#x2039;" horiz-adv-x="231" 
d="M90 246l87 -95v-78l-135 142v64l135 134v-79z" />
    <glyph glyph-name="guilsinglright" unicode="&#x203a;" horiz-adv-x="231" 
d="M140 241l-87 95v77l135 -142v-64l-135 -134v80z" />
    <glyph glyph-name="fraction" unicode="&#x2044;" horiz-adv-x="146" 
d="M318 667l-437 -667h-52l437 667h52z" />
    <glyph glyph-name="fraction" unicode="&#x2215;" horiz-adv-x="146" 
d="M318 667l-437 -667h-52l437 667h52z" />
    <glyph glyph-name="trademark" unicode="&#x2122;" horiz-adv-x="626" 
d="M156 620v-333h-53v333h-94v47h239v-47h-92zM465 287h-45l-79 292v-292h-51v380h76l78 -298l77 298h72v-380h-50v292z" />
    <glyph glyph-name="partialdiff" unicode="&#x2202;" 
d="M87 612l9 59q83 -11 139.5 -35.5t104.5 -69.5q61 -59 94.5 -143.5t33.5 -179.5t-40 -157q-30 -46 -77 -71.5t-100 -25.5q-90 0 -154.5 66.5t-64.5 158.5t61 156.5t148 64.5q64 0 107 -32q18 -13 43 -44q-3 5 -7 15q-23 64 -53.5 104t-80.5 73q-45 28 -79.5 41t-83.5 20z
M256 384q-66 0 -111 -50t-45 -123q0 -70 44.5 -120t106.5 -50q63 0 106 51t43 126q0 71 -41 118.5t-103 47.5z" />
    <glyph glyph-name="summation" unicode="&#x2211;" horiz-adv-x="667" 
d="M596 750v-226h-61l-6 163h-426l253 -417l-253 -458h436l3 162h63v-224h-576v70l249 450l-249 411v69h567z" />
    <glyph glyph-name="minus" unicode="&#x2212;" horiz-adv-x="471" 
d="M63 367h345v-67h-345v67z" />
    <glyph glyph-name="radical" unicode="&#x221a;" horiz-adv-x="667" 
d="M667 829v-62h-198l-221 -767h-81l-85 302h-82v62h136l39 -133q7 -30 30 -138h5q1 5 3 13q1 7 2 8l17 72t14 57l5.5 22.5t4.5 20.5l45 155l111 388h255z" />
    <glyph glyph-name="notequal" unicode="&#x2260;" 
d="M273 443l55 113l47 -18l-46 -95h138v-59h-166l-45 -95h211v-59h-238l-56 -116l-47 18l46 98h-139v59h167l45 95h-212v59h240z" />
    <glyph glyph-name="lessequal" unicode="&#x2264;" 
d="M466 603v-64l-361 -159l361 -160v-64l-433 194v58zM466 127v-62h-433v62h433z" />
    <glyph glyph-name="greaterequal" unicode="&#x2265;" 
d="M33 156v64l361 160l-361 159v64l433 -195v-58zM33 65v62h433v-62h-433z" />
    <glyph glyph-name="lozenge" unicode="&#x25ca;" horiz-adv-x="667" 
d="M334 693l259 -359l-259 -360l-260 360zM334 604l-197 -270l197 -271l197 271z" />
    <glyph glyph-name="middot" unicode="&#xe000;" horiz-adv-x="192" 
d="M138 291v-88h-85v88h85z" />
    <glyph glyph-name="nbspace" unicode="&#xe001;" horiz-adv-x="233" 
 />
    <glyph glyph-name="commaaccent" unicode="&#xf6c3;" 
d="M307 -60l-66 -146h-61l41 146h86z" />
    </font>
</defs>
</svg>
